<mxfile host="65bd71144e">
    <diagram id="apuMzBAnEXiq8-mIeD8t" name="PÃ¡gina-1">
        <mxGraphModel dx="925" dy="2204" grid="1" gridSize="10" guides="1" tooltips="1" connect="1" arrows="1" fold="1" page="1" pageScale="1" pageWidth="827" pageHeight="1169" math="0" shadow="0">
            <root>
                <mxCell id="0"/>
                <mxCell id="1" parent="0"/>
                <mxCell id="2" value="" style="shape=stencil(lVnLchs5DPwaXVEkAZDEOZv8R6rirFXx2inHyW7+PphVcSSCmq7kZkvoGeLVaFAnfvft8ePXh1NJ395eX748/Hv+9PZ44r9OpZyfHx9ez2/+14nfn/jd55fXh79fX74/f7r8//XjZrn99c/Lj+0J/11wylTqhirp5+WTnEjS/598uACezs83ADGSsgAaADBxi4BejgHcSPoMKFTBG1gohSMJSQaAtBypUqvHgOJfhyMZaQcAD2ueAKWQAR/8eT0A6vjkPqBSnRPHmZICAFNPM0BJQR5yjqXBRsbHAKNkk73IqJW79kuepVOTY/tKZc6aFuoga0p1fr5WYpA0JZn9rYUK8Hc5fzWqIANGbU5xE8ooAUxpPlDrVHFN6Azo2IPinagzQGH3l71kdkAnBj67030GWBphOGrmEFUr0GnuI+g7gOEbpEQGMyFGlFeHizcABQBNlGUBoEpdEuc+FNQKJR6p2+iO+wBP3Fx8vVI2ANh78aaWBABaoTS3p1crOlLzUpt9aEwV8UUf7b43nOce5MFPnGYfKsPB0GUQ3E4ZnTIo775wwMZJIHGepkBK0iALWyadj+T1CwEcp6EP1IZom6PTzIMJ7wO8RWeAdznKw1b9c2k4l2cQpQ0QpmGihN7AgyP2Aa2wWm0Zbi4yOhgOznMpvMGJDBWfRBLocKB3FyWzvacNdUONiqFRwf0pKdqD0q5elxbPA/ytNVZFowrKzhkpUFijDBJQZcjMvZnhqPJW70EuwOnv9jU0GhUQf7dv8/MZ6i8/f6w4qAg9PoFPM1QLHv885zeNrjvKb9Fgz3ggyPJ8ZG+xHjKk0pZGuPeeH0R2ZN+Cnh0BOLIPSsQTAurB7cNM1uHQkb8WphMJGuG2qLuxMxzly3qwr+j5d/ihonzp+Ppqz6h+ZEyVq7/w+RKHsVJD/cJj6bvmC6mDzX6OD+N8SYy/ayoUf4n9nnF8NAooLHy3fLVgj7TKZl//wN7lVor9jkZqs7gb4Of3RbhnmC9XQjzXmxM2likhnvsGfN++xfj4QosIJac9IDsCt6R5ywfKYsjRDgg95k4octrGTN+DhK9nrI/NZAcIpGkPE8804Vt+BnVtusxJVzo4cWFBE4OT1bUZB1Et8HrGtVm42qgJcrtvuUHyerd2vEn0IG52AXnUPRrUTYXj2L8O47i78gf87nquz6XRsaheB7Kv4owYVSMjeSrRcuNbaWggq4NE7u+9PtPCZu1rJ6hW5SHSd4DB5cZLzeLtI+Y90YjYXgHOJMuG5gCkNH0fC0p/61p0xVHizZF3LeIZH91hf/KNyvB9ZRCbVuAOmHuc5s7naDzkZS31JoR8H+Ws9wMqPolc7B2F9iev1SCnMtRrabntq3APX4aJdlipKd4+qkI9kuP6pBneYpUoX6TChVfGSn9z74DmQo3x38oczefBbrt9gXrQ9/OQAK9yAwnLGj3ebuVBBrKNA+9c0clQSDmuLP7OBHJ2XXFvNAm68uYcj9QHY963X++wx5S4b29LFcGh4zVg4Y5/zIgj+g13rQKbeP05SmAG3N5ytEdX/BLvrxVKEV1Es0I1pfut0zX+Cdu3aF/R+XWU/M2Shs+/2MP4LOfp8BJn9degYl7jaXApWvOVEw7oUhAZi5w//gH0NwD+x/X31s/np6fLz7W338ffZ/2jy2+7/P4X);lineShape=1;strokeColor=default;" vertex="1" parent="1">
                    <mxGeometry x="119.11796285728008" y="117.37109450873174" width="74.87950118665742" height="73.56005106648661" as="geometry"/>
                </mxCell>
                <mxCell id="3" value="" style="shape=stencil(lVrbchw5CP2aeaUkJHR5zib/kao466k4dspxspu/D9optRvUfZx9G49hWsABDqgv6d33+4/f7i4cvr88P325++f66eX+kv66MF8f7++ery/66ZLeX9K7z0/Pd38/P/14/HT7+9vHITk+fX36OX7h35ueRKp1aHH4dfsmVqrlv28+3BQero87hdyoFa/QGChk4uYVupwrpE6tW4VGHIGCLE9o1BNQCNStDRyo9HMFlumTTSHBJzCTsFUoFIANsVO0NnCjlIGCULdeUqtaAAqJklgF/aYChUjB2pDUBuClTiFbeQ1DO5evJNbkHGfkD+ULZRuELNCnQs0arNhNwENCkoy8MEUQAgVFsPKFIgC2nt/Kl0AZ/H6lYlOzZGrAn31ieJPv8DyRie0DaqIKUK2YYxuB2iggzDUq1qUtQkho3jjMNYExG0FzClpdgFPVS9EeqQeKAHWJqUargGGqWVJsnHsiBm7Nmrg2Dl1rJniC4j5Zo7tmAnCrBF9dVKGg1JEDhYpyp1NdFALoI4rlnL2XUA0ubZa3XRwKeIKCOdr8bzgfap1Q2xTKzJBDBQVzsvnQmDpwq4KZrdF1q/vHCppANtJVJn6Pa0D0RaMGGGn1uiMARWZ3PFaQ2Yx3ZQyWJe0arq4KZXQkLZRWIfeZg6cK1q05wTioDd3aoK2KkQ15tvtd8wwAS+rW7AiAPgHQJA2ca89vUAwFc7A2KIlB8FYwZ6sQy0zaY4XkG7RyCFS9WyBxzC2SgKqhGeci3WdGnaW0o4bKIVAHXereGx26+OYgsACUuAAP1jBZkU0JyYeFwsBeNRpDd/KIsWnnkeDkMwBpWkinwN/X3sni/I/6FC81vkI8qLyjnAooxOOrnxQq9D8vrbxSAHgY5nl7BeBtUMjo/Nkx2yleHrWPdW7R+OLzR0fhqSEypQWEnTyMV/VVMWF/tgn3nTzAp8p3f36UL1puXIVLs4KdDY7B+xPVE5VPPt+RP4e8Pb/SW+BPlY+uF8+EO7O3FCcP47uMdHVOAGf+Tz5fIN6qH7lUHp1fjxv9eVC+lIWrUEX2iq8/BbKtkY8WzwLr55B3Iy9k1bzU2zy51Jm94ngN7L/qvujxjybe/yufosfnG6OTeBIUIBfV/uXiuyXcWX90/TfgDULw9STAeVf7u2Pf+PcL+/wKcFIs1Q/gShCAfF3G6QhXb7XMx7/GtyBKufhf5nbwjFEWa2+D/Vcpq99ORljglBS7BI4ZVtDOs+DsdocJEXvNWJuSr7u+s+Gk2yONooXWaHoAl2QMs7h332VSnXXjTKFbWOQE8zKGDfe7kQwxFX2EX44JnhKbp/ZKrtE+s1ffKzU7MlLIc3jZmgdjbEQf6jGvIHgvdKXFSeCPFfKyosBeqt2vihTxgiqALGsWhimtI1O1R+p4Wi+ybH7qZIXHCmEZ+hTAbyyjrA07PB7X+e7r8IA88Gtet1EdMpfU/WZTAVzAkVL2rWQAGBxJuZ0sgaiYHK17R3irwZMM7TZqqJ2PaxVbNwbi0f53WVQq4lGx1PLuGwTu6G2W0t1+DHVE8aWyRrimZH/bVQq8i4rLwBvhBiF4wjxWBMBBSx0eF3gARcEPvLnC9hbnfL7rDKhZLe1TE0OAvdkTmHGnhDYss0LveiFcBVK0iT9GHgQ4ngPEplCgAQppR7HHjAwQFJeZlDGH4eVIEd+jjSWVU6iQdqbox1hlSVBhWyPtNoFoEFEUuEFfHY02Awe3xIzvQNZ7aIaZc3DTzbDEC/ueoApomyPbMmOngJJTFVwTiXiekrw8IeF7nOwXghpptDFSBdd1VAHRsAMFgbeaB0cqcJV+YHSBOX3g1grb1EHgMNE7gEadk/2fgg+/ZvEHCvrh9a2Oz9eHh9tLIfv/+7dA9KvbGyTp/W8=);lineShape=1;strokeColor=default;" vertex="1" parent="1">
                    <mxGeometry x="320.9860691809024" y="117.30671416576695" width="79.22702479326563" height="83.96827374330917" as="geometry"/>
                </mxCell>
                <mxCell id="4" value="" style="shape=stencil(lVrZchw3DPyafWXxPp4d5z9cZTnaiiK5ZDnH36eZDUfD5kxv6U3aIXZIoNFogHsJn348fvn+cPH2x9vry+8Pf12/vj1ewi8X76/Pjw+v1zf8dQmfL+HTt5fXh99eX34+f739//1LX9n/+uPlz/4Nf9/sUjS5ditv//n/ExPSfx/8elv/dH3erY/VxELrqxPrg0lpWp9NDufrQzM+TuuLaWp95O9vJnux3hqXp/XOmWTPDXC+5maDIE/gnWl2NoCL2rmBq6bQlqpxURhgS3PMvDVFBAE7LmE2CCYKL8EneY4CwpaKMLDGzmdAHJo4dOWwBexRrC8m+Hl9MaWer898gOjurHezh2I2VngITyltrIRRNn7ef9J5lk2lNGsyD6qxbU6zaKKARBve3tZX48V+nB/u2PISeSMc6uIAzGawUc2xAUI8501BiEUaAPR+xlxFGoiYddDPQa46DeDVOG+pZhOzZCM6Q9347JgeHbu1IfVEHoB/ib9aGPRxaJDweI5Di6YIpAJoboZGSxIaQJpfDJRb88Lx/Q3iDCWYavkMSbFFZTqCl5JIhwqvW45DE4euAPPsVkS6ijPgcZgPja9QlbNZpoC+SbGl5o2jFEXtFHGATyylaJAZ16E2vwGs0UROtwUaWRdPGIQ5cKlqHgM0ZrcC8Fa9AY/neh6LqcpLboRpM9h45CxwkWpbM1F4CdAgEgh5ZPmxQeLqE9z45NjAG08CoJos3FqwpUUAKCIrSHkyQOwFzaB8hNlL3o+afcwaeThxM3C6hNpFxNgBx2Pmi8aR1GsmCWgAOWGGN5SbyrhoWW3DQMpVbGk1EEIMcfWWz+BUjfOmVjZQzIcNUI1DHNQbUNiTWwyUmMyDhXaBU2LSLWoMBlKcpPF4f2j1Bqi1BRoKSzDwCzSSYI2+pTlFnealfmjLBl51AYsm7o5WcSgsf2CQNDQYfFnHAemybKmq1gcJmfnQQR26ca8EAwVvIMfNRbFnnDhDN1gyTtUHPC4LWmUCtaG/dgZSSlf2EjLOKreWZUtuEM8Zllpb3qAN/Nqz6iaXtEZnb1FQeooWjsOdjPNLpFWP6DZZuzOwKh/SyOA9WjWRRaKZrGcHZUwKdgZZeemjBqgP1A50plIJBNqa0YpWsOoRDidQlF5CFWW3xtFen9Vpmn+4rVE7UwJ52ZLSS9nxPANeUjIUwpk0350pEaQ5s3eRbRl6oExbajKnIRLrktOq4XhvhneaTwWut0ikBMoYJ561NCylwRqqB4qsyIAupVvReRZ6gx44tsKtZfSSl1plmgEcFRm3xlU0eTlbattoaN80KRKwlrUDmnhF322bqm4GTTejjd9Qoqy78CvNWdGDqGlOyyzJ0FArWQlsULtb6yhKZ50fSYE+nBFbqmUQ3W5OEZRB4LrbsqyK8EmgN+j+GF5PNNjQ6iQvb9ih5Wz+Yz9mAXjmwJtSvR8SoC3Hlo1WHmDbDIqcL/cWnQySvnhAXSSDIIfwPnH/CjRJ9bBEAvhSGdEl00x+fUqlh7pUIqqTxNF4Doci4+TUm1TiOxyPw2bC7KJixzzo2Kd8GZWT7pkYqX1GIFCxTJhTktcglmdLycrJz0LDMcnzoqulWw0rpZVjf/bBktJuSzG8M43mgTrqufLPOsIJd24p7CJhZMfqlsu6LHVbbxpIVQU5X8EGmOzcmK2dXTpwmRr3g6fymUamJqsrBz8m4RsmJElA3vBUTDOp58rvRnN5prWJqvXd5Dp0u1M7InPQlnTH6xOLVCtVcMqs75DCamiYude2sm5gPY88JEWkwhc+flz1na3nUe9ofk6/f95PGH302f5pXhhM0+sp53UJQLwa6WuJz/d71I1zpRz/6A8e7q/HH++/rvh2fXq6/Thj/5x/jYGPbr/kCJ//BQ==);lineShape=1;strokeColor=default;" vertex="1" parent="1">
                    <mxGeometry x="547.139813103767" y="123.03563425797199" width="69.59967407900945" height="73.49952136540026" as="geometry"/>
                </mxCell>
                <mxCell id="5" value="" style="shape=stencil(7VjLbhsxDPwaXwlJpF7nNP2PAHFqo24cOO7r78utq/WKyo4RoMfcbJljUeQMRWrDd6+7h5ftJrjX8+n4dftz/3jebfjTJoT982572p/104bvN3z3dDxtv5yO358fL99fHibL6dO344/pH35dcEwxTqDgfl8WHKX8d+Hzxfywf16YJ0rcmQsJr5t7R7509oVKAfZCpXb2uuIAQN2N0gF0xYED6Alqf+DpTHEdwNw8bgBdEbCD+ObAHCONaQWAQtyfQTJVENUYqfRZ0BV2IGtMoT90CpT8OiBrEA2gEoMo5UTBdYAcSWQdUDxF3zPDUQ4AEG0edMUjQKWUeoCSL60DaqDau1Q9FZDpGin2eahCHgEK5T7TNVEBYa2VpNdDzRTQGSrlAYAyrYDas1WddIBL3rn2+wIheAsjagUUDEg9+3TFAwXpz6FaQEQ7FKugKXAoruWNHZBGNez/2DxXsmvg1hB+8KkiNiWK2QIgm5KtTFOkgUiV4EZCFZcBFUwwAFUEiqtrUZwBTAmoWgGmDCjAoURoOTaZCyT4DNGcwVPFdSMEC0go0+rxABAMKINLjAQh7RZfACIuZRyHQ6OwDnfQFFYkuZF8Wm/B1T4BBmrcOEMeyzHiUmxVZQGIyCVpN/8CUFAeeKhkseV+jUvF2x1gEQjkxAIy1oMEC2DkkgrI2zzA8u0GtnJTyGoRGCQK65Kyv1iARy75RrUFvTNSXKA86AH1MxM3hx0YJU6aXJY7IC4pW2U4AwakIazhRrl/H+CjPfloT1B7UizgVnsyAP5vexLtWDNFGlfXYFya7721oWPsZxhkrug8aujqYLEsbPOgfyFgh6xDRy+hEuCInLn93zzL6ZSCxstM3JcynR8z4HdydvjTCRVxKbJt4mKC7xQSbW8sswjfHvNVQQagUQJh5aGvZIFcCmIBocBewM+lcQbgO8jP4+osajyEJ3vvTu816MytUZizAKuSs68Ovu23Ym4aRA+fTYY6PzcFa+ZizFF6nW0NXWsIVsyFjblAZ4wkHbw2fcvK1dyjO7BNH1dzB9Q483xhDv49WO3eeHCzBdG1l6IVipmC6+Dl/c7ny5vm+uH6Uvq0PxwuD63L3+3Lqi5dXmX5/g8=);lineShape=1;strokeColor=default;" vertex="1" parent="1">
                    <mxGeometry x="207.57679972727362" y="211.58103742737137" width="74.85797643418971" height="106.88333400036242" as="geometry"/>
                </mxCell>
                <mxCell id="6" value="" style="shape=stencil(7VldTxwxDPw192olcZw4z5T+DySgnEoBAf369/VyynJx9uZUqVJfeDuOnUtij2fs7I4vXu6unm52Kby8Pj9+vfm5v3692/GnXUr7h7ub5/2rfdrx5Y4vbh+fb748P35/uD78/XS1PLl8+vb4Y/mFXwdcDCRtQaXw+/CNNIrl7ZvPB8D9/uEYEInTAChCKQNAJo4DoGbSCACFYhgBjaoCQKNWB4BWamCFxH0DHdASMQNAppxHAFPGgDpGqWUqaEv2bxkBQpogILktFWogSnZoGcPalAI6Q6JcPUAbAERKPAIaCVjBEqfZA1DiohKPW4ohUAiQTG3akyKAkKgHMEiE8TtHHyYBYYpGnbHkWu3JPwWoLkyRCtqSAcpYEMZ4tEKmMLKvFlKkAlNRlzOpziRONhKFilcYtyRWU4gbTG08dK54S5YHBwiUUVhTp38HMFNB0pc6mzsgVUqIfFajI7+tpgQnro3UMMJnBGgUxjwoVbAjU40wBokpgqByojKqDK7PbD83ptmyDH5feFIAixDIwWJnDiBdCDcBJXezWQHaxXwTUEMnwZq0BBVDg9dJowUD6TY7cwAOvTo2AWY2nqm5x3kboF4xWKGbHOnumjjscCajaWSeRGjrZoDiFKB0IdwGxO5nq8bgglaTvTFMlnxkida51JFMpXQx3yYT+16mKLR1SV4nq7kqUGIxJgQPyCBKWXsBHwECAhTPPmN8AIkzItTmD12A1psINPVhbeDQBlAHEChLtiXnuZYZRisI1ZF8JUILfTebI/JVBGi+4zNABFGyctE6AUAeZA5rgBUnW4duQCulTCvgvliqN7hlekAr1P57K6DCErUtyUQ+pBp26DjKt9EbccnC6oRsKSBUomt9HZcoooZpxFSiaMayEtXkz5AxvdPUvyEuWQFF9XmQMyXqEicwD7aC3xL33v3kGUbPKth3lyg5auDEWR6aa1pXtf03AGm+2TDCn2k23Oj6zt9tQPVSubRQyBTZD/hmMYitWrxlWWYyOLTZbpwbb5CHqp4aXPvkuG27bepauZvYKZ8uU4cFtVV9TacC/UHWkW0FcJ+hTtG7uMYVj1gWxDB1ug0YSmpe+Wz+QJ1AEn8NYq1xQVcIvNXpAvIt48boQHxmS5Y4l+nWbfLkvckoAubcASQuTb20DaKoW1+i5EQgwX7JAGUepkE9JJnkvnThOQVo4xk040N/3JC9AbRPyydvyNQDPm7I/sMNWfAmt5AJnKH6insfsbfV20dVE/T1SZXMhiNi0kaHiHIQqEwDE5KYaVi3xqOBDAQ/SZvfoV4s+PgIvoGP034K3M80+tjzCcazuasDgTd1U0dizyewH/FTydKFoXuAfsl29Dyjrm3yHNw8q69hiw8DF2x+0LN8oXbHCsw3hQqHpL9/r3QeYB/eX2Pd7u/vD2/Bjv/vX3vZV4dXZnz5Bw==);lineShape=1;strokeColor=default;" vertex="1" parent="1">
                    <mxGeometry x="189.83525548618945" y="186.46221019024313" width="40.86867667116826" height="49.58181930706019" as="geometry"/>
                </mxCell>
                <mxCell id="7" value="" style="shape=stencil(7VjLbhsxDPwaXwmSep/T9D8CxGmMpnHgJH38fbk11llR60kN9NACva3XmiVFDoeUNuHq+f7mabtRfn457D9vv+1uX+434cNGdfd4vz3sXuxpE6434epuf9h+OuxfH2+Pv59uppXT05f91+kL3484LdTihFL+cXzD1PjXi4/H9Q+7x8X6GKnWbn0mKefXp0ocuvWiJMBAYSq9Q9IoAAuVKeYOoGZTAKBQ7C2EQlzPA1og7S3ETC0DQKKiHSDl2eY6IPtN50QK9tAKSeoAxZxsEBB6lyxu8g6g9YBMDPJggCgdoPHMlXVApdBTqUVKyKVGrd+02WSQB2Em5h5RKaFENErqARX5ZFzrw2SfUIXcqOIBCaVaVwAlAX43T9cpcKggEoUesAjcOkIoxIsQxdiRBqdAnIzPdQgs2rYJxwhAgc2V8hBYlLpsRecIi8mRrawvol+UWepOAIU6EE0tnUtCGZREtO+xBwjYdEwUnUsMLSQe6McUwB5MG3kACEqcrlhglIc653UBUJAHI18YtCyBTRu9vdAIroc6t9kFIKF6qIMMKNTjMvQUAyB5LToX5AkQiHE9lOABIQCArAAi4lKiNAKAhdiosgegmjZ6S/BRqriAfKZ17mNnS9Qpn1DFIpDEAwKeycQpH89hWAfUIaw8N+/1PETi5AECopR5xSU0Y5lUBh4sIHrLEFaGM1ZJw/TAMA9WcXHQ1vAnAfa3ukzb5Ag2/bcONOoB/+JAky5C/B9ofod+uVF2TQiP7FbWXjjwocC6ljgL+NhhAL7oYGMuNQfgeYg6K039yPQ2T5wDaG9hOv6BNmfUcImbDpgocYVyX6QRn3mtVefhkIxGJmsRTvzsGK6A3vGU18VBv4BNB/H0FhtokFoOB8wMW/tpxDt9fzZ4ZrmTYoFJNs4UtxzdUgyCxPOdwnpwPCEYD1aU/ddRrqpnD8M7HBE/STLe66DXWHstsW6OZCgqehq4Fv6DatHoJzCGI57xKvnoZ5CsSy/d3l9vD283fHe7h4fjBeHyf38jaK+Ot4nh+ic=);lineShape=1;strokeColor=default;" vertex="1" parent="1">
                    <mxGeometry x="341.58622515778643" y="214.58919631976255" width="9.92200249870325" height="112.15896902778888" as="geometry"/>
                </mxCell>
                <mxCell id="8" value="" style="shape=stencil(7VnLchQxDPyavapkyw/5zOM/qCIhW4SECuH198hs2Yw1s53ixoHbJuvesVutlqw5yasvd+8+35wif3l+evx48/38/vnuJK9PMZ4f7m6ezs/26SRvTvLq9vHp5sPT49eH95e/P7/rK/unT4/f+i/8uOCSUKgdFfnn5T9SKJTf/3l7AdyfH7YAppIWQArU0nWAVIphAeRAsQKAUF63VJgS2JIw1bwCMqV2HRAr1bgAKlOMAJColBWQiRkAAvH6BGUK4Tog6OBkAhJVBYBMZaVVG2QpREq8AFohxoCYPaAClkKgvLLUjGgQh8A7gFIFtDaS9cytjUMdrq+kza9XoNVCosv6wAzjnEjL7gFI25RkdwAQgzhycUsQYpSC+Ag0sH8+0AQiiL2sm8kQnHeyN9cnSnC9OMkJCeSf14BpgWnWiFcBVaWcAZ/JW0t3CgDoEXBeFMYer3mRrJTmSAyeIHEoZhqwwBh0A16DIJkyIjX4NIs6dHsMMJZW2cUIWUp1+PNMtEIN6DrzkM0UBglaHymvR5BhBceJbzVsFRLOe1OBS8wyMuN4fSRdY2BmWRAgjTycgEoFnKBW79a9aCFAo7IGrSsLKFWjL1HWC6Dk1OzLbFJi4C46gzpzIcMS1YzWNWwWSJTPZm/BAQpMnk0B2JZ+wGubZ5yeZLyCUDfelX5rX4CJaRikbAAV0GSh5uYBGalvZ0rWjSjKhzx6wAnAptRJVM8SsoyeEKu+raMqQK72hOh6tja8+RhQKK5bqrh96V87gDVI6NC7lDNAAACdJrEBMAJY75w8ACZ19sWhxx6wZAU2uS1ZCQUsad1FmmFF7ACnVqPhhS25BLJbDfKZ7CNt8kZ9ZBezk3fG1hd8RewpCkqoSWMPKCinq7c+xb5kQnC9lSYYhzqPuEnRCmitu27YaIjAyGr2RtYzBKVo9oc28cEnWFV0+VBhRbHfa6v4Om/AKk3MLXsA6t/+HtB2vlRgU98TyKUoj7J3Td6uUJdEGQHYSyMr1pKRuMbBOjpF+RD9XCJFKI2ivgLJ7N2PAWa966F7Kw5oLWYqqzQiprXMK//s4SJkybqdxv4JqA21NresLMWMpzfqU1QC7tSnECZA4Q1LGrXVyFKB3YxdRpxae9MHapy1/mWnVkFXrOTVWgUmUGhjCrFt4YBaQ/btvTV1jMY9/2cr/2cr//hshUdbN9dHuJ/kW0/FU9j9HYNhe2GKTq4O2gPQ8Eb8lcHqILoSW97rbniTwZbszK40Z4FzgKh+GJ4EDj5kDqan/zbojnaJVwfAYbavnU7tJwQ9IXnvshqSESD7SMvsgY4BxUtJpptdG3G5wBkAFp22e+3BY2J0LG721x4DKCqcxol4ltAYIEXvXxYH1F6YctidQeANwAD+DIkCcmDxo0YLJbpY/f3bpJcB9uHPy6vb8/395d3X9nv/ssv+dXlRJm9+AQ==);lineShape=1;strokeColor=default;" vertex="1" parent="1">
                    <mxGeometry x="325.0851291825918" y="194.70540187136373" width="39.25584075274128" height="49.79508292252274" as="geometry"/>
                </mxCell>
                <mxCell id="9" value="" style="shape=stencil(lVnLchs5DPwaXVEEwRfO3ux/pCpOrFqvnXKcTfL3AaPiWARnWuubLKNJgkA3QOgkd98ePn69P8Xw7fXl+Z/7H+dPrw8n+esU4/np4f7l/GqfTvLhJHefn1/uv7w8f3/6dPn768du2T/9+/xfX+HnBRco1g6K4dflC20k/Oebvy/2j+enK/tImmb7TDkc2+fFPlKSY3ulHCf71qiB87BQDTMgUS0A0KjyDAjEwIOYKM1HqplCOwZIoJInQFFqYAepFOcdyrbnLiAJqUyArMQKohAozUfKiUIGgEK1TYDURiR3ASVS1RlgkQE7lEpaJoBYpMEO1RJnTiUxHyoAFIrzkSy7CtpBSRwAJ3djanMcIlMBR2rib8nSMYJcapl4Tg3OlNCRFsIZQyIgULNIux0CCfKhksyp0aigEymlOdB1XPORvTuQLYDsK3Fx9g0ojOmDLg7DGMRBlTcHFNknak4wKIK0M4WLs4RlKmB9ZQrz+gIVT8UHzBwCATNFl7kmBHh+qxi1OHu0Poft/28HKkDu1IqCU6+hf0f2nFwAFK1vwjOvr1CJdEv4LYN4FJUjQJpvlC1HAMc6YA4Z17HEPqBSc8Kiw6n/GWSTroSyTnzWGSCjHcJoJDYAzqPOAyddDTO/eB/slhjtkCjOgTY1RRXBBF4cIA51OgL4HSIstH0HFzjG8suebSZfFcuXrAKPfFgibQDog+wcCSmAxSGpBzCQsF4GxQMyEvm8Q1HULBigFQ9AnO4AR9GI61r2baFVZnit2beFBoCVNi1OJxwHWXxIoxYdAXwcEjFOviTeB8V8aEv/kjHjXFvIEXaqnaLFAyJmnCeQKR+KNI9ydpWtitI7Ll3e1rAfAWr1AMaczrMYKylyIS2XFOCjp3dVC0Nv0CEtO6Ca2Am3UBqWh3cD2hIGzNBe4hb+wE4mLhVre6TsA9K49auayOhIFjhZdkC9SfJl2py+sUNif603fCg+91CFM/vm2zfB/apr96y3Qe1h8XyOuJFpvlptBfJofZ2FPt30V9350bjAkiiou5+K7t+kwc14cN1pPiNMKxAxy5g9XMvdjTbM5Sjf0viVyQUV5+Cf/g23bdG/OStWu+yLToHteVcWcfaQMsHfUMFTM0sJcedHSmdPSKfWigcdugidtVOooi0O97qPX/HBlYMy0vYoBNkBdOx5WAJnQOc9LuNhDrJFAaVprb6HlDDq9D5AlhlYHu+H/aGZeu1NRm5AhJI891OGfXBeamAOUH0z+1YkZ5irdgD3zCvWy6N5aqM871AyfPHIygaGJa0Lrqs4ZVz0PiCMrnfTF4YAXnp5U00kwp1f8w6mCQFka/UzEnuwo/fLWpQLrDo86LvZ42Eq+0mn2cNB/nJ+hUMe9gp/NVY6ACyvWgwIY359fSIQsrC02HgQufHq+kYBNYNvc8weFZ3g5cvs0fxlmcqZPb4fx7I+CIT345TF7DPIiPf+NHXb3j68/Q72+fz4ePkZ7fr//ncz++rym5t8+A0=);lineShape=1;strokeColor=default;" vertex="1" parent="1">
                    <mxGeometry x="405.5851779298764" y="193.02971618532274" width="124.99633412284447" height="137.37809509804697" as="geometry"/>
                </mxCell>
                <mxCell id="10" value="" style="shape=stencil(7VnbblQxDPyafbUS5/7M5T8qUeiK0qJSbn/PhFVOT5zdKUjwgMTb9jRzEtvjsZ1zCC8+3Vx9vD6o+/T4cP/++uvxzePNIbw8qB7vbq4fjo/4dQivDuHF2/uH63cP95/v3pz+/njVV/ZfH+6/9Dd8O+E0StSOUvf99KQ4afHnk9cnwO3xbg9oEtMEyEV8uAwISXKbAUECAUQvqUyA1CQpAVRxsw0piRIbUpQSZoAbT84CMnwy2xCzOLIDfKLzkaKT2i4DikqoEwB+q4UAsmieAU6SI4AqxU8A5V6qTtwcaXUSEgXkeQefJJAjdcC8g98cfQmQDFvF8Q0MM3TQ/dJ6dfOBpBJeYL3xqRetZL235wcr2PlVUjProyfrg9Rk1nsW4o0BT+upP7MN2DPrkZnBnocxqA337ewl/m8gpD1/JfFtfrjjKV6B+BPrczDrWVJifZnjBb5lYm8ZSjjWV2nMn4jv7B8fedI3abNKwILIdCiJm3eA4CcSslwtpUOlOZA3IdykEV4gR0o6cmQn743sEOGT2egceYnaKtgmKyAKORKkNs4lquAVJA4os4YYSG1HmNqJP8cBuVoJVT0OMEsRkq+Q3PcqZfZS01F4f/FILYoj7IaXsgEEmp4xSFF7pEbIlzb53wCOAtDc1GK9xEoU4moDV2jgIGGmoapRGtcYEwcAMrEBXvfNAgpTvTxEdMclxtaGDC4WUEikWxsqtAHyUM7z5HPORg5+zcyIZkstIse2gBHZGIFTkoSAm0yTBzIpU/s4moMdgKUc2BwXAOsK8W8Xlx0Y+8rg2t4G1gGgjUzWS6xA9JYh2zgw2QDA9GA4ZGJFMVn5xiET66qyjUOnK/MSlNFZgGORdraM9pRjGRRGSdsnNcugZKWvywbjUlkA8BvTmSa+WLeyOQyAtgROGVvbaF5+UVz7kQygDXZdMjov9GYlCG5NS05TmTkL4C13mRMIWZ754GYBgdas3GwJwiGVHCkvsySkLbMOC1QzulSoLmH6raZQ15Eh51uBRYwRe1bkMJua+rArGedLSrSNaN+CGWHLKGxgXFoqVu9mSP6oTZ8+rTChXDo+MIWsRwNniy7vx9AimqsbzK9M6zVInHfAeMDuSTArmPkkb08udt6zk0DeSmQvghdz1PplDrvrUZs9cSt55wFtZOM20BSebmmceBuZKtX6vAgruJWJDUWXsS8Mslya4kykC/XqH7kn4e//5+9J7D3G/3uSaf1fvSfp57F8dmxEcvb93vOJx1mHet5N1e1WZJfDlYWs2BxWfovROWd0CF5mJPJ2aoNwMVagEzEXvPGZ1sVZmvard1JA8tIcpUCnZwz0RlhSoe1X2iauXQFxBNAvh2YboN+NXQ5Vqy3Qb5YMIdjAlUDZGnS51Q40HUCEVC2gsDK73ldF6iUUcl0AngGqnVT7Dqy3QAuZrQ2sDUa6mGvAbjS/czOzMADs+wUANnBKr27QH1kblGacLvlQ/OgFLgHaAmCV+fe/5z0PwI+nz4dvj7e3p6+P+//bz414dPpUGV79AA==);lineShape=1;strokeColor=default;" vertex="1" parent="1">
                    <mxGeometry x="249.4012287769076" y="323.50936257700937" width="33.28547285320701" height="79.8514555057343" as="geometry"/>
                </mxCell>
                <mxCell id="11" value="" style="shape=stencil(lVfbchoxDP2afdVYvus5Tf8jMyGFKYUMIb38fUV3bLDYPWneFqNj63J0ZE/h4W379LqZvHs7n47fN792z+ftFL5M3u8O281pd9avKTxO4eHleNp8Ox3fD8/z79eni+Xl68fx52WH3zOuFPL5gvLuz7ziPRX5t/J1Bux3hxtAKiQ8AgKFvA4IQsWcUMhFAPDk6gCITKUCAFP0AyBlYnRCoBQGQHHk/DogCkUZAYEYZCk7imPQuuIKAETiERAzCXApJ/JjHTRviQFAgx5j4EglQIAf08qOaoIx5DEGLTRKUmll7SHA/YsnH0eHWpaX7YuN2BGDGlQNOFl7UIJaKQfjTwD2opyx8WZAU8kUxxJnqqBgoq1pKuwogQQpoIwBKyUi8ihRMZSokNbiiY1aMDngUi0UnJUXBrSubEmkAAGsK6oNyQIyOEG1QcwJHqpF7mXqWRIKqBFi41kHJBKkFqHpWwf4FtUawMRQW57XQkhllCPcmq4xuecIKnBRIo32KpioNbnNmKu9A/7XbKeUg1NNuP199b+AeLUR0kjTRBntX6w0Cnkw0j5rz67noweQ20RZPkEpaSrMcH6oGpmxnIQEyJHWIIyNVmqbu8ukqxRHgATIoqhdMmbpJg+LCKWx6QPNdEXyQnXkqQpUBPbcaNBj9jDmu7Kl1JKwsr+M/oQ+5Jar1nSk06Kr2XKClGcjoEIl0puWIeoHQqEsCsbeI/FVf8TYB+B/9U1pr43pkH2y967cErA2n6K5OlJF+4vtGoF8kztCMDeSrwH4boZ7JI3S2rwD9J6BAJXYjLPakrDW+Cbmjy9e0QAYdk11dwDf3gBrV8HPPXP+A6Af11fVy26/nx9lt//bV5guzS+48PgX);lineShape=1;strokeColor=default;" vertex="1" parent="1">
                    <mxGeometry x="281.4805494058776" y="370.7891096068257" width="16.33399071560916" height="23.784176908228687" as="geometry"/>
                </mxCell>
                <mxCell id="12" value="" style="shape=stencil(rVjLUhtBDPwaX1WjGWkeZ5L8B1WY4AoBCsjr7yPHjFlp150ccjNrN6NXt3p2V65e7q6f9rucXl6fH7/sfxxuXu925cMu58PD3f758GqfduXjrlzdPj7vPz8/fnu4Of39dH385fHT18fvx//w84QTJm5HVE6/Tk+4ktQ/Tz6dAPeHhwWgKCl7gFDKlwG5kwwHyIk6OCELqXjAmE+2AYnEA0qnDkKyFIdPWjppBwAlyQ6gFeZgAPUn1EoJnJAzZX9CS7isSsOXtTKVBPvwluI56UEDhWRfV1/WSq2A0UiU1TdOqCgAMKnPwWbprW7bgEYtOUCnBopkGVb/e85UwSipUvVtsMZUkLN2qp4OVgUBIVmX1IdkSQkIqQpV3wYRagMAWpxuzdRBVRvH2dNBHUxGa5R9Ds2qBELqmdgztA1q4ITeKfuku1AHVeqJqk+6m44BOnSmUXxIDVbJAkg+aWsloxxkSsS5rB3qWD8r70JlCpglq1L1OaiNBshhWMQaAQmENAq1FSCDkEaN+8QolUGVRo+joY0YnTBWVbL1ACjKKa06l3FMY07zGaCUgNyPlbYaCSuYPitT80nUMZVnGyAkvhG2HwbDVnffCKN5QdM35vpYnIB2XG+UOOagaFxtEkqsEvIaxiAOVRKYdC80Vp1Gw2QniG+cDVNBpFbqgRB1LuJLVYoqoFM9txtnW9QPn1EO6cwwdV8B4LTqVMYFoAMGjUa6SloQYBCHE0yqMONGmCWG1sEAIWkbDf6vAGOwT9p2zEBaqXGjdLzkrNPsAaYjgoavUAp+6V3btje12VRfV1MeJPjG+SqrJECrrYo56MyYJu2SYwrzbSqAQrLhDBbrKPiAcsqUwg5iKBvS5gJZWCxFAI6erJzvUZeMa3C6Zo0ZVEl0GtsFQAGpDRA4ejTLKAeNJu74BJTVahJlI0+nuQ0o0QtUYxCgnKyMaO1Q+orZnTCtDPXeihhtYoMXAi6TwgsAchsal6J5X3Sl4Wh0m86lt/l747tvs7EHiczK+7zz70I8YYzsaoxuiee7yGLsoEpS9vXJdcrmdjwSC8oNcpPHtMDnikIeWERhhrCkSoqWgUkQC2rsmMD9b2JUgiGeFdj+fY/vJiqkgN2JA8kaXDqyMsMDx2OLNty50xTwSwD1FLBLOqxQjxdcYylyFwYIC8GmaiAxrdGOsGKp01UOda6IS2IaV3nFPMurVxkVLzWO5vkvb/b+4VWgfXh/kXh7uL8/vYdcfh9fPNqj00vL8vE3);lineShape=1;strokeColor=default;" vertex="1" parent="1">
                    <mxGeometry x="306.36188381817215" y="366.55511022815256" width="35.860702041676404" height="33.350639371201396" as="geometry"/>
                </mxCell>
                <mxCell id="13" value="" style="shape=stencil(7VrLcl01EPyau1VJGo0e6xD+I1VxsAtjpxwDyd/T4qLjo5FuB1YsYOfY6jMzmlfPKBd59+X+w+e7S/RfXl+ef777/eHj6/1FfrjE+PB0f/fy8IqfLvL+Iu8+Pb/c/fTy/OvTx+u/P3/oJ/tPvzz/1r/w9YpTcUk6Kvpvf/2muqR//ubHK+Dx4ekESOp8nAHFab4NkOR8s4CUbgNidrnOgOZiJIDgQpkAObpGVApQYFYpFw5ITsIEKMmFSgDRhVlC9a4SGwDIsx9qpn6ASlUnQPPDlftbggJ5BkBJYjT8UIqVwIwWfC/NNui46D1Ah18PQBhW7QFw0yyhFFeISsm76GcAAp4YnYJrs6dzHfe2B+B7sw05jWvYA9Lw6ym8hWecGECijkt5/HkAEmzwFBBnCbBKiOOgUp7DG56pgRpdDCC6yCTgWmc/IBwr83R0fq4aKAvKrjU4P8dSyK6xW0L0z7eEpK0k4wR+NaHB02E5j0sgCuF8mv0cnfLvm9gOVH8YnLM5T+Mu2PP4AAsKXF8y51mdT8nWF+88+77aMo/zPA1qMOdZvUNWeXteWea3JeKcL/R8jeZ8If5Sb+MnukT0x3md9RcX2flkC1F1kemjozYf+gttUSAGwRh8pMQeAA/MGvUUIy7uTMKYLK4Rm7N3zZTGMErZHgDqMQcd3MiiIutIwqO8Z+q2jO/NPQ0yM1EJLU9nP3S6Q0ojmqrORpdIKRvatomMopTu1LJQBeQ+kdBARgwgDd/vAXVhYGlcwx6A0JjpDtiLkPQEoBoJmUYrAG2uj7gGYUY3W8Bq5RKqU8Mi22hae0CxVAGAQmp8UxsaIIWeXatseCqremClMS0qkaqB7zW/GE36Ql39gEJGjAZADU8tI1huAVY2zyTAhk3wERtaGATtHN4slqL1Q08gFkvJdocqlOMhRQ3XBqAxlcomp2nG1cVxyoOvLRJ0lOf9VOUPinByNSMNXYS5psoBdQnXSnknrikbzzXK8+CIMEtonCjB1YZs90mPAaIri0qMnXfAUmcYAKGjJiGyyyRcS1skCC0bmODjnKOl0iZX/NhznJYASlTK4JNmL9HGvd3iDoYQ91mS0Zk6yMt5GUMkgJIZiv5GGvcAsbEE1k4leFv6JA2Zt1i0aXKxUKPTEQgHADYwnp6WOQa/YRLCiM3D02OH9f/gdvlvDm5i7vPfHtzmpOSDW1oID4gqKyt+sTfSC+1JbwzOY9DaA4LdmsEFhQGWjhOVDm59WJ1jThDlxGkojSYppVA2gjFNzJpN6CIPADOHpUZpJAB+2fzRW9LRwQ5He95A0jIaKg+NI9KO0uj5EgChbzawyh8Y2sI7PfUDsr/MsQSSR8vd8uZR2/cWc2Zli6mGFQy0PFPAWqbcGQlsBrcTE721/zcTQ58WiYhs322gkic2LI8q39n+r8RZ6LvQsk0Fg2M8IQzpx/lM55ejpZ52GGyiynagQiYEEhTVzlM50KcIlFCbzHWU8T0gj7A/ADpSY29xWB7OxHn2wlMsV0O2Kttoi31DQuWvJDc7c2kWQJfs2dZ5Dbyoqo0LjfT9pW/XggUIuaVOqaMFMBr/9oJ68gNdrDYXxALY5AyAKRco5LS5LQuJt1ZxC2AatB7j/c1RJFhAY72qLkYXOk7psjNUPmnDxFYsQFivSnaW765kjvunr+d/A4Af3h7rPz08Pl7f+s9/t4/7+NX1PwbI+z8A);lineShape=1;strokeColor=default;" vertex="1" parent="1">
                    <mxGeometry x="333.75230748749595" y="331.25443732779286" width="40.9666614824157" height="68.26187031461279" as="geometry"/>
                </mxCell>
                <mxCell id="14" value="" style="shape=stencil(lVjZctswDPwav2J4gNdzmv5HZuI0nqZxxnF6/H1X9VAxIWk9fZNtrkkAi11Qu3j3/vzwtt8F934+Hb/vfx0ez8+7+GUXwuH1eX86nPG0i/e7ePd0PO2/nY4fr4+Xz28P08rp6cfx5/QPvy84DRJ0QgX35/JNk9r+ffH1sv7l8Hq1PmbROqz3TmIgACfejYAoLm4DgpeaR0CVVLcBXqXEARBUlOzQxI0hYEsWgi/iij2RKo1ZwwjI4jwBFIkm5iSBlEG1p2QGqLSyDUhB8mKHlLcB2UmONgbGjIwqLbJUyZFKluBsHRqpWwVXx7Si0OxIDXVtAyBiB0KllqWMO8QmmVS6tc6cDtAqhRzJOydujDqBTCyIJn4sdS6SGL2TbdGSJJOoK2IcjzRlmtAVP7uRG7VQfpdog26u6846mWLP4gyIvWvX+R2taiANN4Qsmx2gfEzItOfkCsDIBK5VZwFKWg7CVMwOVSLJUqjix5b7JPA6ADozFq5BPEkMAISRSy3wHaqlBipdEg1axzrURiuNtKax5UA+WukozVtAdJQaRjYmAFGyWK1s1Npdb12+Ia7JBq0M4Lu6z2n14kla4etp3AEN5An5ALDUSFQEcCQLKDToSUpNi9buMVuuaIQMDUQBSdw4zFzJ7ToiWNNqcxNuWXtMNohCuIGGyN6mibEPLWf4PQk666BifRSlZmQCwEofaslUoHZfvqJrYi3nrPShIQKrHNR90XLK1HgVQHbQucFmADyGNARsuZodPOXSZMsjNUrtLbLliqapp5GIGbXrWZ8B80i0DlDrKDlTca3JzpVTGkiWADDkS6g9G+KQ9bFHMcuyUQBB58VM5gj5yjw6zwClDZTVHgmmlElak+//NwMw/zC2tsWoi2Ga+665cqAH2ezg5yvP1ajLLjW6SBKUjQjfYmwNQRrphmQt0XPm4VZobzS4OZIDhbiY1SnxYA5GiN0tf1M161n7w0BrteuZ4aIC2axXdp5kByVPOafZ+oinnaywEUM5SlGsN9qi/DzFesKN+WIhp/NYthWvVdM+Pmyttw7CDQQXbDO+9Ol7fX20Mx5Eha3/zzcxt9fj4fO1z9Ph5eXy1uj6d/uaCF9dXjHF+78=);lineShape=1;strokeColor=default;" vertex="1" parent="1">
                    <mxGeometry x="194.43341387702822" y="508.78228316776506" width="37.20580704687063" height="44.8575618830954" as="geometry"/>
                </mxCell>
                <mxCell id="15" value="" style="shape=stencil(lVjbUlsxDPyavGpk+f5M2/9ghlAypYQBevv7Kk11ciyfLMNbOHhtS1pJK+/izevD7fN+J/z69nL8tv91uHt72MVPO5HD08P+5fCmv3bx8y7e3B9f9l9fjj+e7s5/P9+eVp5+fT/+PO3w+4xLFOoJJPzn/CFQ438fvpyXPx6eVsszSR6WN8NvLi9U47h7opivr2/Uw7BemDq4TgiUxvtIpd4BIFEuAyBmSgIAamAaACkSA4AIhdHmzFTAldRJcTQ6NxJgdGRvQ1EbAgAkKuOVqka5AEDzV6rVvmwCUqAiIy/0hAYAiVIbAZkCMDo1aqMNrVMAbk3FvL4AIvUIAJW4TUYDcuuVMnu3/ifLdvIEiqMNRWOPANnIvACinbmdb+wDVwQGrig1HJdw4CqTRH9CB/lQtQaMCVQqZXRC90arWxlEWuPqrlQzMaoyhcRFusOMa1qXHFvF6LgJ6MHK3AIolEEcut549JJu0RGgei71BAPXI6WRrXpmQScoc8Y46BYoRRXgikDHZUb3EwdgqgiQfG3VIgC9pP2qeAAqlb1MdalTREZXKhMgA7b2RnUyWkCZ6d2XGXWrgKqhgO6oIbDHnQCjCNDIFMSlPkX6HfI1a+Mr8r1Db6cENDIF5HSfpIZuwShF8+RWBaBIJ5/TemZGgYsUmze6ImoI1eDdWlGkxci8ClxGkZbJaLEMuQZwlU/JB4tANP24onfAOd2mFM0ocIW4eoAgt1b797oIIC61qVQypka3DF4BGrpS92pGHc0gHwIvN1iFGkXu4wg1O46A1R7X2pzPUi0l4IiTZnM5lI1g24BsXFh5FtUyFQPJBbuaPNgGsE863QLpdVWFroDrFmgiqMn0ziI3CmwRqnfKKAZqtEtuq7jqta7KNFQtVUZ6JYobqY4kfoRg6wHXpKvLUrUhAmrk6BtpbbbFNkC8TmyJGJ0gJsHWnRcNKc3q+6oeI72eFhNX1RJRI/FkQ4M26GQmwRuNBL6Ot8GNch2OEDFQnsiHqKETt9OJSscI3CrRTFwADAW+zuCup5xCCdyqU77jUsKNNLCVreVZAKuH6scm0ZYC4pa8JBM8l01UDdm8vG2A3fbyLoPeTZaCtVwHcmLqJAEWbTaFcFme4HI3swbYCtlXIv2Anoj8YMVQLAQvkDA1xXsGN8wprGy3u7LcVQfGD0PWGS/Lkd+1p1S3vIGekTzFAhyMPviw+O5y/XF5w7w/PD6en0DX//dvnvrp/F4aP/8F);lineShape=1;strokeColor=default;" vertex="1" parent="1">
                    <mxGeometry x="226.55177232792244" y="471.5489447601923" width="69.05398775915819" height="67.52479173069003" as="geometry"/>
                </mxCell>
                <mxCell id="16" value="" style="shape=stencil(lVjLctswDPwaXzEkwOc5Tf8jM3FqT10747ivvy9UlYoJSjvNTZa1JLELLCDt5OHt8PS637F7u10vX/c/j8+3w04+7ZiP58P+erzp1U4ed/Lwcrnuv1wv38/P8+/Xp+nJ6erb5ce0wq8ZJ5mCm1Dsfs93mCnz3zufZ8DpeL4DcCZfLKDkbYDPJNIDhKoDOzhyvgNIopQAgIlzBwiFPDiSxvBvvQaIlTIASCTug0610bAKCIl8H3QOlACtsVCKPSCSAyxNB4h2hxq2ATlRqH0MTL5CgPS0Rkce7KBHEiNcoQhoTbqeAXiqEbDkKPVH4gJZCpFqL5xgloJQSTaGhJR2lPsdgqeAcimT64XTPZ0AgP6dLQAlH1fiZI9UUU2nRuISdG3arwPEFpBWSEE1zRQMwFMEyaeAaFwj46BVOONLyhsOWnodfKWIbKa2RFgAudXglnAx9IDUtN9KjegtAOmguhoz9loPKFtDM8aFJd/cdtPIeuE4UEEFlFp9LYAKzVgBoVd64g2wpDGk3sgm3oDSU/b36R0WH1nXoZD0MQSGHUhNxXRRLVEG6S2OQrE7BFQP2ZaoxiCAJZVJ2LKEUuO979/p4IDSChCTGmqVCLBwcpdLMIaPAlQHMUYGSzrk1p/a8w62k5hbE18ORAzOk/T5PrcTMcjUseV6TwmUZ4m22nyF7arGduCFIZURAaptiEoaOpJ3zqZq8m18Wt9iUGEaZUAxlNqaTQNU19x/nddod9CwAui5SewOd2GtpwbbAU63QDxpi3W9BSgPCVXDkBwVe7dfWFx4rc121mMYhGM4jg3j22TNYP0hMdQw0NjNbWpZROCWjFsB554hgfGO7zICy3l8WZJ2Y0viYNeHs6ROjmY0bAPB1rBqurlOYSCrVR5baHA+1+nZDDAVGry2cmfcyMNXvRVAgAY5nkgnJCTxGLJOSHC6GDjVtEWtfBSNsWePWTFNx4DWD7+j/wdAL94/CbwcT6f5i8L9//YTgt6aPz/I4x8=);lineShape=1;strokeColor=default;" vertex="1" parent="1">
                    <mxGeometry x="300.5324653912853" y="513.0190750969722" width="25.314368441589295" height="22.8254979524354" as="geometry"/>
                </mxCell>
                <mxCell id="17" value="" style="shape=stencil(nVfLctswDPwaXTEk+D6n6X9kJk7tqWtnHKdt/j5QFdImJK3HvckS1gIWiwU1uIe37dPrZmDzdj4df27+7J7P28F9G5h3h+3mtDvL1eAeB/fwcjxtfpyO74fn6ffr0xg5Xv06/h7/4e+E40zsRhSbj+lOJhv/3fg+xe93hz7epS7eFjJuHeCYYu4ALpIDb3CJgu0APlAAAO8o928InrxdBwRLljtAZMppHRA9cf+G1JJcBCRHSbEayQOWJKWvEhugkC2gaK4ktpQCWQ9olRp8X7Qhw7DTRvUhUQY1sPSh9J0WcQUASOT7lDiQQUXH2qYmvkgBFJ0sFUUrZQPik26D3AAcZUchqXgHKpamfj2+5OOAjoqvj1vBBgMSlV7a1lWxLwMKZasp9WDaBJBmBlAyTCn3KYlQbhRte5I4kgVdG0dFAUS7oAZpm5sBUA2iC+c1IAHHEOEplkaxA2XERNz3QWbBIoCv494ATBaM5+hxvYnZXK15GTATtw3Qk2KsCTQAk0HjZoh7xyhQe2JxsZcSdqQ8c9VUjXw5XnpU9P+DLhempPNHdlSidkghyKJREL8ougVodqwxlfGrLmdkACICpVSGrl1CrfFKqRBgqPSyuOGqI8DPAGihlzpbbfM4MkjaXFdf223SStC5OFtV4xkDbZ5Avqc1ljpOa1pNajWEaglrnmT1bjBw3MZzVK8N6SUypctJ7Ton4ADsqxLaABlYtW3HokaTrceOZW1omwyGPOi0o9LHuwJNz1DsB47x8XY+brfilWvj47aw1/MZoQPPNOTr3lohR48+JcB91Nxb8kBus1aZOhLLubM2X6xmcUK1z27Eyykh3ZHPuE7jHeUK18ncwabQqZYZbhbPzlFYC//xZXcjXi4un5Evu/1++gq9fq4/O+XW9MnqHj8B);lineShape=1;strokeColor=default;" vertex="1" parent="1">
                    <mxGeometry x="331.8037684291078" y="512.8414413358972" width="15.482644459225185" height="26.450203895280197" as="geometry"/>
                </mxCell>
                <mxCell id="18" value="" style="shape=stencil(nVhbbhsxDDyNfwm9JX6n6T0CxGmMpnHguK/bl6qh7ZKyZ5H+OY7GEsnh8LGLd+/PD2/7XXDv59Px6/7n4fH8vIufdiEcXp/3p8NZPu3i/S7ePR1P+y+n4/fXx8vfbw/9ZP/07fij/8KvCy42Sr6jgvt9+SZQqX+/+Hw5/3J41edzVecrBYbna1DnvafaMIA1oFCJGJC1BYFchoBiTK7E+IZUFCAmcg4CYlSA5MgXCAj6hlTIJ2yDDkMWtyIbmKI2OlfoJXlxSgpQPLEHAE9N31AKJUClFIj1DdVRBlxKibJ2axUbECCT1+RrYdD3FiBpt7ZKFQROAIZ8HMjjG7L2EkukEZcKNW20dw6yT9hsjGD5JgCAH15cGcEgR30cTlncJAQGTyrj55bziSIgnx88WM57KuD84pCFGBJ5QIxMUb+nBqgxPtgHVT9E5JZLi/aQcJuRKEn2BAuA3I6UNaAwOcC8nEaIFkClAm4oEiMDwFQVJ7ImnvxEBipWeZSCBRDJA+KxONEY7UYorwMCNWcBDkSa0zUASB5J38LTk0CkuU1udcNv1wFMSSuAKHFDNjCxeZK4AcShA5yNQ0Nu5RGmVaQb0ElRIHtDHhlyy61hqiYBZJwEzpTQXn5QHAKFZgEwcM62AWIDA2o0trIkAGSDqKhL1q2ou+rVaQpcADb0GwxA3IBsaFPGefgkXti/ondGkZaCOQE8jrTX+ZAXwt/ikptSFJUrYattZRzsrno+eOuljFSDqVUbhwRsWBX9VaiRuHbZMFaLGm8Ik0mIDPsG8evc8Tmc1B8DtDgBGJegQtWMJ1iNyyRMUtlRoZa22bi1RqjG0skbnZHmBNVdGS6q6YvrmCeuNxvJZlBtcMaSdsbMJ83BYUAApgSJDQzI5+vUqjdodG/JdBwk9qiFi8J+A2ijtb41MvHUqiMbpCUz7UyXKjS6ipTqwHV9xgAzDMh8gvpcARi9F2okNFiG0bys6B3QkxZ1X3WJAXnJjXlnpWQZjSc8Cs5qEo3ghiBkNqOrh/O6AKK+YWOaDvP4jed1AZjBcmMj0DcM2ksbOwf5txn7NrYaAvjY3qTfoI3e2MyI0U7HAa9+upOMzXC1NIctwM6788IYgMdctv2bo4YUxtl66HCuyfX2PFz6BLvDwXO9KB77j5zPtinZeE+xA+KGvdUmwYY/J0rjeM1LsQBHt/9YZW6clw//9qZPh5eXy9p1/X+7Z5WvLjvaeP8H);lineShape=1;strokeColor=default;" vertex="1" parent="1">
                    <mxGeometry x="359.0492996120511" y="476.17522943325105" width="35.89739975745488" height="68.38901268024722" as="geometry"/>
                </mxCell>
                <mxCell id="19" value="" style="shape=stencil(lVfLctswDPwaXTEgwec5Tf8jM3FqT90447ivvy9UD10BsraTm2xxRWCxWJCTPLzvn952U+T3y/n0dffz8HzZT/JpivHwut+dDxd9muRxkoeX03n35Xz6/vp8/f32NK+cn76dfsxf+HXFCTHPoMi/r3+kQrX//efzdf3x8LpYHwKVYgDSqOZtQIwkdodYKcRtgDCx3SE0igAQC6VkQ2JqBQPEJh1hSArIwQCyUE0A0Ck1AyiaNKBVKnWbQ03EIKQcqHUPCHUbUBKlakPSSodtQNWIXdKJKm8DGlOKFhCJGwBoSFYamakAWlujkj0ggxx6HCneAIEqoLWXQeIi6QBC6s33Q66U0Q6dumWpBMqAVgU0m0PJY8+tkMSGVDplII2eR11vWorUBNIabAPVjCvdiG0OVYlGWtL+an6HCnKoypIt3NwPIAcNwCcdBm/3AYmKBWhPIxOoMpz0BpCh360dxMm7Qy1pDtHWIWfo3spSXLUoqrTWgR2AqYM6tLoKiUeX39dSoLRq0QC0pGr1viRwPnT1VteihQS5Rh8udCscQy0FZj9G1W4jSqJRdwNCuxa1XPFOpnJtyJg+CtDXjqauxQchqTN223KztwFt6JBz5rog7v4cVTm7mHQUgxYKibLlVa0HGX5esVSgCyiHrtCBGLAafMMltUKUgO8GKXCsa9Gsx+iJLgJGyziG3AiljpRd/cTVhED4Ev10wwXW0ybb7wucbWpX1X4/dBLAT1olLPgEoHw3K7nEo1fvazR5m9cgC7CXkH3fqL0ksIOK2jmeiq6hHcLKXSKcPN13ga5HOVd/0tP1FZVtiGaxnkECMrxwwRCa/mG8XQxOdKDnO4e2APhhr9LZ+wA/q3Ew6xa0GY8T4PJci9pyHAsWroLOwR+95f1/vT78u1K+HI7H6410+d5fQfWv6/VVHv8A);lineShape=1;strokeColor=default;" vertex="1" parent="1">
                    <mxGeometry x="398.81717795522763" y="511.406624212506" width="23.016440624492134" height="23.47819514509763" as="geometry"/>
                </mxCell>
                <mxCell id="20" value="" style="shape=stencil(lVjLctswDPwaXzEkQYLkOU3/IzNxGk/TOOO4r78vVJdyAEmb9OYoWIEAFlhQO755fbx72e9SeD2fjl/3Pw/358cdf9qldHh+3J8OZ/2149sd3zwcT/svp+P35/vL3y93k+X069vxx/SGXxecJAp5QqXw+/IkJpLy98nnC+Dp8PwGUJiSWEClzNuALJSqAaRIQbYBXKhaD0kgIHXK0QA4UEFHiiPEGaA+AwhaiIMFdIoAIEzNBp0D1bgNqJGKPVJO1EAMLVPuFiAkdRvQmdhWOndikNYYAgUbdekkGbuwhZAGC1G1cskAKsMzaZq65UYt0IMWItuoq9IVlboQ27zqIRmRqVJkA2gRepioY4/UZrasAyJFm9Y283G9IbRwln1d2Qc8xOzp2jWtiBvsC9crHBsxEjsPmgbgoflCq31HhV4cSO1BjjIF9vYBBJAW9sqjtm0fRqe8ySiD9y96rWv/d2Qfmy8xer9yyM6X1obHjXibzadyLoDzFArOXjmFBh6V4O0Rp2NYcSDAgeqYG0atwBGsTRCdhzpm7DqgeGVrfUjXFsDpjhY5ARJNHhwrMlUEYOqOFpUCzpKbLb1RBX2mEdrx2HHMdbEuXGVlozGXDv619gZRfaO1Mf02GsE3sowUbDWaGywMExQW79fWg41cnRq08eTj9qjxmcQJmkAV11EqlhKquihizl5jpVMCHjJ7BRQVNFDjEsesnQFKdFBkUdrZKhQsBzX7/avohAIedJg0eyTdHJDsTwtb8TEggB4piI9BkAQqNZI/Ukczm8dsmAFzKdcLV7zqFNUJtOvI+PcMCCNv6+Rrnny5jf1qHbBYjjLepqYh7G4L9b2Z6mLQ6wWcqeKVR4dURSNsIZ5x3kK3rkjBcknlEdVB7wbN9QPUwjKvf8M+wNuINovbOMNowHX7Nu4qV3skCkrt1Jw92h4ljuXjao/i1VaMTqbgciHZyxruAyn+mp1hftQ+u95/7/3uNlihaKq9u7R0SGmN112xlXAZFWC+x82ACK/Y//0h4gMA/XH97vFweHq6fDZ5+3//nUQfXb6x8O0f);lineShape=1;strokeColor=default;" vertex="1" parent="1">
                    <mxGeometry x="408.7005088910066" y="499.7940430024054" width="32.82119153626945" height="32.7268396966972" as="geometry"/>
                </mxCell>
                <mxCell id="21" value="" style="shape=stencil(lVfbchoxDP0aXjW25Otzmv5HZkIKUwoZQm9/X22pFyzvniZvi9GxdTlHljfy8LZ7et1u2L1dzqev25/758tuI582zPvjbnveX/RrI48beXg5nbdfzqfvx+fr79enyXL6+nb6Me3w64rLVGUCsft9XXBU4t+Fz1fzw/54Z+4Dld4+Eod1e/YkvX2lkoF9Jl86e68HAICwdUiPDAhQKIYeUEjKOiAEEu4AksiDE6Kj2gN0iyAAMBQhMlVQhRTJuw6QNM/Apeyp9kGn2hK9DCjEvgNkDRq4VIRC7QCF2xbLgEIh9YBEFcRQpTFtppKjDGKoA5d0iwxc8s6R6/NaKzlQuVIp9YC7PZYRnlJPjqqJBQoqjlLuARHWWgGGrzVQRC45itXm6Z+TazEE49KswmWA/p0sAJIjUOrpVz0V5FKyqlYAqvVEvzicgNjkyIuNQYBLul9gC6joBF7gawGFuzlwV+mETtAQTZZiy9ta0Nm4lIjBCSoIThYAqZGHLOWW6GVApFAGAO5Mo+JQpZWtLlqAJCgg0/A1rQlrWkyWAuUKAcGQT6gienvybAEOBy0maF1BLqkDpmv4loa1wpUBACWa7dU+AZBLdegaDKmh+9lKM2Wkh48CtM2kQXGwkcVB00wJ0du1W3O+R0tTyPLVniyXprsbAbzVdM6teS6PJ6Fxcwa4dtmvDkB9DImhgHTESr1LMRCDVhmG8SRE2Cp1xjOFkwz1IK7tN8+VlTIadVXyfaVZJQqy5AuVPq0et0qvQRuA6gEobo5wrlubDBbN9XLoxSCt6ayYGxqpdEDJhllMRwYQ7GDum3drzkRjzjjU4ZmESmUl5uAEpp3WGXMUqrQr+GaOeBPsEwxPqPN0+b7dk73K1HdAgtwie19mPvg8/a+5ftxewi/7w+H6kL7/376cden66pbHPw==);lineShape=1;strokeColor=default;" vertex="1" parent="1">
                    <mxGeometry x="426.5253669794465" y="443.51518984625693" width="33.97125191963801" height="74.71476872093513" as="geometry"/>
                </mxCell>
                <mxCell id="22" value="" style="shape=stencil(rVfLbhsxDPyavRJ6izqn6X8EiFMv6tqB477+vtwutDFpa4ICva3XHEnDIYfaKT687Z9ed1Nwb5fz6evu5/x82U/x0xTCfNzvzvNFnqb4OMWHl9N59+V8+n58Xn+/Pi2Ry9O3049lhV8rLlB1Cyi43+uLWojb3zef1/jDfLyK956cV4BSqCYAYGpVAXKlDABB/taAJEu4MSBW8lkDHNU8BqRCRZOOgTiMAVkAmnTIVOMYUHJfrwN8IwcANVLTHHygCDhwIK+PVCmAJLVETmfVkQc6t2wLQ+IBgSbbF02AEjoPU2atAXEF8Y1ysHzR+Rs1vb5U7kcAI1mmBBQQQExWYySZUI46pdJ9GXEu1EzZJaoMRYv/VKctUmELgBxCr5oNIEsggLM6SCExOpKzO3jpb0CaW3eHDRDJoSzJDlo47s03imd9okwBGJjkyOlWkFYG7iIi5GhaLXuosi8m3qFWE4O28VAB7vl+P39D8c22fuleM4o3+dxa7/4EcRu/TeGEFRazMDXE3S5HlIspa99nxMjukunlRB6RlolgiiJTLv8RwKn72+ao4nho5pQ+JTdAhoVaxMDMZPZUQVpzu5nMTAkAUrODNmPSMumD3qFEaJGSE2/miKcGdliKXx+JxT9AacjY8LqdmWGWir0rSDXC20i39C2+9Qa/nyM7aa8a6n6OKCW7AbyxUWRLAM1+uRnoyhaHKmB9d0M49R0H8cHEe3hFvbEXEQzdRSTezI9MDa4fNV+OvQgH8c0UkOsSDvJp8lO5Z3ig1507P1j/428EeXj/wHiZD4f1++T6f/tBIq/Wj5n4+Ac=);lineShape=1;strokeColor=default;" vertex="1" parent="1">
                    <mxGeometry x="434.10837973374555" y="478.281945870173" width="39.767496648845054" height="15.614980859131947" as="geometry"/>
                </mxCell>
                <mxCell id="23" value="" style="shape=stencil(lVfbcloxDPwaXjW2ZMvWc5r+R2ZCGqYUMiTp5e8rSg/FMuw0b4fD6liXXUleyd3r88PLesXp9e2w/7r+sXl8e17JpxXzZve8Pmze/Gkl9yu5e9of1l8O+/fd4+n3y8MReXz6tv9+/MLPk11OiVI6mnH69fcVCf958flksN3sLgzMiEd8IcsA36jVAd/J0PcL1eBPoVyAQVr+XgzYQ9LbBr2SjB5xW3Jw1aAZiQ0GUqgZMGAyHXMklOttA63UR5cqw6BrIxuD1kQdxFCMGo8GRrkDgxxdakoVGHhO8li4fk7DVQPWhQhng04FxOB1LWPQxtTltoEzp4wnmMITPCVjoZ3tSAyduEe8grK1qDXH9wbKHLXgeAPEEzKZ8KBmTKVO/gD/M/H0/Qr8SSRTfhhQYupF1mF+XPoS8QXiQy9yfAZ8yIumzvgGVeYq14hXpEpqOeIrILQStwkP6uunT/iGWuPS1i7yk1DvpdKn/EN9tbm+EF8m/mfAt0468xPqsWjEdzDMlBJHvAG+laivi3F7Q5A2HwAJqlOCFApSc8QLIJB72yIe+e/4SZBIAN7RJ8IxaLgfxevUoCtsEJmphgQxJZCg7AQePeptEfX1Ctelg1+MSQGaF4mk9kGcwAk+uctooF4EsH34blDHLPkyIeAE3z5kpEXNMGgtcYMqvOwj14WZYqfw9UJA5/KchFbktVfgUs/LknjWpsEs+dqYxhOyUAPUcCL0uPk2oIVucXr4eADE8MWXx6RmuGQ6PnDbV0aQUstxGic47B3fSsAL8odJNeAz0KbJ/P2Evl+iNHHv9d0wRX8S4KjP0tyj/+gm1Gc8o3htzn8BfDu2/ohvaHhbvENkGO+Hr4r/YeAP/26mT5vt9nSxvfw/3mT91ekWLPe/AQ==);lineShape=1;strokeColor=default;" vertex="1" parent="1">
                    <mxGeometry x="159.77186647226677" y="660.5584828620063" width="29.668175845023143" height="116.43828595789205" as="geometry"/>
                </mxCell>
                <mxCell id="24" value="" style="shape=stencil(lVjbUlsxDPyavGpsyxf5mdL/YIZQMqWECfT291WasTmW42V4CwfpHN12vfKOb14f7172u+Be307H7/vfh/u3xx1/2YVweH7cnw5v+mvHtzu+eTie9t9Ox5/P95e/X+7OludfP46/zm/4c/Fz5OXsFNzfywMJlN3/J18v9k+H5429J5cG+5KJw9o+UB3fnwv5tLZP1j5VysC+UjT2gRKIx0diPzjERMEDByHOo4OjxCDjQDJ+gRNJBg6FZKwpewrgC8yUx5CCNqEAB63hWCUN0oGqxmy/4AvlCtoWKbrRgcnHtUMOFMo4eFRBzlkbPdonKiDl0v/di0oRvF98C7cnABOWRGl8v2slu25fW4fe7R3AWU3EYuwriKdWKjzGr0AQMNeuB7AdCpCCfiKYwdYmIodic4hMDgxF1SmqY5O5gem6w0RHmamAwZbcpqzzlzIUmCOlwzTOhWD4F2kpdgcFJ0i6aMRjH6qjCHJQKFTjwI3UrjvkRundIcHZyM4OUxVKYFoV/mXkCx2WBJKOE+dt5nFFScLTJ0ASyuvV2yQYjKs6+HH6aqaIHGKbte4QyaGQImWTg2+0tnIwZRJpWa1y4DEHyZCXtKxWAESq6GgoliiFIYKiTF9QUIMjOlbbBw0JnenJWRaQLiNWDuY81LI6kENSngkWownJmNmBWxmWIZnhS5RRSK6RdXcoDYSrsgbDAvoEYVSuOHw0GhMLwE7nCXHSBn413kZm1P7NJYBMSBEDaIZoIEYhKQkYPNT2ZEkzZvgK/oLKR4MHLQP6QrYKVAGENO6ZjSdMF0Rkn3VQVe6TdajoRClNAm8dQKdVUCaTdMCKUloRNye7AxKreJKxcUXLgDWoUdElYu1QG6l0OVMhzWhNeKySlgFVSU8D0zg9ujOYpfMwGw2nyhoJ0dCOwK4SCyyrApKNDu2FXjmEkVs91j+ag5GV3kPEKb4MgDzeyHR7MNuAxwf7eWue5HoBeCjOcqtXHkGijy3idJPNIIeULB50ZWLQOCUBo0N1hyuIZvy0QGC9pIuzEa66yXq06HYEb7d7UFbdIuM4S3quIs2ns2n21tQ3wet7VrL3B9qZiC4cvEVcrjAHsTq3RHjfkNuFSuc9D4VDagSxOa8gddsbFqlY5FpKUm0laBOgYFS3h/ZMyYiM0Jq+uLKSyR4BJ0wiJuAGtzNgEz+6ynCN0Tf1QTuus2x3rj+IxzVIbfor4EiY7g30UEFMNNvHRn6reD51Jfmxvf54v/98ODw9Xa5Pt/+396X66HLXyrf/AA==);lineShape=1;strokeColor=default;" vertex="1" parent="1">
                    <mxGeometry x="158.795264196649" y="643.3521126331971" width="75.87896828620046" height="30.08488310603184" as="geometry"/>
                </mxCell>
                <mxCell id="25" value="" style="shape=stencil(lVfZbttADPwavxJ7cK/nNP2PAHFqo24cOO719x3VWFVLS1PkzZEyWnKGHHJ38eH98PS23wX3fr2cv+5/Hp+vh138tAvh+HrYX45X/NrFx118eDlf9l8u5++vz7e/356m/5x+fTv/mL7w64ZLTlqZUMH9vj1RJ97/ffL5BjgdX5eAKq4OgBil5G1ArhLaAAgqMW0DioofAb5IJiFllZRGQJXiSA5OwphD8JJ0GxCrpDACsrS6DQhVoo4sKaU1BAlx1CFKIDkg4jICUpJCaA1R8kgreFMSUkxd1w4ogSY91dLIUoH2rDSy1DGHynWoVZq3gNa2AQ20jjpUPCEstSTRnBBFIwEUKWMt1SRKhGutv54BRRphyTsnbkQ014nbOsKUa0OPBgKodydkiQyQekfOAFQ8SQJCpLH6EGQmOdQmYTSmBQ/riNSrc3GEkiSgrLGyxpWooH2MCTyUQqwMQlQrhCMtBIDxDUjtyQkIyZvyK/0T64AgzhS4SmO0qmTTQsiB9BwCqKbAA/W+5sUnC3CsmNSyBEAjSUNXpzbpTGhFNZuxiKxoSM16Hwq4coBhCS3Cagkh2ZZLkpjRZFHTcoVOatRmHnVAkJEJ5yTeNTWbEB8G5LnUliGRnk6zWy+TJtWKMWuEm2hlu4DaaoVwzMmw7pS70nBkBnkMENPTOJMkXUTNoC7dPNcjsoM9w4uJCnfzB6tGJBm7/rXFLkM1sM0W8QU2EdWuMjiSBQSG2tj/3tPRoDhhTFmpDedgtwBH/WXy+WT+n802OJ4bKSrcUrUTOCfc+la9uVmNCeOEygC+++EsWupluJ6y64vXTClsnHPaxhOwYCa2TnpLavK0jlKzDplCN6h1QLGdCUBhtyVwohaQ2dUkroTkCEtIsahN2hN3mS4/4wnaqNJ4ba8mlQqH19kAMu0GAJLpNuUhVbuIwWE8MW3kUMbhqbhpMOE+fC/+PwA//l3DX46n0+0Wv3xvr+14dLvyx8c/);lineShape=1;strokeColor=default;" vertex="1" parent="1">
                    <mxGeometry x="229.20545275861355" y="644.4855032460785" width="25.970494247891565" height="29.81026115028112" as="geometry"/>
                </mxCell>
                <mxCell id="26" value="" style="shape=stencil(7VjLjtswDPwaXwlJ1PO83f7HApttgqbJIpu+/r50DSUh7UyyhwIt0JsTa0xxyCEpDfzwtn56XQ3BvR0P+8+r75vn43rgD0MIm916ddgc5Wngx4EfXvaH1afD/uvuefr9+jSuHJ++7L+NX/gx4XKkEkZUcD+nf7wjl3//83ECbDe7S0AiXxUgePIFADJxVgCu3eYyoFD0CpAipXQdUJi8tiA2fbwOqI0CK0Cp0OkmG9Bbqo4ysNDke0kDmALwoTVqxoL44K8DvJM4OY1o5EAgZE+sAc1TQ3uK1HRujDxUAHDW65apglALKU0nk2wyMQh1mVlolAFNWV4Xk98n4pYRgUKZmQBep0ShWScyyKbYemRPAHELOBHjDBAhr0FUrXmtniLgVUQfdW5kD5MpkNM+yx4dEITIRSvOR2LgQeyUX5SlBNZ7T0lHrUCHZUNJG0jEIMjsLKOxG1zev9Bnv4/knJwtermLb3l9oWrEDDNCsjoaQrnXtGWASDNqQKGMdeM0QBoDkkHKVvzCUUCcNiu0UGHScaOik0JYKsAHeR11xWPcDX0jZmvBgTwa09iwJCUSJd6MJIbVyBGbsEligDjPuohP8PuBmo6BKK8AobVZl+rjwDI/xRaiRA3puPQyctZlboDOQsWb9QW4G4vVTe7zz7VmkE0fpwJ6rJTZoGcXL/0HCZmpmkqabwGsLk858g4AiIH4YETAkiVoJBRSdRcXmt2Ntm+qI/c8/JMDGwL8H9j+ooGtzkz8WwObtJmot1QTrEsi+mSOMDIBAUVImXY6N8ZTFarEoSfnnec2fzrh3HkyFICpxTfOnjIzmrpRoKiFJDN1ypAH9CN1zptCBivl2DtMLYYMSZS9ptRBefLpGHtej5QQg03sG+urbT4O5lDiPj3d52+SAubfwac0kmqbP4pXnlUjnA/Llx2oUd2+HZGH893Ky2a7na5mLt/buxj5a7rH4cdf);lineShape=1;strokeColor=default;" vertex="1" parent="1">
                    <mxGeometry x="261.57146755776284" y="643.7864435187794" width="8.742899105862989" height="21.994815138790045" as="geometry"/>
                </mxCell>
                <mxCell id="27" value="" style="shape=stencil(lVfLctswDPwaXzEkQRLkOU3/IzNxak9dO+M4ffx9oapUDdjatjdF0RoEFlgsN/zwtnt63W5SeLucT5+33/bPl92GP2xS2h932/P+ok8bftzww8vpvP10Pr0fn+e/X5+mL6enL6ev0y98n3GlUc4TKoUf85uYKfGvNx9nwGF/vALkTr1ZQCEp6wAWqmwAKVCq64BUqYgFVIoAEDs1mwNHqhlE0CPZCDnAHHKiFiygUkvrgBJJbJVKoAiOVAPVagEaswNAp1IsoFABR2pM3VapLFTeBfRMkgygFuoCeAiBgi2TyEjrfgj2vdE6BZB1y8T2THrKGmGZsq1r76MO9wGVknhAA1lXvgE0aiBppVocQCiAHJSnkH3SBQHaGLAFEEeh1wDFEtfaGJG1I4ntvqa9ASLUOIq4AJgEEZfHCC+ARAkRJ37kWoTNJ8EPhEYIQAWEqUWfA6MIlULzVcooggxer3iIoEoK6JYHZRrmIOPEC4DhUEvx0tcXfV6rktsoOg8F8+CS7h2qsTLNVjWulGetmRL7EIwAkYoDCGxXHYjihEmpBhGmxevqmqCSKYDdjHa45fRILulWB5drSft2VbkFG0Klz+1RnSCkMyqu4vo7Yqr/FyA6LzYHbWBB8q0p2naVCFtD16zT+9qGLtw3D4XYASqcUa5+jdZEHTum31bharULWKOx+RVUKt4oPoDaQAZE3xgBbtg6UHYeEddUbYU9j3rADsyPJhzseEbtVMCyOki2faS+AATIMpbTEgCuhlL8Ag3Q+BQZ4nD1PerS7lU4DOe0NvvRaeowHfe/T1RsfRJF9PvszaSuCWRvM2XXoRTwGLs1VYcdWLUXTrqGBVr7Ptr6RzX0SLn4pqDYg00OyUVI416z5iOTA2iRsctzU/aXu94/XA714c/V8mV/OMw30+v/+6uovpqvsfz4Ew==);lineShape=1;strokeColor=default;" vertex="1" parent="1">
                    <mxGeometry x="267.5496905938919" y="634.7829426577996" width="28.812046297424104" height="30.95777654620224" as="geometry"/>
                </mxCell>
                <mxCell id="28" value="" style="shape=stencil(lVjLbtwwDPyavRKSKFHSOU3/I0A2zaJpNthsX39fGoYck14Pmpsteyw+ZkjKB757f354Ox5SeL9ezt+Pv0+P1+cDfzmkdHp9Pl5OV7068P2B757Ol+O3y/nn6+N8//YwvTld/Tj/mr7wZ8axkPCESuHvvBIT9Xnl6wx4Ob2uAKlR7RbA1CMAJCrNAjqlug+Imx1SpZQBoBIXA+A2VvZ2iNakEknADupDtiZJogaixIGiGEBNNN3uAvqI+gLQMMg+oARq1qSmgQY+SKSeLYCpgTyoxd2GtWUKwOkWiJP1oUOT1MVm8yCNBCROTZJgE9cHWfacZuu0xg2RL3cK1oesiQN54ELNAnQlAz0wU7bU0BXIpbjZQdkKnNbHwSYuqeKQSZGSAwjMAydiJ9FMqQFA9hJVSTGghtYlp4e0eLUnoGbDmgIVEFbNqwurAlAecqESvUkd+JAriTOJqaIdNuTTPASQOAXkagGNCohSbl7TE1lA4tSH4sjHxDhKrgioHgJS3EbTmvuIS6VrWQpgsIM+rhuTKmar6w+6kpFE0ygqC0A7BmKrKs45HSigMrOkadUUMy4C3bG1wOqteRVHPm0AKA+yYWukHACg3ZCoIHpr5SsbAFJcJqkbk0CUJoB8BiAyusFKD8jpylQcoEEBNaWGra1qJCoCrVGyeph6HOBS14HNjT8VA+oojEufzlSA0zEomy2/ax0i3Nui2MypWyjV+rjYHXobfLydiOrL98rKvVxXG6eu0wYAlDRGtpVNgiRUfep6HnG4PYjy0PASJoE9KMqYwBZAHJTfSR2JdboWODzIoP9qhkN9V2NkDRJcBMKY/Rc56HwFYrphngY5gmIfqLqS0eEYoLu740yhDiqGHo+qLWLLxHg7PuKPPwEqR1uT+36A5ULLtjuPYRV8nKU+3ofdVk8yNqCRIvh+3ozoiSKe29g1Z8iHrJJxBBonp733XS8X2Mqn77tjEoyn2p9tHVqGuN34OMItlL0NWPK/ACJknGbYSTgmOEV++qfBfwD04uMfxdPp5WX+xbF+7v9p6NL8P4Tv/wE=);lineShape=1;strokeColor=default;" vertex="1" parent="1">
                    <mxGeometry x="295.60224164625333" y="636.8076271849709" width="29.134986669116188" height="33.895754642981274" as="geometry"/>
                </mxCell>
                <mxCell id="29" value="" style="shape=stencil(lVfLctswDPwaXTEAwec5Tf8jM3FqT10747ht8veFqpEqQvZ2clNobIjH7pIc9OFt//S6GwK/XS/n77vfh+frftAvQwiH0353OVzta9DHQR9ezpfdt8v55+l5+vv1aYwcv36cf43/4X3CSaISRlTgj2klUZW/C1+n+OPhtIoPgVLq4kOklgCgEnMH0Eaq9wEaqEifkVAuANAo5w6QC1WwQywkfc0lk7T7gNSIo98hgZQK+6KT9Q2kVJm03yGUuQ23AUIt+jkI2iGSlh4gpKDoWkhrB5BGBUy6MeXkAZEBQOcxLSnxnORtQKbct3WkYwaAOjNnASRcQ5vZvwAapQoBreeSKmUEqNT6lLTMVd0GFOKe3pHn2d8GRIp9DVFndt0GCIV+0jHCttaNpg0QweCMfK5LlhIjQCBNvugUoIBS9W1lMIdiZHZzUBIwB9uB+xqMGoxSMn05LiUKgHxVKTZPb+RLNc9OuhKQoME1794mUai4QJU9oAFfaou+VjaDjMz0wP3gzMigHqwG53yVAihaeOPGdsYomFxbfGsBZKygTwM23EiVEhp1otiPOleqYIdSqfR9tZUM2JejJ5MZCSJT3Cho1el7J7X0CDO3CESq7PlqDK4gp5E7xVetYAepXtWZoapFqfRtsutERjYwH/wrn0EZsT+BJM59vhPveiqBIshnIwYTNLg3sCdqgU4vXs2JBBQbKDgThuG66Q0UTfLXBaMTsKLiyYbZvPFSCwfJiFDMLh7N1YgW3GUHpmM0ydH1EhnvZ2/+/4+3j3/PjJfD8Ti9Uta/+2eJLU1PGn38Aw==);lineShape=1;strokeColor=default;" vertex="1" parent="1">
                    <mxGeometry x="318.87646132343275" y="643.8830723836443" width="25.69421833008937" height="20.567693600401526" as="geometry"/>
                </mxCell>
                <mxCell id="30" value="" style="shape=stencil(lVfLctswDPwaXTEkQRLkOU3/IzNxak1dO+M4ffx9oWqomJC0md5kCisCC2ABD/zwdnx6PQzBvd2ul++HX+Pz7TjwlyGE8Xw8XMebPg38OPDDy+V6+Ha9vJ+f59+vT5Pl9PTj8nP6wu8Z5ytlP6GC+zOfZPL138HX2f40nu/sA5Ornb2PlCIAFCqxA7CDN3AkCR0gpubjNkBD6AFJqLh9QCzkTcyZUtgHpErMHUDUSd4HFE/e9YDU7twGJOuSMFXgUlm7pICyD6hMvHIpCABkS6sIZQQoVHuXioMxeOfI9T6VSBkFUUl6mkqhlKBPplxrIA/KtSbiPmo9cShq3zxeAEIOZU6ax3cAVK5FMycWwKD6pFISG0MGQUteuRRaLrcBmiaT6koRsKQAZxKXWnntAaR3SXsKsaQxSJ8HKcRAZ5SlYgCJJMM8yEoFPKhWzXRd9WgBQSvrbq0zQDZqsuo90QBi0H4IfT8oDRCgr3vAVI6AVgXU3AOEAurpQmKq1TdZ2BMm7m+oEU6UqZgNIFP8BCD/A8i+Vf8yFT+0bXsGac+vejSBRLB6YBoiw7Gogzz0UU/6DRLhpan1MhZTU89tgFZC30HJ4w6yU5ETlBm2OhZcS8ymvWubyJKFAFVpNX68g6Wq9iYFrV93zM1kSFTArPLt7cJOE6g9cvrWDxSAM8ly4+C6IHZrc/DrE3Fi7FH5a2JyNfYMilmXzNqToxsW4jJb6cWV4ItlE0v71tocULyfrtn68LGjv4yn07zi37+3O70ezf8H+PEv);lineShape=1;strokeColor=default;" vertex="1" parent="1">
                    <mxGeometry x="342.78021826926715" y="639.7691929367472" width="22.03966495912232" height="23.899455765241328" as="geometry"/>
                </mxCell>
                <mxCell id="31" value="" style="shape=stencil(lVfLctswDPwaXTEkwec5Tf8jM3FqTV0747ht8vcFq0o1CWlj32R5QeKxWEADP7ztn153gzNvl/Pp++73+HzZD/xlcG487nfn8SJPAz8O/PByOu++nU8/j8/T79eniqxPP06/6gnvk12gHKqRMx/Ti0TG/n3xdYIfxuMV3FqKscHLAXkb7wzF9nymkLbxbIldg7dUyjbee4qpw/+7cBUfLKXc4ZMH+KzPT2YbHwN55Q/IZ3LkfIcPvI3Pnrxp8IYyOL8w2djhDfC/BOLWH0fRAXwibv2xhhy6IFPm9gKpMKhAKZTaCDhSBCmyZglx4aijhJJUKLSki5kCMsjELYuyIwa0LuJyaQyKo4yi9nOMi8GSuHUDR962BgUHLXVqY6i1B62cM/mWGjnOxV83SGTbOiSenVw3kPPaLEn7GeSSMvBCprtcchHqkQ7a8lzKG9PqcQNJ3VruyQHofEUMS/Yu5qVZEW6ktk0UcX92zSMaHkANVvrTi4rg/uwkIPJc+BtFJgmRUJaUjOWCdVXpZD0CuSRC3A7CqzzcKN2fWejhIJmzwCk9fSRzHuRJj7fKF3CDnp/VAMSgB7QYOEBYvQHUG8AKoFcMMUA7j95hpKk8mkBqSZKutUAE1BImqgC3nl6UCt5ihEntbMi4HZaJfDXeLNBh2zd08rOqreJN3zzCKwf81wM9QH+0wHjK9/jDnhKgkIpXKhhgfrp8iqYif1S9hFEFEE7xAbfMnTv/p3B5+P958TIeDtPXyfX//eeIvJo+ZfjxDw==);lineShape=1;strokeColor=default;" vertex="1" parent="1">
                    <mxGeometry x="385.8283408165696" y="659.4558264295356" width="37.12246782200191" height="5.088347140928818" as="geometry"/>
                </mxCell>
                <mxCell id="32" value="" style="shape=stencil(lVZJcttADHwNrygss2DOjvMPV1mOWFEklyxn+X3AMFSEIYWUb6MRmkA3thnk4W3/9LobGN8u59PX3Y/x+bIf5NPAPB73u/N4sdMgj4M8vJzOuy/n0/vxef79+jRZTqdvp+/TF37OOGFgnFCMv+abBKX+ufg82x/G4419qpCLsycFSvcBBQGzAwhBpgDQILGPSEKACqinUAhauw9oCkIOoAyC9wGERsK70LLotu2iQREHaAgcyNQqsJepSUxCAJsHVMAgc1qheA4WZJQ5JRAf0o0Om4iae5nMRc5hrpl6EhpVU4KsHpCX+toG0Io1QQpksnrNXlcTLmnsIXmAQAoyZxyK17U2aByq1NVrrUABacsD+Raym1TCVCftARjVRoW68hBxsHIlL2tVwAhQV01KQMEYmFrOTyZNoEGmDdC6TCu0yIMCew+Nl9GzDVhlupW45a7tcgXoUvD3Zl+XOGOlQaatcnANCEKqBCirkKIWtUJYkcaogWz4ai9rlRjQPgJI3MtaBCRQiRWKD8k+EclqS/Dv1rzZchKEJMCeAtngC0SiflBShhyUHvbbgTj8/mrBEQIFhBGaH3o1DOeq3mKew12V+5Eq4d5p/bizcRatc1kGyWKPS0Ft29soqp19FA6vNoLt/oDtRLdLFlCQK+PLvjp5KdftWvvgG+//9nb496B8GQ+H+T16+3//ALWr+fEqj78B);lineShape=1;strokeColor=default;" vertex="1" parent="1">
                    <mxGeometry x="425.8419241754418" y="640.8316829211537" width="12.161681191065782" height="19.226382704436446" as="geometry"/>
                </mxCell>
                <mxCell id="33" value="" style="shape=stencil(jVZJUgMxDHzNXLtsyYt8ZvkHVQQyRUioELbfYzM1IXIygpszVttqqdXxwFev67uX1UDu9bDfPa0+xvvDeuDrgWjcrlf78VBXA98MfPWw268e97u37f30++WuRbbV8+69nfA54RKDU0OR+5q+ODj38+F2it+M25P4HOGyiicEXo6XiKjjC0Jeji+MzPp8BxYDIMikABzgaBng3ZHhjAiCkowrMkJUgFq1FAyAB+ucckL0RpUIpKskCWTckP28fSyrhxh9iwVcNICQjJRCRtGkRRDLMoAFXpMWBx8NgEPRrU71COMGyvCadOQ5yUWA5lCTLIY2Wkr6BgpIhvoaac3B06zHxbLqeQsgg3PtW9BidbNUFoWhKXs44/ymPNFNQLJmoUq7I5xmZf1zeKoDkHHDpfnkuS2LFuC1LgRieQb3npEJ0ehaczHdNWEEA9BsUgOKQzBYNx/WZarzaXE4N+4/AG1WOkA2y1qrLloaJ625PA21rrpztTXmgB6t+ggIEAPgYz8OkmcXudy5Xq5ZkCwKoM6Tqn4Nm3R9PjGgGONwrm2CM7pWd8+mxxJeQtAG5jOyVVBC0QnZ8c1O9D9VL4m6+H1sPIybzfRWOd3vHyf10/Sw4Ztv);lineShape=1;strokeColor=default;" vertex="1" parent="1">
                    <mxGeometry x="425.7042790498988" y="626.0041478756038" width="5.438557928088358" height="4.297422640290051" as="geometry"/>
                </mxCell>
                <mxCell id="34" value="" style="shape=stencil(7VnLUhwxDPyavapsy88zIf9BFRC2QoAC8vr79GTLw1qebSCnHLjtQz22pZbU8uz07Onm4uFqF9zT8+P916uf+8vnm51+2oWwv7u5etw/49NOz3d6dn3/ePXl8f773eXh+8PFYrl8+nb/Y3nCrwOuONG4oIL7ffglVYn+7y+fD4Db/d0RIDvxaQLk04CYpU2AQlbQJG3aUtPTgFAk6ADIXgJZIQS7pZzFBQLwoiOgqAT3LkATlyiguQFQo5RIvBQkjSvUIpkBkpRst5TIlhQ7LiPASSkk0l7ceAaQJVQCcD2ua6SjZMYlJykMgFglNXqGOHopBg6o9gyaOVvx97iCenpoValtACD2la3gu086wEcJhK2KMBkuiWPMcBJNwkklcYZ9HokRJTKfeomjvYpnHgpSx/0Hmp0aJdXRQeLY89eIdns4gCTzkgjZ2DN/Ig9is/bk+VG7u1/sldnnXkpe7BshUCzSgvFPZc9vtniF/oBN+4Qst3xgxRH22aR9D+C2fRId7X3oXWsbUG0H8UWUMDrjgCYnA6V0Xp+3Aqp4skLxtvqiDrDqW71dAbTKxKsNtXFcAbWRtZxWptavtHK1avMGbqCALNn0WTyCMKkhE8ZMzo1WXxzabKms+mTbraWLlaMVGok02vAMCGyF0IvD0aFZ+ldnexTUiBK3om9XA4icS6gnJnCBuhXkKyP5oKgYl+AlP5bs1Kh8QRycqQGVFpk2FRkAMiOf2q6DLbGyDbYaLwHQiBpBPsRqvaQs45rVClm7xtoEeOcmSRW5m5r4sZKBTDTlkBBjcwBdaVJHqVNCROZXkGncEnKUnbpC06kFeEbX1EeWoy0lEjnkqOV37Ww5lUGmRed1rDmVo0ba5kQbRHVT2dDOx1M56if2JbbCPwDypOczGcQK+rjJoNhL1XYbzX1OO+5ZpFZiA2qanPYk3JYC0bYgKHxWviF+6hgHDXzqQVzHLS3zKAM466VFjzG9vc6aq5zxtGd9CPoPQf9fC3rYj/FqfSbetvd2oPVZPClEELJGbeMEmXg05X53sjI6dY6cGjEMJUCSQADLvdm4AqLIDr0ornEF1DLGIgCyaf3oWsRLAERT3zPlBZ5nBE8J9M4JAsrUxoIxiTEv2Zmk8sltKdcj9RZ9wmpX6RtYueR4Nofppg0ii5VT72y6QVpW4qZgI11XobhpP4lC6BlPnj9d2aJRVxIFZ5MBcopJbZ1EKqQLiUHpmXIk5ZXkjlc72i6TKgEg29tI1Lgy8eSd80ijWGkLnG+1I7/Vnu/NAaAKcrqZxxkcWQG5aOaX5dCEFiVaQQhAYoDULyrXOLg+bmwDii16KOWs06I8mM6cwmuANF1i0EPPgEjl2saWEh/PS+9NK+CVeX526/pG442BA4BVpJkayDh66Pe+FnoDAB9e3kJd729vDy+xjv+3b63w0+GNl57/AQ==);lineShape=1;strokeColor=default;" vertex="1" parent="1">
                    <mxGeometry x="450.1355208210748" y="611.6959011544022" width="26.82025408303184" height="47.11434989733971" as="geometry"/>
                </mxCell>
                <mxCell id="35" value="" style="shape=stencil(nVjLchpBDPwarirNjOZ1dpz/cJVxoEKMC+M8/j4i1ADSLr1Jbuu1xIzUrZa0q/Twvnl6W68ivx8P+6/rH9vn42aVPq1i3L5u1oftUZ9W6XGVHl72h/WXw/7j9fn899vTyfL09G3//fQLP89+nVo9OUX+dX4RG1X+8+bz2X63fbX20dinTilB+2zsRX8/QPtm7HMjhvZdjH0p1OS+fWAKNuDGMAB1KN06NArgRo169wdIBAdESmwcaqKMQsiUq4+ZkYNCZEHLlSIIISYq9gSp48x5h0a5WFpUmNUkxNYh1vFm3kFjsEQKSox230GEgmWSIpkBDkrM5KgHmac5DBY3JgaVoyAFS4w6YJm1r4E4+ogrSFHNHmaFpWTgoMXjUCtDDuapragly4s46m/eofnylEIdyYsm1V4pBxLkoCHaE3KiCK7UOxVXDHn8xB0BuOB6o0kJ5FWPqDZNRbHsMAinkiXBetM0iXPIkNxdY7R5VTpWFEPyslcUGnRCoDpR4oKQ41FeNzEg5JRMpfksBZDWVgfXLg4MC0IdHHC5QrrqlaKNQckUQZZap+hEJlJD1GBq7kphlMi8Qxz9++LAUOy7eKTVIaCWXihPHJAKKL0j+6AzLqDkVECoIS6pktl6UOAEq0Bz9OZxyXsODumiiUbAVS+uRXCWCkV3pUKCcBCfpXJpSfeo4TpcwXqv5MsTmamg6f6zg3aUKD6tAtJaVXpdxWnRojaahmzdsBUpX2njAjdNLoAsqQqJTWsK48385KD0tifo6JABcBoiu1km4ROCH690BkTqrW052xKNBc5jErwY60iHptbraHFJq8CWlaLn0kkEwJWum8tNxQmaWrMfNpQsDVAjhkHmy2wfYVp1YhNLb20AAsQ4iN8etHN3xNbRbq5TLh5D2ZeD3gi1uMnws7AvqYy62QcvZOxVb2HhYz/kLiyU7PeGhYWV/Ta2sBCzR1jHerQesh/1lIUFMWJSmDJuOM9RSm6hTwOR+TKbaBEWYC3a4O1R05kMngv2xZfYwn3qGAz+Mt7mV9uFfE525wW8JrP/Ah/+4wPMgr0+XL/2vGx3u/PHotv/+69D+ur8ZSk9/gY=);lineShape=1;strokeColor=default;" vertex="1" parent="1">
                    <mxGeometry x="203.7064492149841" y="767.6791477889049" width="45.10125460299173" height="32.472294276376715" as="geometry"/>
                </mxCell>
                <mxCell id="36" value="" style="shape=stencil(lVjbUlsxDPyavGpsy9dnSv+DGULJlBImpLe/77rB4VgnWYa3kLBH0mpXls9Gb14f7162m+Bej4f99+3v3f3xcaNfNiHsnh+3h90RnzZ6u9Gbh/1h++2w//l8f/r75a7/Z//0Y/+rP+HPCRecONdRwf19+yZJ0v/ffD0BnnbPS0CWVGZAkFKvA1Sl/7YA+CbBXwdEpJRmQJLMAEmCzgAnoZGUmtRiI/jIazBFO2mZsFQkGloRk0ToJM4A0PCW5EWArzZCwiNIBJ8trTmOmJcBZZQ4ACWOVl6uIYqbWSpNPGFJIbU4AapKIRGiiqszIImSTicvYa6hQr8kQmqS2wwog7eLgFytvBGBSaNkUbUA5ofmpDTLUiYWbSp+BYhES+1s+QWgEU+3IinZPjjSh9bErfrAxAdANZ2ukom8AWhzDZ03HuGN9TMgSGYsFamz41oUZSklqSYlPlvRuDRrqWXxDODFrwCOiA8k1mxTYjV0MVdbtGOAZA0EWpX0AQBbg/sIYA0EDxKLdn8ZP8CDjCVMvlkaNY5WXrOoM0NAOSCMsbW0KKkBrJdiAWzcQwjGD6ghk6Ib/LUaZJ6MynZpVDZ2ZLnVsvFO3LUQZjCBOKY+FKHzidI+aES2RxAM4dkkg+fXlmNz5rOAcmbxDKh0d8ARZKYxeCtETKkO6bwvTI7mFOsqpzaCXlux1NkiIonQ9yO1NEW2MXm7C/TxyRYgtStWbdRCeRwHCwexOQNPzwmhk4lIyY1fz/+PlY8sAiv3ZKUMOctogvDI84M9fWIb29NlUVjrxCCBbQ32+erEk3x8sMsbUmSrFS4Wxmp4hGcqXV01sOgTRlFgnA8GbpuETWxumadLTMbKsr7JkJGaylDM4nLFzpGEe8ssupDolI9e0hwBfWTLpIYhyjOnSlduJGCmkfIlBsIz+y0AkRitKztZQGbDCCytUmIbQ2d9bhzuNszLuL55A4hc28VKCbTSC2K2WkVnWNH9gmho9eNifQ3gza240cMWgDwXHSptHIqOZgIUOmJAazZqzdRAn3//8TEAH95ftzzsnp5Ob2uWv9vXM/jq9GpHb/8B);lineShape=1;strokeColor=default;" vertex="1" parent="1">
                    <mxGeometry x="253.56588772318287" y="761.2844988132558" width="32.50571790740241" height="38.04186609765043" as="geometry"/>
                </mxCell>
                <mxCell id="37" value="" style="shape=stencil(lZbdbtswDIWfxreEREqUdN1171Gg6RIsS4o03c/bj5khN1ScM/TOUfRZ/DmH1iQPb9un183E4e18On7f/No9n7eTfJmYd4ft5rQ729Mkj5M8vBxPm2+n4/vhef79+nTZeXn6cfx5ecPvmVOmnC8Uhz/zSqVc/i18nffvd4er/SVQ9PtZiTMAEuXogBT6yjpQqaoDMhOn+0AtVNkB2qiAkFqj6IGqlMAJBtTkgBYogByaUvNVakKpAiBQqR6wkEAfarw5oZKixkWS5gHLClRJA3G8AUAOqVFuY0gFhGRCUB6TVrkPSOpSuyqrgpAkUvRaskIjLRmggx20r6wDuQewAEICpJGYqnggdAuuAqZ+8SEV3GmVnuICmEOQNBJJGU9gBuIzT/uylkbagLy5G3JJmimCTptywlDWTAxOiMEcGTxR+1y4d4R4wKIUBYDciCnDzlnI0bf6khZQX8kUBsA8BfRtrW4euKrDPTW1mzHAIOskvSgLUCghR2jPcQESFey5OjQiUgKd+zTAcQypmAuBSWMm8XXNCc6NyON0NZ8z6EMbHWQr6IAwejpGOJdu3ND6NF+Pv8ts+YRC7yRq/u0Jzu02ut/GAZCcVb/6eRThSLXXVR996ANtXT9hbBb2jBRqOuxH4zHl8Y4U4W0hW/XTUB8B5czay/dR/gjity959u1SGP9n74T/328PHxfQl91+P99fr/8fL6y2NF925fEv);lineShape=1;strokeColor=default;" vertex="1" parent="1">
                    <mxGeometry x="282.86598347906966" y="765.8585808410407" width="6.79712160023746" height="21.18649837044063" as="geometry"/>
                </mxCell>
                <mxCell id="38" value="" style="shape=stencil(lVbLbhsxDPyavRIUqec5Tf8jQJx6UdcOHKdt/j4UFt6YanaK3GSZsySHQ4qT3r3sH553k/DL5Xz6ufszP172k36bRObjfneeL3aa9H7Su6fTeffjfHo9Pi6/nx+6ZT/9Ov3uX/i74JQpxI4SfltuhNJy8X2xP8zHG/taKQZnHwMl3Qa0SIE9oFBGgDoCUqKWtwGBmdgjcqIMEK1R9oCSqDAAZGqepZqIAU1NSL0Hu8kN8JopZA8oVEEOpVGoDnDDw+cIIS7eRaUKYjIWk3dhxcwJAJiiz7oWKrINSIXYZ10sJCCOLgXxpa7UQNLdQ/NqMkDFOfiQEl8FucVS9oCoJLgOITmAWkigDlZq8YXTQg2wZGIS7yFaDgHL1XuIiRQB8jXilSWBOfSWGwpnPlEHtdGD8abIQx21VFfBb00m9k3dmBRIw2afqgdkiqAfqo1GX4dOA0i6xLGBPnj7XHzrLL0JCbH0ZUAQKn7gW0tlxNIo1qTUAEmRkq9zxCMgXPt9tRdIEV9ltjZPgpP4n8fEMoogHqbm+bEIBchOib19iLjE45w3esDnA5P4fCMpej3j+LQF2JedHy8g/OpIotAG+wgmy1cXkv/b2+Fj+3maD4dlebr9f9yW7GrZtPT+HQ==);lineShape=1;strokeColor=default;" vertex="1" parent="1">
                    <mxGeometry x="279.0604867505665" y="744.0615702633754" width="9.053939654695569" height="6.438013120795176" as="geometry"/>
                </mxCell>
                <mxCell id="39" value="" style="shape=stencil(nVnbct02DPya88rhncRzmv5HZuLUnrpxxnF6+fsue4aquJLWnb7ZOoJIEIvFArylD98fP317uEX//e315deHP54+vz3e0k+3GJ++Pj68Pr3hr1v6eEsfvry8Pvzy+vLj6+f7/98+jTfHX7+9/D6+8OfdzryzNqyi/+v+JJjL6Z8nP98Nnp++7gx6ds1Wg+5KvTZo1eW8GjSXy7VBxff8alDmk3OD4GJYDZLz+dqgZBdpBe9KvDbIzaW4GHQXhc+pu5qW9+FyuH4fn+uFvp/EfmJyobIDJjaEGNXDmXpxpqE6IwNzJs4UBn0NcyyuduGDd34904QnJgyKsxV5Kc5jPo9CPqyAwKswx8MKeT45B1JgXKTigsB2MVcj+9BUMgTXV2xHc6kJA0C/cxy8cBoGbcVeDM4LsDaAdV0BCV0ENHpxvfIKWUCjN2fkQ57oOjewQxy8C+KUQHthXQGBM3FKFhhLOTgT4LND4DJyUPhgkYm1IIFEHCzNQ5wGNboisGTZhTWnq81NXq1AgQOZJ0Ezw4eVBHqQxQFxIKLsVfISfqYURexVAvXo/ArvsUkBjRY4gaw5LwwKmG/dkgGOAhoZP3s2MOE0oJaoSHsvjyklVzovUUUgwMYps9dVeB0igwnwyiKD+izJ+8AJbm2ccD3Nqn3x/brmG3hKHWpAgq4OtCyVD1gurFEY6SMMQFpphV4tk/7PoxZYjIH+VVlPxtxduozaEDKr00XnWwHJrBSAJ4oo63aIm0GQRbdFdrp4WUOBA9IyRRcsUDFxBgSgSgbbWG4zME1jfSb8FrgqJSsMPFFxk1oGW+q0Qtc+5ImcHVpV0QUtEmU0zTHIX0tsoIpuP4APW1Lw7qc+iEgDGqHwKRW1pTipfRcH1QmgnvWVlhDppLRM5PYHJBDVlg5FFymVVBwKxwGSTjrdOUXr1k9cJRALBxgotZQmC+0MVM9nhRuguomVc4N2cqxeJRA6Nlqhah86N4mAhmr6sKW0ViCALynFh2pAWzIXlUGa6N9XIC1z+zFFFbd2biwHCSgswQfjLSkiG+zd+ZS6TiBSJoiDNDgob0S6KZr5HwYMPmgTsaVm3BwXLR1aYfChTsuhSeWhSWlTfZwX9sLSoXopf6BaCRpoN6oQcOimA0GjzPbgXM2UWdF2WFLgG00ewRtFTM1Z6gHe1UUl4RLz0gilmmpE9mE0NMLpeJhFIWmzdjpTQ5NknR7dAxnk2eJcaT4LvELXmi9Q84AeS40QEk/suu5E+6H9BvEozQeaKTRRC7Kg4HtU40avq2YOmXVr83LQgi1Rg48EUiQwmG89pSHWlYGf5WObOdjMkPM4NGfrKSFp5TC3MHunKkkAkebJzDvtwGGYi6RVGTck4Ro45KCazOCU8rolZLkSWEj5SqNNPZ4FctrqQ8o6DofCntocUJ07HWeB2o2jlDJGT0WBQ6SVbk2bstgZKHijYW/rsWYvBy2hcNMEp02pGZdoOlvkRC1z0R2zVhFn+EdjSpNzTc/7AVLVCXnu+aIuoJ7rZ9BzJc8Rwwl36W+h78fZ7J9jiPtu0xL90ANIjTS2T9uR0U2HFNDtagb9dnpfZX2JLJCCRAPkE3WG7wxK+qEb1kyaJ3h3xy/eR72jKh6CvJBBCSZhATyYmhiUKbY2g6QN6uGyEepH+DB6sMAGatprB5E6WEbNhmxy1M5A3qT5QxqHOvu4qyWoCQtN94U2D2Uz6BLaY/x0vJNVgWgn1OJ1f07JFjY2vrxr6GyghhIWWbANA+WD5+HQOzfX/+GqG3/8e1H+5en5+X7Pvv+dL9bx6H4pnz7+DQ==);lineShape=1;strokeColor=default;" vertex="1" parent="1">
                    <mxGeometry x="302.3377803357778" y="761.159868728301" width="32.88546504926717" height="76.85939987003803" as="geometry"/>
                </mxCell>
                <mxCell id="40" value="" style="shape=stencil(lVhbctswDDyNfjEkQILkd5reIzNxak9dO+M4fdy+UFXJJmRvJn+yjCVeiwc1yMPb9ul1M3B4O5+O3ze/ds/n7SBfBubdYbs57c72NMjjIA8vx9Pm2+n4fniefr8+jZLj04/jz/GE3xOuUeQRxOHP9IKJ9d+Lr5P4fne4Eo9MOXXyMZAUAMjUcg+olCIAVGrOokIx3AdwJC0dQEwn0MCJRDtASlQaAJgB0gGyUAAAsZj0AA2UgUkilPqwqukEYRWl1DtdLDMCAM1rKKYBmGQx4doBqmkAeUjVR8k0MIhSNqpF70OoALAw5ypK/+l4E2B/p9YDlBSYVJSC88ESB0yymBQXViMfAhSqPflqoAQATTyXaqaIAI1q77QdUUBNG8BVXMtz3O4BYu90WyrkNqCQOkClzACQKff0Np2IfOaiN6nBPLRAyisAqIda58Z4BRBgUlWS6J1mBEizxQtAqYCwGsDVg8UtZAjQvhmP7AIFZFRTZ1KEXDJ6iyNfgImrjbT3YXwDOl/jeRpcAdAEaolyW2lA5FOqyfuARpblVYOPkoI8GHN0VaKIGjEECk5FgnQ1Fa71mVuKKqj6bmxv0JBra343YtQFZMVva1WoRiMltztc4nCPTWFlU0Z8VWrBe62oDWQSV0I25XDN5VWRKq7qzwHKqoQ+qLkic/NdKiLBhq/Vt+NRJwirZj+DbCwKCKvG1XqyDJnbu0CeG9fVWEQakvr1xMhSQJRkrcHaMci0bX3cvA9oebC9srgFKMEa5ex7n2WmApNsm5c+ccpwQsTmt76cYFijzlRblull478NkDkmy7puywMCBA/gCtlqS1+faA5wOxGqfYzskoOoZ6f1aU6wT64697LQ3RN33s61d0fcORvn4XU7mBTYiaNd0g7rxQOcazxfoy7i6DIpfhU234HtNvD86WgW6JyVizii2XIbuognEPfiZ1mArK/+jhrhWPrkrfxDcXu4fAB42e330/eD6//9BwN7NX1skMe/);lineShape=1;strokeColor=default;" vertex="1" parent="1">
                    <mxGeometry x="327.30490195336915" y="739.307086417341" width="36.418866400142406" height="53.36172806690365" as="geometry"/>
                </mxCell>
                <mxCell id="41" value="" style="shape=stencil(lVjLbhsxDPwaXwlJlCjpnLb/ESBOYzSNAyd9/X25MKSsqN0xcrPXGouP4ZDcA9+9Pd2/Hg/Bvb1fzj+Of04P708H/nII4fTydLyc3vXTgb8e+O7xfDl+v5x/vTxcv7/eLyeXTz/Pv5d/+HvFCTEvoOD+XR8E8tcH367Hn08vq+OFvAzHCzzuHYU0nPeJogBAIBkBIVJ0AJDIxQHATLkCQKYYBkBk4gAAldJoUgoUgdPBWx+kh2EbEK0PIlQjAAh5NwByoAScXtI0mpSFst8HsCeuY6KVGOAGTi0m/YZCDJyO0w05UcgAUEgmpxlEKWWS0STpqdwESKBi8lAogEzrz66MgEwecEktrqMPkqiCetAgWmrE9hfbBSqNCB3AlECUKreCXAEYUMM7R87ZMGV0RaVgUs0wc1VVwI/scyQFeK2pHou6qGwAJ5TNFpCpglRnlY3Rh+phUS8VOWauapkj9sVGnQ7I0Gnlt6kgDTTSSq2gPCZulcttRG4mr65A6hoTJbEAVBExTk4o5ZEMMIm5QSD7FBCNDyo0IK4KyGNVa40UwA31wZBJCZxAVWuUSrZkSsik3Ni8AjjA71hbEDvAQd1IvcDW/AZ50CZotK/2J9sAnvjNFJB+82RSbIq+B8gmSr1R7gHCWBBacgmEVZ0OxodeU3thLVMBITnWxIUJgDqEUiNNKlARNYRcsABGNR0ps3U6otbOk9OZAjJp6kFaovmGCJhMq44gIYu2BSlbK/IhbVRcQXmQjZr26IbSqLYq0YLy8FlA0tmYLUAA+XRONVJZKhQyHXdMWHX+KOCG7O0Qp42a0QAkbQLrABxWnRTKSG9t3YJGgdSUtAMivGHJ6zSIoh63uFgsIKMxUclXrEmI3jpF2tlYcOKc7aIapQKcVuVjkzgH16bYK3i1QQiqaTdxqe92eytHGCcsneGQtuoWVM1Y2XeKvcXMTDMfZNlb/cwNOsAXEKXg2v68Jh/ad1UEzFJToHp7aWnqAA8XMx9b3+/7LsN9V3d2sw+o2iJAtSMf604DXBDb1gPuDmyVWGOAOqJvvOwySQn8vbPlz3BmmLalAIdJPV7NcSRGrqln9/WGMWU0xsEXDd4Kl2tb0DabyYk57kEgNRDeHEfLCNtB58bu0lbMlTFAEade6ZoG7xwXaztaH8XuUR4G8pNv5W4e1w8fLwAfT8/P1/eH69/tC0N9dH3ZyF//Aw==);lineShape=1;strokeColor=default;" vertex="1" parent="1">
                    <mxGeometry x="361.3764480382308" y="734.3876480518275" width="50.56823195883794" height="57.2110490391608" as="geometry"/>
                </mxCell>
                <mxCell id="42" value="" style="shape=stencil(rVfLctswDPwaXzEkwOc5Tf8jM3FqT10747ivvy9UVaoByVtnpjdZ5oogsLsAN/Lwtnt63W44vF3Op8/b7/vny24jHzbM++Nue95f9Gkjjxt5eDmdt5/Op6/H5/H369Owcnj6cvo2fOHHiCuZQhtQHH6ObzhSlt9vPo6Aw/54BchCdQEo8TZA+vS9GcAUy20Ad6rBAoS4AkCgFC2gU8gAwJS7ASQhaeAMgaoF5EIdnEEatWoARagBQNIsZQvoVMChS6TGBlCZEgBUoVwsQCgyBBS7QwkkKKRE2RYuZRJQh6x/28KJwDMo+YJN60AWBIjUHfnyRJZ1AFNw5AvUsB7Y6iEWLKBMJVkAU08A0KYAZoASHgCK0tumtU95Xl9fSIJbX9D3OzX7/RgpISYxFUvumCgBYtTk1RAbLFvN/giq8R7gDu4MXGFSB7HYkCROQa4DtEiWGDLvuZ7WSsGajBRqwJXUUsQKVCqmXve+pztUkCV1OS7+DAmENHSH4LMU0Q7aC5yi1VmRQNX3rHy00tBkmKqTT4XUyInqgq0BpbX6Q6seIgCod7PdQQsD9DM0ab8eGnFbBBSogLJVTaoDzNz6P4Cmzm2ZxI0YVKHPKZybSZzIuA7QqlomDXUBTIoheK9Xkf/p8+tbqLNbSbcO9dPSRM25cH3qkbecsto0XUV5i3yuw/UGG5amMds89QTJMRijBbQyRbme2ETsRpME23ryHqAtDw18i7oN1ABHDl5u6jFottIO7cjNsAYxU3dWjyfcSsXWbI7wzhH6H5xYzOgBtqrlJSBMAd7qVLG49R2t79OgOScUUlRbp/N4gdJX1bDNT6aIezk74cPxvy66Wp+G7zvXK4HkXQGphpATLU+sTS2gkBYp1YkK9dmhZm5ACvAMS1IwVuW7r553APTh7033ZX84jBfl6//9zVhfjbdqefwF);lineShape=1;strokeColor=default;" vertex="1" parent="1">
                    <mxGeometry x="411.4389555821954" y="768.6572278672431" width="25.447423977499284" height="21.14124929071386" as="geometry"/>
                </mxCell>
                <mxCell id="43" value="" style="shape=stencil(lVfZctswDPwavWJIgudzmv5HZuLUnrp2xnF6/H2haqgIkLRt3xSaGxzcXZADP7wdn14PQ3Bv99v16+HH6fl+HPjTEMLpcjzcTnf5Gvhx4IeX6+3w5XZ9vzxPf78+jTvHr2/X7+N/+DnhfKGWRlRwv6aV4KjEPyufJ8D5dFkAQiFmDSjk2j6AE7FXgHGl7ANiptYUIHmqYR+QJKWsADnCGnIhryMUpsoA4KjqGrKnkkFKiWLVNUhbQQQp0ekIUWKCtkqXogaE2KvaixCiAvhAuYKiuWc810AOlFAy1aIDUHP7+6sn1j1yxODUaqaQzX6X9vc3aakz+TjAu5Y6j2eiUgD9aZV80KSgCDjRGhXTH4cDNKpamz528e1lxCZChZxoK5pKj2ANfgUQloAIcmjFACI1dMq+034BQBGKqD/YlBjUIFpPxsEcjuB6xnNbJSZgXm7WLjx3te5FCPqkW9fG9v5AwUozA2qXtCoZSr+sCpAOAQeukTKb/Q5Jv1EsZn9CPJ3t+SP/CPJpxVrFPIT2lMaadJUaoJB3buUtgRrWstMV+Nwn7zYgUzLCcViakoAZCEweKG0bgA3emZTw6K+OsqY1t07cbUDqNFuMTXRXECIlfQ4ymKFFBnsbkaqQ1CRC0Ck1rOVc7dhcsGV7MkdKWg2SJZz9ol5ddRVDAG1ibweDZImKkDFg+poYtknobxQaPb4W9ivdTI25C9sZWf1wgBIVwzLU8/C2IEekHWO0ALxfN0imP7oROnvGYfbM7Yba/P9i2UJKs3++UW6TrhvuzNIGL6h15V+128eORVKOFoA8Xkak8WwBVBQh2RZJCQkY3n+/df4BIB8fT6uX0/k8vcyWv9unmCxNzzh+/A0=);lineShape=1;strokeColor=default;" vertex="1" parent="1">
                    <mxGeometry x="439.78646279449504" y="761.2103914422107" width="20.3313992548608" height="24.554817185928187" as="geometry"/>
                </mxCell>
                <mxCell id="44" value="" style="shape=stencil(lVfZctswDPwav2IIHiD5nKb/kZk4jadpnHGcHn9faDSUDVjaNm+yjBVA7OLgLt29Pz+87XcxvJ9Px+/7X4fH8/MufdnFeHh93p8OZ33apftduns6nvbfTseP18f599vDZDk9/Tj+nL7we8ZJJEkTKoY/8xsW6vObrzPg5fB6BSiZcreAStK3ATlTZQOIgYJsA5JQDBaQKcVtQFRANYAUYEipU8kWINQYHDpSiAaQmQoISdPa7KGnNORtQI2UmwVUqoCHpt+zh9Ygc90GdBkBDIAwBeCBg/JkiaiFMmCudWrFAFqjBGKqQmLT1BNlQISGXKwHPVYAHjTt3eq7N4rgDLF79fVOAphjzaIN6Spx66emkryHDDyo+q00eh3cr0dE3Yq1F+K2bR9Gyhf75Qsb9k4WE8sg/uCFp9ptQHiRilh7hqVQKFoCah8ZW5ep11BtuBAisauDCtsFF8+weqgFAJpvqi1AgOZUXI7SKKV1APuG1CqFfwCcSgP2oBE72WWcVuXBHlprueO0iiv+Rh2VZqR4U2louDWS5u0RDWV0t6uAUCXHmwMIMYhHU+oylODoDIPSheQ+tL5h7+JvhTrsLM1VcsSz3w/mhkd/9Z1I6yYBew5DMFeVCQvts4Ckzfem9hk1a52BlrOq3Q50IylDAguAYXu8NJ8rDxnMG+nElgZZglyXdR0jcgEUGFIuNx4irH1d0FwPLgIXKu6+B5el36yvOxTcPsXEUHpuw9MvMMiRjn12e7D2M8CznsDtwfoJ2FCbV5IuqYDmHPwiEuEuVdKY2sM+wDEuy8p7sUdrjiS/ZQditNuVsb9e7CuyV5W6hFIFDEvz3TdBhrVIqpVchtOmavpsPAKrTO2z25bhcFJ7VwJTN0OE6Spra4Aj3Fs0Q8EyxtpZQEgi4z6wAMpI2jogk1gN6XUTTahP30//A6APl+vw0+HlZb5NX//vr8/6ar56p/u/);lineShape=1;strokeColor=default;" vertex="1" parent="1">
                    <mxGeometry x="468.59754670430766" y="756.7895426033915" width="26.42277636272911" height="26.10810181410443" as="geometry"/>
                </mxCell>
                <mxCell id="49" value="" style="shape=stencil(7VnLchw3DPyavaJIgs+zH//hKsvRVhTJJcuJ/fduesPZIbjTKp9yiG+rETHEq4EG5qRvvtx/+Hx3Cu7Ly/PTn3f/nD++3J/07SmE8+P93fP5Bb9O+u6kbz49Pd/98fz09fHj5e/PH/rJ/uuvp7/7G75d5JKU2IWC+355kEXLzwfvL8cfzo+741mKTsd9Fu+Pzxdp8+tDlJKOzzdJbTqvKhqOz3svvkwCMUgmBvgg1U8CyUkhFvgoaTYhVUnEhO4R49IsjgkUKXUSKEFiPRYITuochaojjLcFVMLs1lpHII8ESp4EmhPHVIrDxE3ASyZuhYA3AlCSqbTeEKVmbsOcGg253aiAzqnRCndrkOJmgToic1vASzMqNcmOCvhqBRqzwYnOgfMOkSNXeEBu1YkBAjbGxWoSCAgEXfzKMFrEm3SFkqwKILAGEHAcE0gSw4zRJsq8FJeygdLGBfIciFhESTL1OjOHWnn2wQadbUC1pYWpSJ0jjSeNCCD74hxplNvEAJEs5KpElt7NVr46IHjzvMaBlk2hMN5wW2DtP54CLjoLOHUjGW/fkG2c8cRzldws0MNGVNJm8YawZXJD74AGoNzmYi/AC4jJCS6c0eakEX1SsvrApaRe5O3f1/OsguU43LF7PwE/oB6s/izrikqbgeb5eSS9ITEUNXVjLFcOxoBf8yAsO1g2YnBbkhol2ZMCjFbsZw+h+7KUaAvwNQwn3BZYOA+QF4hT0ZQs0asUmLu+t5VszsOgk5rqFcSTxOt8wluBSiIHNwW3CBDogOKYQHSVmF/V5nZ1tDm3YBl3aeJYMgUJs5dKHn3lSMD0qRJHATkSKEYgUADB6DgbXdxo10du1Tn7UBOoSuALxQqwuQepkZYb2CCD5DOtDTYwPgzSZY32fLSq0uayisJWmErN1uGSeJ1pFnEohZ4FbqmUyFYqUEYZ2hG9wiFqekPl8yEinZYiwEgScikuAqyfI1uTtzawmbvjwSCuUQLQETc33FIope+YXiL9ikppHsaQS7R865JLfnD2I7c6M0W31+LwiwI6uOlusKdu9aOSbi0oc0wDwbNK4HKNuLVWuzpQPtjXhVqBQQdidF2pQBsE9jaZQXGfI92nM3JDTwRzw1Y8D+mYEYjSSC6B79VgbwjESyCUaRFgVSMtpN7zSIMSmx4HhuVIn45bmLbABTq8RZTeudxjMGHzZFS7nADDYjuf6Eff302srGposlsl4IG1XV0QB5XoDUCcYdKRJl9odsESCiWuoNqmoYDpMreCy0czvjU6nSCuhvP1uZ5txoItlYgDY+sh2HVJwozJBcwAl8sgE4ebMcM1Ko/Df7RwZHH4vXD8l6P9TxeOJJn6ZsxZAQYIvw5yjd8QxnpxR8kqW9ZtlXE3D2RGje2kmJHepGXBQLPQTHQ6TnbpEHlyxxtlLzL02DwKhc7SfvTXXcdlNMPZtVulUFuWB0WUeMeNaXDz5hi2Do6b+TPSocTZ9FS+6LX0H/WeHrc9kybC9rLrNqwQU3X47XqccQQUXbN5Gnl0cDzb45WtLhd+TQtJsrwxjRnjCCK/8i311eP4cf1s++n88HD56rv/v/3Mi0eXT8T67gc=);lineShape=1;strokeColor=default;" vertex="1" parent="1">
                    <mxGeometry x="623.9401493709845" y="458.32134982337743" width="71.03355848283877" height="35.444654594580015" as="geometry"/>
                </mxCell>
                <mxCell id="50" value="" style="shape=stencil(lVjLbhsxDPwaXwlRb57T9D8CxKmNunHgpK+/L1VDyorrnSA3x/GsxOFwSO4u3L0eHl72O+9e3y7n7/vfx8e3wy582Xl/fD7sL8c3/bQL97tw93S+7L9dzj+fH69/vzy0X7ZPP86/2hP+XHE5U3EN5d3f6zecyYX/33y9Ak7H5yWAyfEMiJTiNiAFkmAB7LYBcX2lSO3PLUDI5M0JlUraBvhKrk4AnyiCGLynUCZAiBTACVwozCzFAmPgRGkOOkUqFQD0AnPQ2ZMHMXCgagBCKcMTDEvVUWbAkrMsVT0TxOA1xDwBSiJBiRObadVvBIAQKGZLKwo6VIpzHiITF6BW7nldSCMhQKIys+QDPkF6QS4rDuQhJVtxhRgoI1fys1j1C1CgJdqQebB2G6DPSzNHTBGYTBOazFlw3XZuAwaFA6CsgZirZmGOIRUqCFB7wS+kF2QbIGqU8wlFnRDkWSrVOKehUkIniFWSKG+g3hQgM63iSUA1KCAaQCJGV6rW9wRrTzKl2WT0EchkJK6uJNC7ZdjiAoAalpLoir2SIPFVWw8aNIqhZqrF0lqANBRg5C2BMqi4BjAscc/MFsB4RhWYuLrKdC29I23Ryqad5E70VuLC7N1atBEBYudkAcig6ar4jM3olSIqoNpLfhG04IpL0dKKOhw7Vd8chPIAS066bw1AxDTVlW1oEaLMFdsf9BGMok4rgMDZpNnQqqih9blVDAJ7lsq1yCoGVBDF9ixlCfasTwN0sJgB701ps42ajoLnXJ2m/MxScdBnipbcLD4dKtFsoiOkAaQxcd0G5NVgHGHQOXQxj9lBqxZNM2w7io6ZaHbQxm86ygfDffK2qHVlqSDoOOapwZJAlvR5bra+NueCoNsUOgfdpIHmXG0Qs5aaoYM8+LEsLOTtQYnqNmA2moW33fa+1SjdZgFwRCBvruTh7rqyVi3BBC6kvzcjn94HCMNZ5WXXWb4dMFUjC8bLiZ1Zo4f8DP9ZCBt5ntjF24+pYGulzPMBSgGDADSCbHpVt+XbAafub+MAOLq1OpwvhBWny6DY36PWmcfi9X4fJDi1WzYZoIocXvNvMkwR/d6vthg4g+kGko1C+4Fbm16wm6TgzXCVX7Qj6e9NxbAjwRcygzB7fELoBA5AwE1Wn2euFLuotnLG5oVYgi6hPdNMnZw/2s95BfBIpp9+qfcxQD+8v0N8Op5O11eQy//bd4761fV9Zbj/Bw==);lineShape=1;strokeColor=default;" vertex="1" parent="1">
                    <mxGeometry x="697.6645608499521" y="459.5270917119017" width="35.56922141976611" height="34.98186658439408" as="geometry"/>
                </mxCell>
                <mxCell id="51" value="" style="shape=stencil(7VjLbtswEPwaXRfk8rnnNP2PAHFqo64dOE4ff99VFSriSp6it6LoTbY53tfMkNQQ7l72D8+7gd3L9XL+vPt2eLzuh/BhYD6c9rvL4apPQ7gfwt3T+bL7dDm/nh6nz88P48rx6cv56/gP3yccO6phRLH78fYNSf31xcdp/fFwWqwPjkLp1ntPOQOAUDQBNKS7DYiVXO0AGjOm24CUKfYpRUcFpJSjjZAcCUipOMo9IDtKEQAyFe4BQoFvA2ppCTRA9cQAINnWoH9RQJdk/nkGVKoCAELsO4Do7DFA+pSEyYEueefI9VVLoAIQY04mRKIIJqdV19wDMokHgES1n5xU8qjqsEpJyBcAmLu4ABQgOR1s6AexaNw2IhIHG6KCqpVsgS0A0a/UprBFmxhoThVhJDQOAvRVBWOMSauqSNWasSE4UwKKUFU7E8HhGph8Pwhtw1ujtwHJpjS2AXCjKHUMIEFB1EChWgAqWsmUnE3JIwV5azRF+YiMJlijGasCbVXJGbaOdEQukCj05NM2oLZKJG8iJGj4Mu9pS3cFbFUv5V5AFRetZPbFAipiq7prsACUkhJBogUg11B6Z7ZFw11OnWzV1oQ1zb31jfwFAlKATUnpCIyseOvGKlHkGiWuNF0aWbYBMxEWihNAPs1YsgUkEKHmxpwFoCKAtAQWmkZFC9udWruUkB7Ues1pw8FJbwPAJvfvHk9gTv+PJ3/P8URWg0DuOm9RCzYxaFNW4zLe5+Hkkp5sjUgD1Fyc5zRfOiKcXNRds9dcwoeHkIn7omOCdzleXWuCmiUYnBdKvZWxXqVABL19ur4Gr/dHFKHZ0Dy3Rt/N5W41hObmN5Ybx8jQV509BCSYu2uUnLtJGXXfKpnhZhtXOm679TahKfciVoMHuYs9ILl2rrw1V1mtRzyIdq56lgc250vz/vf1aLvxYkfloWX96XuV36/Xh/eXOE+H43F6B7T83b700a+mF0bh/ic=);lineShape=1;strokeColor=default;" vertex="1" parent="1">
                    <mxGeometry x="730.9666895071266" y="456.9675162211802" width="18.147667520164077" height="33.074304468549826" as="geometry"/>
                </mxCell>
                <mxCell id="52" value="" style="shape=stencil(fZbdcgIhDIWfZm8zQAg/17Z9j85U606tdqz9e/tmZ0c0uJ47xP0I5JwEBl59bp8/1kNwn6fj4W39M76ctgM/DCGM++36OJ50NPDjwKvN4bh+PR6+9i/z74/n6ctp9H74nlb4nbmSKZeJCu5vngmZ6jzzNAO7cX8FVKEsBuBKrgKg9oAE8gkCbLeUhEoEQKSUDZDLeWYRKIl8MEDRmHwfyBrBG6Amyu4+kDxxMoB3jhwgYu7TVAsVkFcWCs4CTBEoF4RctKeOxHIf8IXYpikHikAIf+MNUW94AGSSaoAoFIE3AlOyeWU+p2E5S9yfQZcQILVuQOwZdJNoS9Ls3wA5u2XZTIHECqeJ9kDpSaauRiNVcAY1QhdBzeLBli5WazpkSsBLV25uRaqWRyFawTQzRRIQYirJzq5atkBqLfouwqUxLBepthWb10vrWZY6UOAeyKCCtDV625mm9gmUC4Wc3VLJMMIE1BsA2FW9JraVlQB7n3c9oMKhCLEvIM1zBPZ25/umNQ1tVEC2G+fFCC8g398O2hNQuQlVu752DBfA+q0ptnqO5JFmeuIuo9DY7KjY71UxdJV4EntifPWorW++R/dC4t7V3DlIB5cHx2bc7eb3yvX//QNFp+bHDT/+Aw==);lineShape=1;strokeColor=default;" vertex="1" parent="1">
                    <mxGeometry x="726.8679608424759" y="432.8753124585194" width="4.672539772115215" height="4.665236216357243" as="geometry"/>
                </mxCell>
                <mxCell id="53" value="" style="shape=stencil(lVjLUhwxDPyavapsyS+dCfkPqljCVghLLeT195Gz5clYw3SK2zK4x1ar1ZLnIDevj3cvxwOH17fL+evx5+n+7fEgnw7Mp+fH4+X0Zr8OcnuQm4fz5fjlcv7+fH/9++Wur+y/vp1/9Df8uuKUWuwgDr+vD2KmnP8++Xxd/3R6Xq2PTIknAFdqDQASlTwBpFEJAFAohQmQGt5BqaQJUDIFAODoAbVSijAGaTNASQtkSd2RKmUFAKEws5SUGLGUiOcdhCkIAFSqM63R8lAhS7XOgIBprVRmLQklsF5kcDjWB6q8vz4FiurWRyDVVKj59QFQmvMgcJE2jLckn7MYBwPvAmrwB2ITFkhBTZRn3VmSI9BdtZTOACMN1U4z3c05y0YS2KHVDUDhkVQGiUvtMDFgSRvVmaWGWVL1yrZDRlRsYRHCQGggAcVjWzgTs7AS0F4Pwu1QRsG+D6jEs/jsFQKC0DwsawHoSP5eIpJ4gKIdIiX1AEbaUJ85xa7XGuW5mVhUqKQtsa5dqRUE0re53hy0HTIA9dmR2KkvQ6u39zlaraYEFUT0NtOMaKRvayYOECgDI9NEyhsAEp85ZfBHQj26a7P6oNHYYMpJDlBgf+vadAATH3aBNjdE4y2hoNUbk4kP+kz1DbE/QZkuFNyRFEvDOsosvpVV7Wkjst8C9aBudA7QoDFZQbim1cMCXvlxgAyjW4kJNS2b1niOwTorqqAqXq6FSQBLZWPf2fQNYrBZgN38Zk4GaM3V20af30AF5eiPZONVAOaaxA8PNtEh25BMdQsAMfTLw5wHNq8EO3AZ7r4EneGR7H1u2ki4BXXAfKTcYAvqgJlWyz2quD6yOa9MUBp2n3FjsQrMtE2Rfoc8+uTOPONNoGZqqOKGNFflgFgtI0kLqTw6zPta9c6acPVshlDB0g7jtIvuwjD/nfVhc/VRvH6uTbs8IU2E4eqrS3QE8QZSd3EQ2Kqin6vsfhkA/7y51Ac4w2wuYnHpEjv5jZubITK74q/Ptj4BfmxqdOePY8cdPacNP+j8yySx4r+hLvvBjyT/X28//n2ReTg9PV0/6Kz/77/g2KPr1x+5/QM=);lineShape=1;strokeColor=default;" vertex="1" parent="1">
                    <mxGeometry x="751.8444995720918" y="450.10885823416425" width="42.81976496253492" height="26.88716797708571" as="geometry"/>
                </mxCell>
                <mxCell id="54" value="" style="shape=stencil(7VnLchw3DPyavaJIAHzg7Dj/4SrLkSqK5JKVxP77YLLhagnO9Nq3HHyTZtF8gA2gCZ7k3Zf7D5/vTpy+vL48/37398PH1/uT/HJifni6v3t5ePW/TvL+JO8+Pb/c/fby/OfTx/P/nz9slttffzz/tY3w9YyzTmYbitO3/74Y1f7vl1/PgMeHp2tAo15mQKOiAFCppRlQqCYAKCR1BggpA4BQDzMk6giQyWQC9EZNjgHdxoovACWuAFCp6wxIVBsACAlPgFbhHpqRzDM0ppoBQKm3CVA7MTjplijNm65CBg6uKtlMjWKkdgzwn9t80qVQAl4qSjovqbhbwTmoUcoTQOv4sg8QKvOSNBODJUmnNB+cVLhp4chWudBxF8BtBOQAbF/ADCyUZnqzUirHgNyphxkyZUC+XIjnPfgQKIAyU57dmttY5H6IUp296lNCdg+fX+yVCthyobbYIxc58eZoyzK4u3/KJPIj9jlGwmYP1pNI5xPLmRT4M8U4aDeGD6Hv5wcY5yEye/OC3ydo3Gwa2fLI9xYWA5ME9dlcBvcOmJPnrSoJyopkIaGMD/t5ffjtkrCIoXmgWYHH1KnOCRenHg/zSAIFx9RHtr/UMEgxN59D1qjA0UPOyWmk3gP7GCEZRninEiKcSaHrZYnABJ0ZeOP2aD1tlPPrCAc0dlW1ZhCQk8viT6/WYHxdMqzCyiix9N7ImO6NmWwe5QzWL5H6bznxwJ5n7m9xDrIIk4XxFYYiRyHg9h2sh8fsF/sCK1weBfNqfFTVM0mL++0gUeXIT18hGj8t/vGsDitKCPdsUOHmKEpcMmRoz/N+c72x3zrzzRWDQT6kxV4Bn3kkv++2j/Fehjw+4HNUSBWqbVcYFv3J0D7Eo59Xg/a6aEJ05VkuMFuZh/kkLfGL9nth71W8oPXzuNx8dzz2Nd6RaF78ozc0Ul7iF2lsj6/F/w3wOUVh4l/QevbsEX9SvNx5fUH893w123d4j+KYDhVWL4neUXj/KIO6V+aAyy6jonmHl4+fmvCnJjz9/zRh3YlZRg2Zpaa7qoG34hZqSrp1K56pbLB1mKMkaTAMZZzlGzcLcI5SacEcZZwSg9yg6xtVja4pqK9KbbnQV5ReOdbbjZuow1AWwaBjzn2ADa5f9WwyAOxI8gRL3JY4g2a40VVZRUPHl5YeE78wzCgqMR9KG62cow5jLC0Mz6FoZIZWKJzr0rspGc5Ql+5cKaOGHHV6wx6KjSblPqBEsVpd/AAvNRtt2qvmM2qzdImAxlBu9BbJ1yq8X1iK9PZFomRtHPtQnWEKMI1Xhl6GCN8H1HjS3emNH2NCTPuuFG26x1ut76qBirC9BoXnnjIcfQQInVXDnVsHhH7d5ga0aSOrEVCRsk9LO9Mdx+Dk9hEd9astllp3NXy0svgcsz3Fgai25bHEvyCpZksPfRsCvdTZ4M4VAF2h/WcJeifhzq8jQpdkmwKx44ffJ28D/I+359BPD4+P59fU69/j86l/Oj+9yvt/AA==);lineShape=1;strokeColor=default;" vertex="1" parent="1">
                    <mxGeometry x="389.8763943284066" y="389.1444138811812" width="231.69755908159573" height="62.436526732231414" as="geometry"/>
                </mxCell>
                <mxCell id="55" value="" style="shape=stencil(5VnZctw2EPyafZ3CNTiebec/XGU52ooiuWTFx9+nmS1QnOGyN3q133ZJNAHM0dMDnPK7r/cfv9ydUvj68vz0193386eX+1N+f0rp/Hh/93x+wa9T/nDK7z4/Pd/9+fz0z+Ony/8vH5eRy6+/n74tX/hxwY0haSyoFH5ensQkqf335I8L4OH8uAVUaWoB+IQSQBGNBpBU8iCAJKEZQA7S8zGgD6nFAlRqJ4AmIVvAkBEIoEi0M5QslWy6R7/p0qSmY0DrotUANEomfmgwop1Bi3Q2A8xqPa1dIvFDXV9PQA10hgor2SXVLJHsQWF1G0tVRYmnFX51MzQpxA+LEa3jKqKVeBpuisEAGjZNYqkkadZxMLSSTecuyQHKfHIdUCTYTcP3hQDSkNYtoHKAykgWwM2asEXrOMRvJY4DR7h8aEM6WVJsPlqRUpEBVEL3gEEcB56LDgBPk9CIQbJzHGaIFBBc8CUZxEpjfm6T0qmw8c3aCMFYyA7Ak3Z8jtIZdU/KWpm7UCIek3XX8Wnm68H4bg2agighGBg0WkDslOgBUOsBxBXjvBgl2PSPlYcdiN4BlBI9wi6kNwI0vWlJCLLmN804L2Yf2LfMuha//+u4LN364UZkADCsWW+E3mIlG3sZniaxvYTGrkKz0NjRtoJUyYrw1noB5ZGNL7NUruySZ4W/XhakR/99Jqt2um2ptcxn0QcqBEFiuZOluLITJLEZ6q6wrcX0OqBPSbQpnZ3U2iUsHWXXyZmHhc0BIMwYAN+zS+qJujk1ya7sIJtIdgLQ3Qw6q+91wE639T5r4xHASckRaJ1acsGGxshTchztwVU2tBGZKRLoD0sYo0+7HfnBMcxYu4IjgCv/MYRJ/kcqyRExpqCuLl7ejkYlSdq1SkNnlh8BknpHRLbrMivBxtVMfALgUg7NU2EpV6RZRyBcAwtX9cSKhKBLgk1cfCdKTHC1U6sLgFmp7TIIZiVMBkCzDWXn5WrJ0ejNyqrPkqPWceh6B7NSn2386ulExR4ATq2OGzzTfDOG8L7BAsFF65DMzFqnnN0AaAKpDz4AGpvhzYDsdQY2HVjNGrOp2KToIMEHsVZtLMFxtIyqV8XI6cI7H8eVKBCV7SFMZbElAbKkPtNrHc/pfsfF4AxK3r7BRX6ynjt4VQ9t1Um27Rs38CZTn3P2jTZkuiTP7nodH2gQqbdP4WcMbabVKobzLEW/UaNHe55ftdGj3e2v0OhlX/1f9cAhwM6QdR4KHgGaBZQ6XXkE8Om/VutDs7qT1SGJ+aHOM8hNaxUIAaDqZPUzsAM6uKlEDwhMkKg3K9pDKgyxANcQN9pagbNc41MrDb7c/cUBWlym88qu26uZ1jUEggu+Gucnjs6fnc7TQUlA1TtOG1Vhy/esH/AJeqyP8HZLShzQfLSWTlVYi55mCmc+dPGOvUukGqk1z0vLqTqhmR58xc1l8vl1QPaNUg5Uq0KxuBYXqqay86TuizRykCl6qDq3abC3sqqbfALFTGUJBL+7/Oi0dYP0dRdvkRLl0v7aBcGmTGb0+fp1POvQMd6FNpdV0PqhuvEsKJZ2xZ0ZUJ5fjiBc+ZwsezS+uyidp0tH4509lZ/QhZ0QrvTec5nACXnaWYx9s8NDevhuCjKLXia/+br6NgA/Xm/HP58fHi6X69v3/jYdjy438fnDvw==);lineShape=1;strokeColor=default;" vertex="1" parent="1">
                    <mxGeometry x="504.3538380470154" y="475.0907412523202" width="124.56073225278169" height="28.727976852724396" as="geometry"/>
                </mxCell>
                <mxCell id="56" value="" style="shape=stencil(7VrLchs3EPwaXqcADJ5nx/kPV1m2WJYllywn8d97YBaWiwa3FeeUg28UNb07mEfPAzzpm6/3777cnYL7+vL89Onu7/P7l/uT/nEK4fx4f/d8frFPJ3170jcfnp7vPj4/fXt8f/n7y7su2T99fvqrP+GfC641aaWjgvt++SaI+p9f/HmRfzg/zvI5TfJRWibyVVqb5IukQuWdn+S9E18JIEuuMyBIdQSQxOUZkLhKKqozoEoKBODFgU09ValWibNRQxIlh65JMrzB7MzeECTOh9YgifitNHGzWTWLawRgRpytpG2c6jbAS4FIMscRlXKRMp8hZlFy6KyS5tiLbTziJiCZEedDJ3tEJIA4bLIBynjnTYApAMGXvWQlAJU250NO0ohKWqXOZyhOAnmDqlTI0ChK8iE08bOni8UveYNRRJo9XTnJBCdxPnQPeOI4nzEfLKUKOYPXccQBsKSNDOAwvI0WMjlDRSMZ7yQinyXMbmtFHCGZKCXM8lUCkQ/I253JSfI4zB17Pks2J87heZXEqQVlRAc0Qhdu8NvOw55kmhed9a9RKrG/MTTEqD2B2jNA1hTK8QHz2LIsEorXQc+bPCcKHfG+k+fxAzXKaCIR/U3biPKePh/smRutUAntafKVUS/Gf38+iZ88tN3TItE/DzrYyWeiT5YS0f4sPrM0RflK/LuxwSYfaBNSsI8qSstAXqrAVnmOzgvxWYbHj+w5n7c6Wu3Tko9xMOqBvM72qZk2phsbbPKNV25xwJ9K+Xz77yZvDE/zqwGfR9pv5YXPzT6kgNXBHnt5Yk8reBDQbWsUbgOseyu/YiFruyFEDeAIJVqVBw5tQQrvI4BUDBBJEhugLIBEotrKRkgIaKxs+NE1/Esr9cIEfojjnUcAtFIaXH/4hgXAPG0AqE19CONn8Etzw4K1+8EjIDKV3EiuHYDNN94mgQWgHBAKHpp52obElhAQWItpLWtFP7BDdwD4IfI2uS6hoZSE+6EXAO262kIzYRj6yHF+yelIVDLA+gbWSPXgW1mD50NyeOjA8wEdp2PrcZii8IbIm0c/3LQLjfwKzSwpqlwlqJ99/uCOQ7ovY2o7AuDIxVdBvwzw5cYMVQjdWwWCrYgNOZ6VLF0KitVVlg8e1yg2dgWi0soBRlS0bcNysi30jtqe2c3eOepnv3BMo06wpy1zbyWR6nCu6MlG5zQPc2AbS5uDuQv6tpr4sgL7thoop4alj28095fFg82Bhcr/ngN/z4FX+f/fHBhAH15o0tg67fKF6ZPQX313SAkOd42JtmmKhNj5hOYXdhNKS0YQD13gFrFH+kCFiTSeE14dtG1SPYgHLKqB7sXaiMbdns6zehGwPzODskHWJ5x8bXJnlx+9x4Rlr4U0o2jFolq4j60KK5BupkZVi4El61lV0ophlPn6JCrGUeZXE7FiQ5caJaKkC8Byj9+WQOonT+f3HHDQjIU21jmPq44NoLSZMG6Gy49oTSTLhoj9k2ZKd6ViP6HcD32NPBOepRRbTNU4NN4AfG6sSwkJvGWxhITwtsGQ1di2LNP7lSm7lFW8FzNaYFZqix8aZe1OolCW+aVvGQyxBcboU4/kYQHh6eKoba+/yrOuy+TbrA/vKvpcUkBemf4Vb9B4l3YdY67ybCro1/qoD5VveN3jaBUx+Yj6vPKzBFjnOLqRMvmK9md83Rr6y9NhdzdVXQFs0/Iffofxirx9uP7o48P54eHym5H9//FHIvbV5Qcm+vYH);lineShape=1;strokeColor=default;" vertex="1" parent="1">
                    <mxGeometry x="512.9622048639303" y="496.24631098290934" width="151.80211065099707" height="93.46922028443373" as="geometry"/>
                </mxCell>
                <mxCell id="57" value="" style="shape=stencil(7VrLchw3DPwaXVl8gsTZSf7DVZZjVRzLJTuvvw8YFXeHjdle+5gq36RZ9gxJgA2gwYfy5suHt58fH3L88vXl+bfHv57eff3wUH56yPnp04fHl6ev9tdD+fmhvHn//PL468vzH5/evf7/+e0cOf/6/fnP+Ya/X3GqoaWJyvGf1ycxaP/vwS+v4z8+fTqOl9DLNj6FrmR8Cbq/PwdJZHwMY2zjS6hye/zoQWQbX0NpZHwNKW7jWyiVjI+h7POR9eB0fJdQ9/f30CIZn0Oq2/gROpmP2Ov28SmuFZ0DcqhtB5jFiAVaDynvADNBIYAUGgAatUFtoe97lDo1ctGgugN0veIcYE6we6m5XSJTsl0HtzM/6sTO9nMEvzbLkC/YjNvuqCWGSk6abWLbF10KPToph7xva5EwyJQ05N2VagyZrFmC7p5UC/XVFtK+RdVci6zY3tb3oxlDI+NzGPv7m5ENcdSMjt34fBJSnUTKFSnIPn+xg0O4MYe4z0eMPDIbrzDeLEjWW9dsL1SUqD9IyPv8e11kds6NGDqM/Abbz4gG67YAsmAjHvCgkbgF2tqQC6Aso58DLh5wAdQg/BgjX7egZErmFQmmZN8kZGfHIMOixzLMOaCFunPX0FCI3Yypxr5oi7qZrMGYquzcpSlE4nnFjmZBgDCGb8hdmukulR5KRgALtMWxnQE6cY1qS2wIYMen1hXEjgDCp1XWEo8AYulqzqcOwEMzHGkDCANclngAZLKtrSJpT0uTXWoS2kBAYvnIWEHp4K2F0GrTEOFMK+Vh+4LAER0ry7qVIkFSO9NQvoYIXxB6pi3SQFprNDOIt1qaB5a2LySyaKmO+WTFr3OAYCJpi2bhRyynEgQMsksWnrKgHQr5Qi+YSBqAnQcLULhoXTxyDhiYAxhgsJiYMOgqT6osQGlEQGcVjKyYeTxArIQZKxocAI3XYNGxN+OlydUAyLQCmD8nBLBkeJK7Y75GtlVdcjjpnriG/ayOKpVY2irbCJa2J7wUhnzPnjDXmBMoCGB10lxiQwCj+7mJCQGd2yE7AHWNhIWV8iRdXTU5AcyXzPv9F8iZnhKD26XBDxDQjFYasiaTNgfgqgRmZHWt6hyQXRStNJU2XgL21hYiI7K4VIIDgCW6M5eHNfByoHeMD9pDZfGhOfceK0e7GR8SApj20b1764pJt+SYoghgNZwBMIVTyhoGwMx40Pggl008AO5MabgvMG+VgeqKGY4dUQOAcqAX258D1NG9Acgu9ehIYCy2vQWABMsArAYyAGhQypNEy2ZAbtBBywEDYEDh9b1NCXNv5VOKrmhSqt6aHboggFpanXgYI+UZ843qDgTjGXNXjIpKpTq5KLDHbeIHIrsvZEIb4lQEHdy/u8t/xr0pYUQZ95Jv0CnmgWBruOjOxyPHtlVRGddO+V6cijtpg+ySuSumAoOKAvOMOiardw719wLwQHAN0SIKnlGhlu6+oG6c+sQd6sZbFH2Fg0PuwMQZK4JAutZC5XfLHbx0QgE+nclUwjpJmDLv41hK5uSfQgxnSZ+4KbHsxNJK8TUNT75/FEH5RxH0/yiCpns7OzC9aOiK+0dLs6qpL+//RnVztBPBtbIyq7iULC//vUVkyHyJCn3GrRhQEi3krKbx6iZL77t378hFsoh6kVmGnemZa3j9lGUzDWuaq+1viZWoqg3a6ZN40kRh4r243p0FABZFZ5s845RYbWkAVDctSbwD8MogA/iSPXFZWlGWvgpzN6V13xNhX5A1429k71Zd9Vpost6SO0CVVuCzJ+KUEBanZ9elIKCwL1SX6FYqGtfs2PvOGnwxyvWi4pOTQoum4tMfHhRLdSpCoY2gklYuf/AlIbuUff2QePteXIViFTPrpNYTbo2sk+qcz0iA3YZKl/L5yEuEZpLTWoyXGll0ag7QaA2UCrZex51rI+7awki0xaGo/nRdznUegDDjsyDJel8VqXuWRKzDjgFx3qliC0avmJUssVlcrYzLeKFpesS8Z14DIZQXsV0pvGMUMU1qnR6DhOJEK9RH3Y20xvutBdNnY1hlzVA895XfL+voD4XnLymiQxSh91hSxQypFHqnLrmWdOZTmleVdp+Yl6kYOXbUGTJvOZTippSokmGbCBfYEue66oSJJPwiYVz8fwHUVcDezC72RadM7xJYhiRwkTDSECLu9iq/KdOT4zreA2moAcgK1OfjFXWPRi8RGpVDK7fSSy9DsMrjN9J85zevHb5ZzbvbwMSt9XKJYY2PXF4YqHhESnVTdsXbzKwLMHsvBcez+Sh6aKSi6mwGDRzPynjFWBzp9TUbP3D+rMS+SuvX8SyTPYj3VwBjlVMAq+yu/YTreGEequjRkScrir3bSOvA774Pf3e8/XG9fP/+6ePH17v7x9/xsr49er3oX37+Fw==);lineShape=1;strokeColor=default;" vertex="1" parent="1">
                    <mxGeometry x="20.328422003588912" y="537.5730754648937" width="150.09167394534484" height="277.09843777208175" as="geometry"/>
                </mxCell>
                <mxCell id="58" value="" style="shape=stencil(lVjLUhtBDPwaX1Wa0TzPhPwHVZjgCsGUIa+/jzauGSztuiluZplejaRWS9qd3Lw+3r3sd5Ff307H7/vfh/u3x5182cV4eH7cnw5v+msntzu5eTie9t9Ox5/P9+e/X+6Wk8uvH8dfyxv+nHGJelhAkf+eHwSK5f+Dr+fjT4fni+ONij1eKLfrx0Ok2O3rmQS8P8z3TYBQAwC9b8kWUEkyAFTKFhCZulwHSKJgfdCgRQBIeqVoAZU6A0CnmAxAwniyCciVWCwgUQJRKomys1BH4jcBNVCqBpB4eLUNqNSshSTEwIcmlCyVknIRARoF63QqFEGme6bofGiUOiAfMzEbRBbqIK69UbV0LYEaMNHTqoAyTHXr48oT0CgCMrU4wj4ANVICFjRzYuNaE9UKAJFqsQDlI2JfHSU8AZ0ERKmoBetDC9RBqrUgqi25poEGwpTjuMAEqC4AfqdKxVKjq5KBKKU4VGUCIjWQuKWErdO9DzpuA4SEPaACp0Wp4bTynfHbCKYWvIkCyBS7T8RSIgjQqNkK6hVyQwHJeZ0/siDOB4FkWprcKnMRiKU6Lc5ppgoAGlZ3JS3zggCBMnsAI0AcJTwBjTrihsakeguoIJSuvXunM0ic5BGTi7AyyIMUYnslTRwSpgXg8pApI8D89wX5kBpL8mHtkyzXwlpXNYomJk2ca7wK6CisYXDzAtBQ4niI9QUgABFQervGq1FqwActoOzyUAbhrwHcmKh9MuMSTU41IqSG+uCkrwcKyIc+NOKiHjoI66cBylbX2Vsek+Z2R2GvfNrrkd7rQFWcBR7T8rVBtFjyaWdHupRX60NNEFBW5KsBzpXLeOQmrDbGj+3phP38UwpcOZYbW7aWqYXbgL6yEOCw0YrPg84raBBVnXMNRQGCLTQ3uKZBlm1AGN1gAiJlFKXiyZcZSqXmIViAjlDIgkbdqbfytwIfch5Rn4AAtyC9gBtcpWExViW19aAdo6B5abXvLnqOVENL3haQ6kgEgND8RKavQGHV/dkV0LIyo43DN6AwF4TtqPotS5d+xFX2LbRAEZvfCybvYDtcsS7D3rZa+NLoddeOOwJRALFnz4YIS0bF2b5d6QwuE4btcZyhMAZP/nm7bWYO3r4fZzTo+Lh/sFh4EjCcsJPf1hhOXZ/8qPXhcf3x/v3s4fD0dP78dvl//71NH52/1cntPw==);lineShape=1;strokeColor=default;" vertex="1" parent="1">
                    <mxGeometry x="95.3001202563205" y="775.3067543391435" width="59.83909504594999" height="42.12995755689553" as="geometry"/>
                </mxCell>
                <mxCell id="59" value="" style="shape=stencil(7Vnbbls3EPwavS64JJeX5zT9jwBxaqGuHThum/x9lxB4fDhHGqEvLQr0TZZ3RHIvs7PkKX349vjp68Mphm9vry+/Pvx5/vz2eEo/nWI8Pz8+vJ7f/NMpfTylD19eXh9+eX35/fnz5e+vn4bl+PTbyx/jF75fcLGI9oGK4cflm5rELt/8fAE8nZ/3ABOrK6BJbxQQVkBLopUAslhcAUV6IYAkbT1Dj1IiXSHoCigSGSBJaQiomQJyXgFVjAGitPXQvUlkcVBpGQGdrRDEygrokolbtUs4ABrxklbJ6xk0BAmBIGx6cbcESybNohEBlQE8EwwBifhVVbKiX5sRQJDcEcDy208IR9j8dsO+wgkKze4682azT5JIEEzS+vuj3Egi+a+t+6+d14JYWu2dc4i9J3ZY7SOP2MziaV+alMTsdeWjEicHXrXfUnjam5cySbkwT7fZJ4kkgTy9Vv/kLpGldBMzBASygK9QFQFFSYQ71oCFyQVXAWPHhxWM5Kg1DFqu0sihS8G2k21SwfUqSMheOUgnaeFtDLpIMkrZLUpftxQ5F7WMZxh9hWVGnsyzEWqlgXNAWs+g2yavAxRX8NATrqi+wOrVJoHUjpdWb2hPfGqGZOHJTvbjSQB91unYSJRTxk4+WgpJ7RSRLhxQSQyGBzMCGuNHlxIFAVQr5EOfTbRFOQUXWCHyLakUOLTSxHMAcJLHgcoX53RosxJI3IbGA9kpnR25SGhgz8LseVbWyimz7V5PC8Uob1G8lXcBuqBEktipzH/vCofZV6mgKkSZvRPwuh8PWCJM4YAIOaTTZbd2BD1hcBHrOnYlrTs7Q5ptb1847AwB2eteadapJHaAwocdPWyJtamYDvSSaGJ4pfWDWxmlDn0EPSFIZaWmc9ra9QQ+60QY8Kh+cR+BQK2S7thjKTP7kXjr/tOUM9d7SMUepVTsuPzra1IEqveLy3sDe1bKLo8T2iuXFSCYlepZH457Bv+wIugb0777n8mc3nGo8wxl1LKbEnc6p5Kq8SVgqvOeyHzkAGgHsdJB0w8Nh3DGZ1NOt9kgd/IxkzLzMEBHc4ql8tH9unopKz1DM+lroblcinfUIIwiPsoyzayH2Yizl+t+g+HIGx1ZYaj81UtefoVNp3EOu3sAY2CXLopbunMHAa3WVasSglGb6b8BOvXSuBZZ07sY7eZaprjZSlRpATkAa9r4kF1RpI5rP7ZCQ6Ht89Kd6yZobK3Mm8NbgUtwebTJ1v9v8f7hW7zDHdu/f4t3CMR/6hbvfX7aAMadGqYLd7fgjO3dqXq4+MvMRwfh4CVd2QppHnFHGncAUA41cemQ8XGhRsoBQ78bAgInb+hYVakcdmqFSbKG2YdvMWXICGBDhpe0BQSwS48YUAjUjUZu8RiUjwPYeOtMCVeM7iXWE12v1Y6AwuYem89Su8BFtkJB4nMAu2L8+09h9wH+4f3l7cv56enycLf/P77U+VeXV7708S8=);lineShape=1;strokeColor=default;" vertex="1" parent="1">
                    <mxGeometry x="44.09717483315342" y="512.1247097237647" width="34.49075269847822" height="71.95542442704482" as="geometry"/>
                </mxCell>
                <mxCell id="60" value="" style="shape=stencil(fZbdcgIhDIWfZm8zQAg/17Z9j85U606tdqz9e/tmZ0c0uJ47xP0I5JwEBl59bp8/1kNwn6fj4W39M76ctgM/DCGM++36OJ50NPDjwKvN4bh+PR6+9i/z74/n6ctp9H74nlb4nbmSKZeJCu5vngmZ6jzzNAO7cX8FVKEsBuBKrgKg9oAE8gkCbLeUhEoEQKSUDZDLeWYRKIl8MEDRmHwfyBrBG6Amyu4+kDxxMoB3jhwgYu7TVAsVkFcWCs4CTBEoF4RctKeOxHIf8IXYpikHikAIf+MNUW94AGSSaoAoFIE3AlOyeWU+p2E5S9yfQZcQILVuQOwZdJNoS9Ls3wA5u2XZTIHECqeJ9kDpSaauRiNVcAY1QhdBzeLBli5WazpkSsBLV25uRaqWRyFawTQzRRIQYirJzq5atkBqLfouwqUxLBepthWb10vrWZY6UOAeyKCCtDV625mm9gmUC4Wc3VLJMMIE1BsA2FW9JraVlQB7n3c9oMKhCLEvIM1zBPZ25/umNQ1tVEC2G+fFCC8g398O2hNQuQlVu752DBfA+q0ptnqO5JFmeuIuo9DY7KjY71UxdJV4EntifPWorW++R/dC4t7V3DlIB5cHx2bc7eb3yvX//QNFp+bHDT/+Aw==);lineShape=1;strokeColor=default;" vertex="1" parent="1">
                    <mxGeometry x="46.86796084247578" y="607.8753124585191" width="4.672539772115329" height="4.665236216357698" as="geometry"/>
                </mxCell>
                <mxCell id="61" value="" style="shape=stencil(5VjLThtBEPwaX1szPe8zIf+BhAlWCEYG8vj71MaZ9U6vXYhTkHIzxuXtV1VXexOunu9vnrYbdc8vh/3X7Y/d7cv9JnzaqO4e77eH3QtebcL1Jlzd7Q/bL4f96+Pt8e+nm+mT06tv++/TN/w84rxKSxNK3a+/7wRp7c87n4+Ah93jEhAk5wGgSWIkgCRBB0CI4higSCgDIKokRwBNUhsAyUnTywD1UusIaD3I84AgdUw6F3EkJC0WUKrkdBkQvJQ4AGruWZ0HBEl+BDTRTACo+hhS8+I8BfixD02lshxQpTGHFnnSQdzYuJYlBFqlZkIqUioBOElhBFRpJGmtUs0TmuRCO+3GWfLO8dlIvU+LR1TSakxfUgsIpK6Yb0NqZB1ZSM6SGnX1nHLFhJR6pc8Dsvix1VUlMoBaUoNyiXTOo9Vj0hOpCaBaxiUvnuhSkmp0DEJFapSkuZVQspp62wRoLR0k3/89C6U0RobQ+T4/gH5/jKJjxnywU+q6fvr+RAqaszQzdeJJ/AXEGUcCDwhE8qrrvFqsHgrAlI5yEQuVi+YkjnKRZyE/D4idufNicL3K50NC08aQUIZGiAOAkbwSRBkPopU8hFRJn1ElM9kZokqSxmaK4yCBy5XkgEXjkwUkMhooqyEnQlLWh9K5PgMgaazT1XqG4vuOPw9odhuWKJGoNgDNNK7QxgFgciiNh1SsREKEPRk+iHoYQ8J0FZaD9iLOgEgbh9EwG30CMD5AdKsNiT4BqmFy4I2bUlyVlenYRFFj9vJbT1DDuEjXLWoSTEi+t/KikBnDCg6yKtWe4oJALCSYRzUATBcxSi1YtQeAuXR4wRhsDmxBg6JhRVHHVAPWbpxWSCUr68LaLVqt7Fx6N6KsxBIykNlajNY3YLEyoYG8m9MhYeRJSDn1vTyvRUcHPK9sN4y4JyHBOpiQVPv1cd6bVLshcDYyP4mIo7MAz+4lNG7sg680aURcxirpTNtLrtswAvaEmejpEDCXMc4fBkjWbaDQgZ0aGDWzR7ng4yJTQ6Hanf6HultJHz7o3WpC+k/u1myz/rd3K57gx3FtmcoGDt086gxWayRrDoduMWYASsZsn72yslKKZjsZKVKGRmt/Iu5Wpnv28yHTI8vb+DVT5V4tUJ/onOLzY744o1kDVtsQhzijmu9X/4k41B5qV9zTlcvaG1YOmtoqkNKMG7U8WYqxqp1yF34jCTYYepH0QTx9nAkvCtdsaZgPmRpjNMv3JX2JW9m4BKXW6P0/h78NwIvTr+93u4eH44/3y//bX+vx1vGX/nD9Gw==);lineShape=1;strokeColor=default;" vertex="1" parent="1">
                    <mxGeometry x="88.8686497202134" y="92.26601614461902" width="32.91031997553705" height="32.661190191046444" as="geometry"/>
                </mxCell>
                <mxCell id="62" value="" style="shape=stencil(3VhJUhtBEHyNrhW9L2eM/0EEwiiMESHw9nvnWNHDVI2UWIQv9k0Mnd21ZFZV9yZePd/fPG03wT2/HPaft993ty/3m/hhE8Lu8X572L3g1yZeb+LV3f6w/XTYf328Pf79dDOtnH592X+bdvhxxMUioUyo4H4ev/gqPvz+8vEIeNg9LgChSXAW0BwB+LHfAGALV84DsF/KChC71E4A8KEpQOpSiA8AFG1S7hKJSfDBeQUoXVoigC4pKUBFWON5QGySdVhrG5k5CUhZatQABLoSwMqk3KSTKGUnvdiwMmpkL1GHFYlLngOqpkaXzAEm075JzByguTTRmwOyjpJPw6vTgDCYMwO8FHZClKKdBveYz1mSYYYkZlC1eS7iiT5B/dI1L+j+xUu/aH2ScIk9ZaVmOESUU5rVZqcJK3O4lwkjwqluKHdJCSJ+AJI5oVJp1ihNsxQxYtJEbTAA1I9OTmjZBglEbwTQ3RDinLUkqRFAtdUCRiZ2wqoeNeSBnOCdE6eVALeYdHBEMYA2rDwNQM012gzjy2kAuKy97kkaC1OUpNWDLTJJ9ZQIzT5E2hFAq5JXJzBBtGQFDR9YFW7R5qF7qSSsSGzzNg+RRAmArPMAIyspGg1p0j40T3sVfOirfuuY0yhLpt9mblIXZwCJFkpQzWi08tYzUa1akxIxCcyJxmmQhekBPhiNgo6kuQHQ9QiAxDmmh3mOmgFVKlNcs1wC+QLpD2B/1ycgbqwB9TlNCwE5Mn/CgLwCdEbvNoK4ABRyAupcM4rL1GnQO+smCnaxsF4MqGWlaTdEexrgR2FczNCMrRgEnK6tGG3odIjirk1KcWjw3ChmALiadNLZ3zVOrmeH/32c1Gn+++NkvMCe94yTzsbzHxsn3Wiuy1sSBxhaw+lC+sLkg654yVEdTFI3rIiUpqXae1jJ4x5xjhfmTo9mmJn450eFuYAV2qogTXORQRFmd/oURnOd8/A6wp5+BVhlDv2RVeHpYcLYBCcIAOQ00yGakSNxjeN+vQgrS9xqRi9OOgmSG611ZlKlo2GwvIiRJqHaVus77Qk+j/LwWo8qYTYOiNoBR+tLzPYC8AYlqr1huLcekmo269lsPgnXFAv6spW8bVBcyBBBCCaeTGVYX80UTF8Lsd6ORnTwx3oTf0iClS44bOqE51NFmgO+KPCsmk6vZKYjZHr9ByfM5cUXmuSLX3n/AIAfr4/Kd7uHh+Ob9PL/9hEan44P2PH6Fw==);lineShape=1;strokeColor=default;" vertex="1" parent="1">
                    <mxGeometry x="119.50336637221176" y="84.77802996843229" width="32.05017579031983" height="25.951459384199325" as="geometry"/>
                </mxCell>
                <mxCell id="63" value="" style="shape=stencil(7VnbclQ5DPyaeVXZlnx75vIfVBHIFCGhQoDdv195p3wYyed0KrxB8TbJWGNL6pZa9olffb199+XmlMLXp8eHTzc/zu+fbk/8+pTS+f725vH8pJ9O/ObErz48PN58fHz4dv/+8veXd2Pl+PT54fv4hX8udjFS6cMqhX8v/5FKHP//z9uLwd35/togUajGIAvVAAyEUjMGJVNowKBREGNQhXo+NkiRcjIGTSgDg1gpWYMe5p77Bjxjsu2gcQM7dGLnQqQIfM6Usg1qpwKyoEkoNmu6I0hCIAl2faBY0fpg1zPPkO0HiJI9TxJqYH2mbEEUy4zYEeqaMwhzyyNMVIu6SgIc5uBhXeYP7K9v1K3HbZ5wd72UiZfNgUqhgwgFqhZCukMEkMvRh4gFupwTdUf9TMLAgCmzRSnjHZSGdoeszAMwHaXE8kx5EAAP1EDskYrGDYWVqbo8JxIU1rQYMDVE5Uiy1jvgg1K3LwYIe9KILZZKoQjYpuCrwRugeqdAiMkfKaMd2LeRIrCASaIcfVhRBRAtuC7TCni0Q1x8CJBx6oNLnIKlI07H+fVGIM0D8iF5tLIyDvkgfoek4ANoVSy5RhJxHpRAzeahzlaxu74sRSNRBOtrIrZB3VrL7vrGvrMxJE+r1IM7fwVA7aoV7PqI6dzFqxH1oCCD4nvnOBJARa+eClq4C8Bdb74OS4TNsHfffEbhBllQg76yE7SGGBbFoIoHAW+cyUK7aiKQE80XsZphy9W4RgvVWmGp73lqqM2gQXp29jpSDQryIS5HalAXtu6Fm/oA+bCK5zz19xGB0pKHCHxQg2jBVAM1UFfVwHefNrvFkQ/N1gBtVw3BNfgBQNuVoCqQfBUY7QpXgdxeZFAol+VIyIfmsaROVwTvBRrlGfB1L1lH4hAf+vz6GhqgCqhBcPBW8OHS50RuLVMMHVHU+9AgWpWi/aUU9U43iCWlaHcGeNRQeMtC0Y564la2rkslZlx0TR2Pq79k4NQYQ4GoBq4/ZMF1KXtVPDQmCiv7mZITVGNVE2d9SLhladQdWlVcoQ40ZLnlg465BRBIJW1YjlSRfKt+OtEpEUmBrGG1PnCZ8uPIoCwiFyXutxn6ADT+Dn3zSH/80Bf8vKGAD6DycadsCaSBFrADNy9OuEKnlZAOS+NuCe0QPON+3n7tX46JP9KY4tClb/VTov4EAp8OVeKcVoqiK9lNdG4GDd/him9ZA7+g8mnpbTZxWkcYXyGGhQ9I86W8NPaCL64XTo++CkrlGM4tH1RnNjSXVZ/pq0lt3yL60qdiGU6jlCz4msBRMU8pf3W7j0agROxKcZwt7OAqujihkeeEc3R1vTyAoFIf/YWG4Aa6xFNxmuDVvkuxCCzb22B+pZPQ84rMkXZbv13RHOSruPVxXgHtaxg/vI31SBn6mUHPg/CgeGO/viLehxnuayGJaldYlOczL1xL85dtTDkyeOGj2/MG+uHnG9+H893d5Ynw+nv/Jqj/urwn8pv/AA==);lineShape=1;strokeColor=default;" vertex="1" parent="1">
                    <mxGeometry x="154.2405801325183" y="68.48760315521577" width="42.49472365835072" height="38.89621137650988" as="geometry"/>
                </mxCell>
                <mxCell id="64" value="" style="shape=stencil(lVjLchpBDPwarqoZzUs6O85/uMo4UCHgwuT19xGhZs1o2aa4rdfbjKRWt7S7Sk8fm5f39YrDx+l4+L7+vX09bVbpy4p5u9+sj9uTXa3S8yo9vR2O62/Hw8/96+Xv95fzk+erH4df51/4c8ExE+czisPfy50YKIf/d75eALvtfgTkNAKUEgIkqmUAcCNNy4AkVMcTUqAUlwGFewATIJLwMqAWatmH1ACgRX9CbBQBoLTZCRHmkCtV9iGFDACBWMekhVoDZW2UxpCyUFAI4DYAaqAAmM6J2sh0VcogpJIpjyE1KwMIqRWqMgKEFIQkgepIXFMqCJBJx7JKpAh4EKE0hiTW8ACgpq+RaanUKgTomIPdiQAg2n9vAiTKAgBTM0+ASgnwYCm61lChAkIymhwPakGCkJoVMXqAIk0LSfQhKWi+mqm5kExxQKI1Uht9SXMvw22ASdSdECmgHAwwEmfMVBySul7KkDhzvjCGZO3dgB5MwdEpTqG3ttyLeC3RAgDqQ2rTmUvN56zSVH6nvZPTNHcqlwSkYw4yGc+iRF1ICpnWaaJNrWFzFTBtNhNHb9VCGUk0U3UmgMeuFZGdCSg8wczYmUAMeECcEfIQwuaozHwjg8Jm9iPFrAzNUdbupVfUFXCCTX7fHAFSp/38aSra3AWCqL6spVABGbQ+Y6e5bhIEzRqjX/kSww3OMnYTiwMcoiy+98wCwHTIluAoUMY+yRTH53EXGUEtuucFGLcpxe240jm/XaDPLr5a9wREZOKdcxCx/v1SrL3IS7bqViVbMRno3+ahc5gSepC3WVO/7hkgocW+ks420AoAVkSnTesURklTGYtkW3IARIcZCwFKc0bznXef4Pv0zsuVycpZS1+bbvcdZbdvwzblLsKJL+hbuY/tqZjE4PHmJ1qihDRG4iWPplNkKuWR5wvF9EA4Z4+TB7KN6l0XF9Oo1fH373A13+xgK9x+j0cH3H/xt4vPzwZv293u8tXh+v/+M4PdunyiSM//AA==);lineShape=1;strokeColor=default;" vertex="1" parent="1">
                    <mxGeometry x="200.77251804929665" y="70.9737935385881" width="19.85809589717951" height="29.08486572863012" as="geometry"/>
                </mxCell>
                <mxCell id="65" value="" style="shape=stencil(lVjbcttACP0avzLL3nlO0//ITJzaUzfOOEkvf19UzzoCSaftm6NwtHCAA6tduns9PLzsdzG8vl3OX/c/jo9vh136tIvx+HzYX45v+muX7nfp7ul82X+5nN+fH69/vzxMltOvb+fv0xt+XnEtEacJFcOv6xOOJP3Pk89XwOn4PAPURC1aQKIMACVSDBZQiWUbkDNxN4AYqIATciApFtCoIoBQt4AUIKAGyg6QSdI2oDF1G4M6mcI2oGuIzQIKhQgAQoENoDBVQKsUajYPlSlUAOie1haIeRvAIVCwR7Q+qmX9CKFsg+iVKjhCo5ZsABpWbyAR1adawyoFpDqO993K9SOs9Wqq1GwLaVgCotZiE3uENMogddwpuagTBRBEoWx7tLfxZNVeY3b2WizAIQ2gWvtEJSP7YP3XchdAqdaZq7w+nqwTRFGsfRnttJ4Bz6fKYAb+Vwo2YdrfAt4vXvLUPgG5UM11CVMAkjwulJxHEXY/N2qO0gz7gIWSc6mOrG8BxAUtVAFJCsi2b3qkhGMQK6o9j+7eYqlallReGqI1UnOABqeheNXuHSa6LvSuwUZLVKMPICMJHqN4xlACDAWKLgU6uMD7lwIvcIaE8bZZEaEUR8+nVmlAywWx80dLCNirjLjG5zHZ1/nUvq0LAFAuzkNIZh5F1PrZd8FfAIkXWiFQfPNi3Ex9Bhqz3DifyTvaRWqj6OYBw8b8UIaZS0iAFeD1LsN9aqozq3dVxQBUalU1sjGUPqbiOoD9CcpbBC7pIpzdiidjS1xP3G1ozHbCiLpHxhZ7W1MFsqT95jRbd5MIEqeC5Ca5voLRCbqJW5b0utDACan4+wUe/bkRW1YTXFLrIuQAFXISlOTs0TaodcnV2SN/dFMRdvZo8rfmq4jhRJg2cOuPaiwo66k1xfGJFmzd5KLNV4HiovZur6j4JiWLoT8I2LKPlk+Bq6by43Y71XxGBN1uKLMbM5pR7XZVnAEaStn/3sn/AaA/Pj4BPB1Pp+sXhPn//ScDfXT93JDufwM=);lineShape=1;strokeColor=default;" vertex="1" parent="1">
                    <mxGeometry x="218.9115509834046" y="71.79586681476098" width="28.996831519987836" height="33.95594659500148" as="geometry"/>
                </mxCell>
                <mxCell id="66" value="" style="shape=stencil(7VnLchtHDPwaXlEzwDzPtvMfrrIcsaJILlnx4+/TW9Qsd7DLTnR0lW8SOc0dvBoN7Mnefb3/+OXupOHry/PTX3ffz59e7k/2/qR6fry/ez6/4K+TfTjZu89Pz3d/Pj/98/jp8v+Xj8vJ5a+/n74tv/DjgrMsKS0oDT9fP4kSLp/8cQE8nB9nQLcZUMQKARTpbQKkKMkIoEnRGVCkxtsA/J7OT8hRSieAJHG2IeOSxOhUxfIEKCoh3wbkILXOgCotEICNCwxAtWHVMQBXCjOgSSZPKEFSnwDNpBGji0me49CqdOLW0kRnG7qN2B8DusTZSz1LIJEGoAQPoDYAUGYAcol5qftI9yqZRBpGlzn5ehMj6Y1EKHMcepfArlQkZQ94jcwxYHXiBtBIiSLSaY5DDIHfKUpX/4jOrA4HRhRWQd3XKACRZF9uoyI3gcjEalSQow2EupHsA6tkl0xRInnCQhuu5Ap1a1LJcyAa4kCMNjxhBlRwG7EB7O54BgkciA0Kdp+9BOpjxKRr/9iQKyOmiBKevQRHv1p1DIij4WwahBIWQMXNqbR0IBY334DgZtYT1ZOMqVQStSBlrk/NI9lv/L7L7FhpQ4RD5/tHo/W/OHSOQAySSYwjSnG+Ea8cfK2zh7JUwmAQGc2JDMouCT83/74ORjt2EPw995HVA8fslXyZhcH6xwmH+Gd33kgCtTQq5Hqe8UQ3L8Ii7ZsbOl+reBTd8QPyriOYVGJBD+PrTY4GEmIQm84mIGbMR+AppyNhg7IqQB92ZYaGwFRe9zyh6JskzNZ3RMHzYs9EADBZ2Ab7b8+zrik57i7ECm201I3FTAjviAI3ZB4KvsXCA6wn79IUMWbtLPiOvHA3Iy7pLiWMzyK78zpU9HGSjhRez+OJJF7I6eLPN976nIjHhZRRu/neBJsC81AWzd6lrLnGMn5v081Yzh0A6luv1Gj/PjC68yvt3Iq6SYywpVd/vjH566cKnK8kL3Z5h/OM63ZyHAYryaN93TTK1kd1manC8XWPjst5xZ23oWH+J2/pUAC3eDH48yzldry71CXNh7edx9dVdwASMDOvWBYAW4qoxOYBdOACL7juF0ZUbs2ATnTFNuruWBWFMUmvgEx1cu3+SijUwtpl8iqk0kVQNd+PubDGKK5u6ULpHSOmG23akP63FIjrH+AtkhUpjOtuHMSmOdsFOSpV4qjzNCdqTFQqQ/a5UsYnTLtfheW2ZzKusKHiNv2jsqaZ/VRtiarfuJLhCuh8SI5+vklGGw4IyWnTxFsa+N8ZnbkgX/a08xNyp3vatDLWOiLksZ67td1w9V8jJflsXi7XSrcbyw5oBjTlWybb7U/q7w3kL7KBdKzxewN5AFhV1zaZSCCyDlZZAWGk160O5CbIlunEmYp/AiZ75lYIkz7bUDMdMMC9zb1L6fRKywupOXAl0cCZ+jEMoWRjOdg4OnI1uuNEh3JqLPH3QWgQzq2LoGMdJe1GmCKFSdDkd3gGFc6foLshhqX3dRbf7lPYlWB09ABlXioH+wgmmK7rhw1ASWos+43qAWxysP1eq9FXhfB63j2BGY1sbcEDGBvbuv3duJVxqx0FjuluiA11gimM15O3AG9+7fxfAPxxfcv9+fzwcHlJvv3evxXHR5c36vbhXw==);lineShape=1;strokeColor=default;" vertex="1" parent="1">
                    <mxGeometry x="312.7112346980573" y="64.63458270755359" width="34.531678814850466" height="62.10872481078741" as="geometry"/>
                </mxCell>
                <mxCell id="67" value="" style="shape=stencil(nVfZchpBDPwaXlUzI8317Dj/4SrjQIWAC5Pr76MNGYzEbpPkbVnUO2odLc2KH942T6/rVQpvp+Ph8/r79vm0WfGHVUrb/WZ93J70acWPK354ORzXn46Hr/vn8+/Xp8lyevpy+DZ94ccZFxv1MKFS+Hl+kzK1/PvNxzNgt91bQGsGwEwlLANSo8z2hEK9ghM6BQvgQI3BCZFaNwDpVAsAdO9SUQ6ANKtLlnTJVNoyIAuJdakUKoB06T4PCmAQ1iZUqwHkNpycB1TqlkMuJCCsPRKXGwAIaxfKxbsUgUu9UhJLOpIA0r1TTD4PtYNaCoGCjWsNo1qWjqg2c7VQBLXRtb6tTy1SEADQxDpAxgAmiRZQqaLMBYqWdGuwg1qhKh6QEIBH+V9x6Kj6ok91SyMMs4Da/Qm1UgFRUkC01VcTrG8FVKcCFZPWhnCARBmRZmo2D9oQMErFi6u2HKpvzbQLqwIS6lGm7AAVq4D2vGu5gJu6jXFwAQgMq3ZccydoKlE/dK9kVYaTS4DgSqMPfV4SpuiqVVOJXJIRxKsWDUjJFCD/AlCPsxUBzUwBpLU2q83De6BnAZKJswFcqefSaHckNPloaMU0Jv+FdccnDOm9lEYbM2bW/kbt5TIxFuzF+qPLzJ8wzy8CxJZwLGNIzhNm6jZrAfazLl+JnT2KD4uvigzXDOGhDlcEMphuomuGbU6uxIAB6+BwHqn0I8rih5VKWEcbqM4et2bIGJALReQ31gJHj9rb799ZiZmC3RimL0B7t7lNSQYCKdSsfaxDxOc73+8XMUP75vftKFh/fU1HhvGPcYTjbwHsi+6OR0rQCdEdyvFm0N6JabzZnu8kTe9JxWUZV8X/3MTuAfTh/eL3st3tzvfG6//9RVFfnS+Z/PgL);lineShape=1;strokeColor=default;" vertex="1" parent="1">
                    <mxGeometry x="348.0515599642563" y="58.5121582935094" width="27.10272747597969" height="17.362116491001643" as="geometry"/>
                </mxCell>
                <mxCell id="68" value="" style="shape=stencil(lVfLctswDPwaXTEkwec5Tf8jM3FqT10747ivvy9UjWQDlLbuTZG1AbBYLsCBnz72L++7IbiP6+X8dffz8HrdD/xpCOFw2u8uh6s8Dfw88NPb+bL7cjl/P71Of7+/jF+OT9/OP8b/8GvClUo5jKjgfk9vAlOMf998ngDHw+kOkAuVbAG5bQNSJGYNSJTSNiA68kkBOJHL24DQqDgFiIUaSEkSqDpClhpA0dzI6Rpym5NcL5opFAtgB2mtmtacKYRtQPGUqgIk6QwDQKDgNSBQ8QAQbQ2xkq8AUChFDYiUQYTqKeuiYyAGEerCyQLwsIbmqEQbIYMILc4kLoBEHmipCevNstQKADTKWq0Ji08ATas1VXjiWqVq1MpzzHVAJtYs3eS4DgiWVpGjA2qtlaJunMixgANUmWoHqIDW0iiyTYkRIFnXyJIkYKlwZwLLCdk6oiZCajMNW4CqaR3NE/ShLF69iK/BE1e6Tou8M6ihuu7EhVmO64A4a/P+iCJA62wmQJtpUrSJIH3A8m7dfIDnodkJJFaJ5O2dI2daXeY3DyMyHFpCrNeG37DARc5VEyvG4EFO4kNep3SX5fpc7KaWUFfQ5A2Ums3JAfMr1srE0R0QR8eqTLECOiffa46SnAegVrbrUsQ+5h1Fs8w4SiAhyYg1Q36x8/WMOl1Il4FnJGf3AE8eJNQvfFgT/UYpAUGHZQnw0Xyf0A7AlGz+CTlYsvOWIT+1UNANSBSQf8nU0BLCe5j4nZHcTSOPAhgzKhnpjvlE7R8lawmJ5iKqoeN0bBoCdE0TJ/B4NTSqCAzN678vMg8A5OF2b3o7HI/Ttev+d3vPklfTHY2f/wA=);lineShape=1;strokeColor=default;" vertex="1" parent="1">
                    <mxGeometry x="364.3534923258062" y="55.72394661834801" width="21.173132199695374" height="19.218958705141404" as="geometry"/>
                </mxCell>
                <mxCell id="69" value="" style="shape=stencil(lVnZchMxEPwav05JMzqfOf6DKgJxERIqhOvv6cUlsxplO/DmY9vSHN3Tkk/26uvtuy83Jw1fnx4fPt38OL9/uj3Z65Pq+f725vH8hFcne3OyVx8eHm8+Pj58u39/ef/l3fbk9urzw/ftF35ecNGk5A2l4dflEzWx9ueTtxfA3fl+B1CV0GdAlZAIoEmrE8CCdAKwJJpmQJJOtmRNus2ALrkcA5JKnQEpiVUCKJIcACtkAuhS5xhykhaOARlbmutQgmSypZwlzmktRUwJoIrOhatROslS7r4OtUqzYwB27GJoJjESAHrJAarUTgAmWiZATzRL2FKZg+5dCqkDGiHHCRBDkEAQ6LXklsi8v83nFVEnkibt0uY9tSiNcbRIndNUsSXSG+B8n7dUOo1Bo5R5BZSmsRiQxLldc5NIGBS7mGOQSiErAOBWSBAm0t8ApDmGhLSyLAVRnXWm8MJFr5UWadCog4ZZXDOlHL6ODhBHdx2psc1Bx0IpZyrNAZRmCQxqc5aKFLIjUNTcQKE6hlZOc2NwfnboaHPPs5RCIIIjz+j1o+cdO2OSQNi5E5RrxNfOen4JSPc8frCnzGNO8woQHRZ0U89nDNVEtlSy71QMVeYbChTDPICtAH3QOa/phXmVxRYAcybZFj73IZxHQ9rNXGRJCZ8BUAcAGdhUNz9+DAwn9ETQbuai0p2t0PxsACCySqtvPkhCZYTOw+nsAI0N6T74sttSIkHDuNTFIWaypWqDLru0soFY01LpOqbF0QrOaKCXAmFcVa/cKQxhO8pSdvMtUg+6+UE335R2a1Gv3BtFuUP0jLsy5HlAWVQjDvU/4oMTV2RJycgF47zyoeHZlnRY1F2lKeN08GvXS5TTOL24LaXhbY6cuu8lnMlY4aL30RvjmPH+XwAY51zAdqxjFC3jBHYFJOooa5Myi8A2FEnQG2DOEuaukjq0MObN1UaPU93zScKx0hl76az1oBBzBHBKlTmlRYrhxTKZoRu7nFXCCuw0EyQuxkHZYQam3E0HaC0JGmRRp92Fir0tjZGUHhIB8L6+0NYDwOYtZaWMBsAVOr+YJRcDpDOxwkUv9mgu5vi2+whnQhN1uTjr+CMf5gXp7rz4sQbjzrxMXg7rnQ4sTIc+A3AwZkeNlL1298SPGtlbxNboGRFpdQRqNmp/xDh3eQXZYTIGxlUHsJd6qcwxlMoZV3zQaD5jAPMigDHMKq1L4dAsjNM44ekM2ChKCqdXy7kTgUzqsN0GLM67kBViGNc8uwnHTmXIoVPKRq8EwejZgkJZmRSHMcGvzxfqQNczYhmXCQfPu4xqphcBy8UY5jObhnF53mi85tViqzkTsPFru9HGjt1leN/d84n8PmZ99c8zT4UGsgWQ2f2TLrP2enXyPOB/r97/AYAXf2/6P5zv7i5/FOy/9/8M4KPLvwr25jc=);lineShape=1;strokeColor=default;" vertex="1" parent="1">
                    <mxGeometry x="381.9382720963911" y="46.85251968139937" width="25.80805134698562" height="58.54180970070206" as="geometry"/>
                </mxCell>
                <mxCell id="70" value="" style="shape=stencil(lVlJchsxDHyNrijuBM9Z/uGqOLEqjp1ynO33aUbF8RActZObLLmHRLPRADin+Obb3c3X21Nw356fHj/f/jx/eL47xbenEM4Pd7dP52d8OsV3p/jm4+PT7aenx+8PHy5/f73p/9k/fXn80Z/w64LzQYLvqOB+X74pVbz7+837C+D+/LAHVAl5BkQJ5TogBMkzIKvkRABV0ryl7McmDwHRSSoTICVJSgBedAbEKo5sCYASJ0BoY83jGFRamAFBGqG1/zyv4ItoJOeQJbkZ4KSRoPG8Mp9DcCOqaytomgEqqVJANrSW8YhrgKLzwWWJTHxlaHOTRpT8ilpnWosbRB8DdGxglw+VrdBEZ0CNEglLwY8dbwAVHwggSZsPToMUAkA+xGhXoPlQJGYbgxJAUgmzvCtykGwpl7GBjdZGpVGgpTYDdNBwCKhJglqAJzGARLsCaGhkhShlljc2yZwPxuhmlgqynAHcMMZdDEpoBcCYMWhgOV1W8XEjAyd5plUTBXSW5qC1Ui0pUn4OWpVqCT9nbwGVSKN5mw/ahhceA2Aqcwx4hCO0tjS8egMEqUTeLYs3ABwcsRn8HGe1NqQU21IYtrUBdMjxGOBsJ9AaLbs41xVATzpKaxbA8kHdqJk7AAsaPheKDToytS7OB1qV2Uwez9sAWRyxewBMNwN1eWYzi1VCfCwfurnPW4K8mVWqF28KytauHAPgrXVJUSJvSMPE0JOWsATxpWxjCIQlyFsNS24k7bUEMs6HR/hXUtRII9IGCytUA8i0xuF5VktVMstpHJzREuoDoRWsm/qABKrspCHmeUveOXHEmHST/78iUNPMWSMKRmzexLYnlgg8wzfmPfUUIlvCvFBN0cpUTWlZoTdxRK8A2MLrhzEcA7ytECWNwzwGxJFhuzmL9ZWYqtpMa8YwyA4u2vakD2bMLJGk3q6QCUvoyUyrmzONATlclqBZx7QT547XypJObRFCWJ4AXqxuA1SqDV0qL8TE+hNkkOlP0MUxe+2kmB7L0V43oYJ4C2BbgvpMB/RSNI5njjY6ql2JYP16H9qXpC5sHF3qYq8yJOX8MhFo4Z2oNfzeTLN8sD6Gbj2yIchOWUXpeJyX2dXTdIuLAURaTpaai3GdDaLeumq/ZiHdmLOjAxiORBLOlh58w7q9JfV9HHdTV/7f8FNpTwIy5pzx/EJmmVh53cRxJVNpx/XJ8elGe/GGBCPsoOIYe/eZOmPa6Nj4T7R/SUiYOWLskQkaK+i8Qgr0ciUle1GHEsVIRV02OZYrHSZjtoW8RCq67hLLUJ+JDYVl+kTBYVaKvDTnAABTHoRm6nJ95Rqt2V64XxDxe7cUFgBhqUttATB1I3t8sgB2GwN3r9WyVNjtJOzLsOT5daa3/lIdnas8DM9cQTV+O+mkrrdibAUvcbneZyP3/78PeB2ADy+vHz6e7+8vby/2v9vXFfjq8qojvvsD);lineShape=1;strokeColor=default;" vertex="1" parent="1">
                    <mxGeometry x="406.4928080562386" y="21.091050965421346" width="30.828411663561383" height="52.96606809441164" as="geometry"/>
                </mxCell>
                <mxCell id="71" value="" style="shape=stencil(7VlJbhxHEHzNXBO1L2dZ/ocAUebANClQlJffOwqDanVF9wR98FEADzPDys7KLTIy+xI/fHv89PXhEty3t9eX3x/+un5+e7zEXy4hXJ8fH16vb/h0iR8v8cOXl9eH315fvj9/vn3/+mmcHJ/+ePlzPOHvm1w3F4dQcP/cfsjBxlf8/Xo7/3R93p333mJZBaq1IgSixbAIlGg9CYFktS0C1VlqQqBYrotAcxadEGjm1iu1oq/Ura9Gd29OaAjOQl8FgqUqBcitPb2nwa9G92xZBa5bXY3uMFoLuLwKNPNRutWvget4hApcPRGo6krFvF8EvHPSTT6b86yie5muHOpuSec3JRPcVJQACiytAtWycpO3Qm4qFkQyeWd1Nbq1+cupQOPkq9maUICCW7O7VKvifLKyZlJGnIWLgtX1+dnPqJwbbHE9n5K8j5sRnedjsyCev+XYPB+qReHPYH6NMDJdFUI2v97faxDuFlZ/Ng2QcebX5k/Lyp3N2po/cYLNubmJ7+PlfXB/QngERJgbs8VK51XRJzyu03kv7E2Zz/up8DxcUJ/IP72L82mq/xEvJ+6DjloofzaQOa/HQ/dACJNoaAXdiDIaJghsL8kamZwkypUyM36ryWhJaQCmUZJ62dCKZ2gHqhQVhmiFuE6WbT8B+VcNqVjLQgBlviZSLNNv9wRIA7A1CAGkXqNUrTN57+bSWjvAFiVQMhcn+o9q+zUx/YKASr7azWe+kvJSA35RPWSZfK3O/rgJdHklsDMiR0D4IhAeHZhsAEgpjOkHzpmCdGs/gGR+h+q4Q5saXF7gWN/qZRNALJXVjbMvF5lMYDZEXXKTSDb8ehBQLBU0OdM8gvQSbkKo+0FDFkUNql8IZ+ocac4FHNMj4IzU4A5DWJz4fJ7f/WADalRfiRhPahL6YDRD34ZtdytotQFdVXE8BI5GJAhIDXkmwk7AK7cCGTMLSKMbowCMVkQABUSRRssIyoY+icK+yals7bPh7FKjCm4FgUDZqrn8GOpWo5HeWQkUqwQzbf5yL3CeBLqGvsh8DBqaSu9wKKBqTV0JbZQKqEwOfk+AKNwgdSqXTgVEtqJnJSogAI8CgcwbAJCNoKY8zxoieKPq7NtWZMdOlJeq40EsbPP3OdmIDPdBQ+WI61oPYaNQ5wKFazpuNPBcoPHwhnFCTgOV0xvYqsYrXIlaFiKtCggVnNrBBqUh8pXgVtWyRjegAaLOGfxcIM6l325EUW0X9KgdaGUTQBYP9B4sMYrUCIWRb6we1RjqGb19si40jN0QEVegrYIZ3qCNTYgq6bm23OK8XfHeHoCatJ+T+73FUKLcbnLc8Ic5cXQTRUITjxtFD5a+cEHXIIk0JttKw7TTa8mfy9vZ538ub//T8latVgOvuv735S3mE8ca5ATExBvUQ1VcYxaA8VrhamHKWqN0UWLyBgRQy9XAs/rgn3LZ24ngFnl/P1fBOwhz8vwJ4xYYGQ5EL0hKHxghMQKoYW+Lzm4PoIb0xNiCmUS9oIM3DufV8wtvGcaaTFRAOYxtyFjh/8r4njVLbUyOxiys5pezN55qGnn3DSk+/Hi9+uX69HR7O7v/P7+OxU+3V7nx478=);lineShape=1;strokeColor=default;" vertex="1" parent="1">
                    <mxGeometry x="540.7877722282242" y="82.72368817647043" width="56.87604410603444" height="40.58289836663994" as="geometry"/>
                </mxCell>
                <mxCell id="72" value="" style="shape=stencil(lVfZbhsxDPyafSVESdTxnKb/ESBObdS1A8fp8fel4GpjcXcnKOCH9a5GB2dIjqbw8LZ/et1N3r1dL+fvu1+H5+t+Cl8m7w+n/e5yuOrTFB6n8PByvuy+Xc7vp+fb/9enNrI9/Tj/bDP8vuF8IuGG8u7PvzeR2l/9fb0BjofTPYCp+gEQPMUIAI4kDYAYqSIAky8DQISkAkAlJwMgZSplGxAypTwAciQHDh0r+TgCMjm3DUiBxFsAgxWytzxkhlvKqdM0RylRTAAgfcczD0IxAICjOIY1KA8AIJW4jloqFEGUotI0ruCFOAOmI8lInA/wDCq+bFbw/c0qgDMFA3Bd8OuASDkMAC6QaQ7EYz7oFAltyVMZpcEOyltXyEZLnZj18UJ53FGgiuYvlEcWuNOyToLvKujjHXlEWrIFwJED+w/62QQIqigoA8WcNwACVPZxHK+ZxmB86nzeEYZyWQEyJo5SWNAKYiPUdIsqnu+KuZN1ANVCa2oaZd1YRKQJlUVqoi21RlItgMGhVXbRtCrGiaPlatQda4UCnUejLoY4PRWIkqZmNjx4YrSlQH6MUoFB0tJQTfOkCqStMkiGZ/KIZu4B+Ug1Aftvy1czHvXBNn6RyqgjiDULDFM/8cJcQDOiXTObTNMDAwKqs7ncZA0YqKqYcYXmj5CGnLONWZgCSIRayBu/U2DBrkx59Apl5nE9TMV28pp6zd/yO7YgOcy0zMKcl9CSAwCh2MDW3EvOlvaSATD0kcw92ecwae9H6rZhTdINzer4BdHqKzOYX7U/JqcaV9RoxZrOplUoPYqmkUuvT5sRMhU1QEvICx/8WYGcLeYM0OsAilG2ZkdPldGha7993NspdB/x5IrdEmyFceFHZne/1TuTidI8xZZDKgYg+AwqHHPojKWdra1t6kXZNhuQO8Pggen5/5vn5wB9+LjovhyOx9s9+f67vRjrq9ulOjz+BQ==);lineShape=1;strokeColor=default;" vertex="1" parent="1">
                    <mxGeometry x="606.542979605317" y="87.12512516526317" width="24.10013223723854" height="24.68901985345451" as="geometry"/>
                </mxCell>
                <mxCell id="73" value="" style="shape=stencil(rVfLbhsxDPwaXwmJ1POcpv8RIE5t1I0Dx339fbl1ZZvc3SkK9LZea1bkcIaUNvLwvnt62244vJ9Px8/b7/vn824jHzbM+9fd9rQ/69NGHjfy8HI8bT+djl9fny+/356mldPTl+O36Qs/LjguJHVCcfh5edMo8+8XHy/rD/vX+/WRuJn1sVLv64DYKUQDECHBAAkGkJhiAiEFCjaFHCkgQKQiFtCpgJA4USwGUCox2EECFTaA2mAOKVDOtgyJBAG6z2HaIawDcqLGPocOKq2cJEcrDqnoDlYaop9o64BaqVlpxDY+sQhoWmnLUixUQeGa+MLFTIwAhZoVX0yjMouArpWeAQpgqauWsg8pFwCoo653jmNQ6d4pOlq1DgAQg/Jqt1CLIG3oFsXyqhbJEQBUnFau2nhQqfuVlCugjdIsA3g48qq+q1qWS62NLngAan3qyDrbIaIdIkn2OfQKDNGoWAexFh+EpA4K4uuADFGL7zOsvOEd/vjlTkwF5aDqc4BKSQBLPDN1pgq01LLPQS0HAX30rXtTI3kLBfYhRZB0L8TOcko0knfz8tbWV7Djms1BLRpQ2+jUbUgsw7RrIVXnuDJM+58AakgrDWmDtzXHZQvIAapVtZQsS7lSBV1DJwrbJlAyHNQ1zSZ7hwOiFD8Vp5EBpKFT1s3dqaEDWnXKFie+W0NfPs/o4LW8qoAFxKQWdoZQT6EDUPOV1j6SQF/KfsbVMDrbcga+d5cI4wneDHpErMAMM1noGVRAA5gNUOFRxWVCh8juzBkAP0LNtQvBuvYF1lMHakezXjFOZsvRR39p0BM18IAG6+gMVBE72V8yAuwTKs/sv4/0ryOsilsfgRo0Pdd8A74vXItz4yejC0n244PhjNU+6/hJw59r65udmHkQtrrefr9iN/7rJfKv6/XhdmN92R8Olwvv/f/+hquvLrdjefwF);lineShape=1;strokeColor=default;" vertex="1" parent="1">
                    <mxGeometry x="633.9935105150707" y="87.88660470675109" width="22.723053126516106" height="33.294735559467426" as="geometry"/>
                </mxCell>
                <mxCell id="74" value="" style="shape=stencil(nVbbchsxCP2afWUkAZJ4TtP/yEyc2lPXzjju7e+LuyM3EC+2+ybLnEXAgcOED2/rp9fVVNLb8bD/uvq5eT6uJ/w0lbLZrVeHzVFPEz5O+PCyP6y+HPbfd8/z79enk+Xp9G3/4/SFXzOuNuj9hCrp93zTQfjvxefZfrvZOftk7EsGSQGgQxEDwAItBwABrgbAGTgAtAzJPqlWwAhQAMkAWoOEy4CeAF2S9CYIusvIyRmgPgMPUqHaoDtDDmIQ9YAW0AFrCEBbB8nQoicxJBu00ODK5aAbkI1B9CYAaNaxWIBAicjH48UDkFMaxb+IYATJ3kUN0kQIqVmAErgtA5AAHYBBAg/aYM1FXUAkAFRojkxxDOqBHTfqyPRSDMlmqWMIoAJsg9aGkKDUjL7UTcYjl0qd0QMyBWTSLFUP6AFA6erGRs9j8lxuCILmgqZrPVpcUzcowZPesfnMjQQ1KITODc9vDJtUv+d77kyvpdnnPfSR6aX5Xd3c0EIEHcQNmnhAJClUgcQ/KSq1AjjdA/hQhpNABIMpA7Kxv6JAqoA2RVckjob3GzWUgK39FZEmIMfscAlgLyV1VPAyhSDbbFJIoFyArDzrfAz4k/X7ts1yOFrUvZPOBBxNx+KrG2sOyhjnt9mTqmS54z2sU6ffES9/WEbifFYaInxbvZTrYvMf0+F/Vs7YXg//9tuXzXY7r8fv//f7sF7NuzQ+/gE=);lineShape=1;strokeColor=default;" vertex="1" parent="1">
                    <mxGeometry x="660.4890916734043" y="90.8151556785781" width="6.941718739212092" height="24.415152418132266" as="geometry"/>
                </mxCell>
                <mxCell id="75" value="" style="shape=stencil(lVbZUsMwDPyavGpk+ZKfOf6DGQrNUFqmlOvvUcg4rUysgbc03XVWq8uDv3rd3r1sBsLX0/HwtPkY70/bwV8PRON+uzmOJ3ka/M3grx4Ox83j8fC2v59/v9xNyOnp+fA+nfA583KEUiYW4df8pkQg//Pmdibsxv0FITnIUREyA1Of4BliUISYAWOfwIAa7wOg6+Pl36zxCAH7eAekI6YI0TgfAVHhXQE29CN4r/GhnrCKJyBtqBjGfbiITQoewBlqChSn1YArhjmhxlbxaIo/e3HGZyvYUHOzZMsst6katP4M3kiW5N6TjpcgWuXpAFkTuB7R+wLpCKYKNCwVxbkpuAIUTI9QE7yYZEiSJISGECFZBMlC0zMJnFF0pS06H8wekBmiTRWbc7Z6APX5YhqZPdb0jJR1NvRjO1OczD3LIAj6fId1anRmUNPzEYIhRyqsqbk6hdfVeHA6XWg3MQO5Bk/JcJ+g6POp1ngXn/6BD9zaM00hw5/EdSIvQ84BG2OCXdtjUeakIUm2XNFdnKnukXUCt2tAVqfZMgW8liSL0qpRh782DRMkI2/yiSZqTpCsqBcFy7aXeWlFLataZ674uv/XCQFSQ0h1/68TJHN6YIvIaBQ3c22thSA2GC5xbMfphdPdaortJ6z2l8wm3RBiXDJ8/fe16w8EeTjf8h7G3W6+JF7+394K5dV8o/Q33w==);lineShape=1;strokeColor=default;" vertex="1" parent="1">
                    <mxGeometry x="670.9242497335622" y="93.0595965310199" width="15.214123592987562" height="13.078763855015268" as="geometry"/>
                </mxCell>
                <mxCell id="76" value="" style="shape=stencil(lVhJchsxDHyNrigSBBecHecfrrIcq+JYLtnO8vtgouLIBEed5DaS2CK70Vg4u3Tz+nj3st9xeH07Hb/ufxzu3x536dOO+fD8uD8d3uxpl2536ebheNp/OR3fn+/Pn1/ulpXL07fj9+Uffp5xMVGKC4rDr/M3nCmWP998PgOeDs8fAMwkzQMCACQmLSNAqObrAGGK7kiRBOywAHQARNsBHSlSyiPAOERA2lRyOygkbScOyauk9TrA/k9lAKRKlSEgjxzEApcggMcdMlP7yw4jh6zUFJAOpKNKpVBCKlViHgC19MhsB65QDQOgGQcQOCmURy+1TBWolO1Io6ytwDiUSmUk3YQU7HChuAJC9+8mwCjmcYcqlAQApFNcAUylAUDt+bUCIhVAWoOX1QAMIq3Ju3XZAXDQQtw8BxQHbT5FF5WArKpUqjefoBQNgcLovtqoIhJKafS3hVpBIHTN+Q/+RmbSPJlJSEBC6FS+LSEYmUlJggegpLZ8keSPhFRqiZo7UiJBAKbgVMJ2tZ+Dc5/iHWKv7iugwq64HMkBpBfDa6Rdva+JInCfyZqd+SJpwIFrHpAAwKyRpyog2HziyjcTo5Qze1dPuqJ8UG/vmqGXtnK04pSzMjCVYwY9aCk0Y+Qs+AnJ1KYc5V4XtiPXfGWyetvAkWZ/L6EBMhXpcVrnmYtw2420EY+6mnCKWrWNTI5E6UpvDwPZ1w1rGkimaLq6utH6qLkNiBuFJoFiaT3IdbnSR9NtzhRGysX6A1g/VZlifRXUgOAJ2wSHJunQa9Y6IgocQqfcsRkUVQxbP2YC24AIMiF0Ndb1Nr0Bm06DTyxw8Ikm31iQ8LBnAePRcqFH8Nr4mZtfj5Im94FiJQAnjJz9eXK/Rmz7M/ohKeLKYgA3hlkSoSaSp0uDJYWAEm+OLM5DDD0kqc8rKyBDUy/3yZG0uRRl5XxjtTg2cKT5Tny5d1wrLJI9IKOW4K8xtj6geYRi9hqhHlVIHQHppezKendbvYi8HWWfB3ajLuhWNa0PcOiczmMKNHCeia/dLFGvmfS0fyhoavbxMkbw6jwZwgBoRvjv1zD/ALCHy1ufh8PT0/ml0cff/Vsi++r8hind/gY=);lineShape=1;strokeColor=default;" vertex="1" parent="1">
                    <mxGeometry x="676.2416107714978" y="93.22057660065684" width="28.22972141672153" height="38.082743417451866" as="geometry"/>
                </mxCell>
                <mxCell id="77" value="" style="shape=stencil(lVdJchsxDHzNXFEEQXA5O84/XGU5UkWRXLKc5ffBZDK2CEpd9m1EsYmt0SAnuXvZPjxvphhezqfj982v3eN5O8mXKcbdYbs57c72Ncn9JHdPx9Pm2+n4enhcfj8/zDvnrx/Hn/MJvxecRmKZUTH8WVZYKIZ/K18XwH53uAAkJlEPkHgbIIE094BEWW4DornkLDSSAi1I6gCx4hgCtd4lSRSABRUPsCMKiCFnaq0H2ApwqVoMPUCVAt8GtCFLOVHJtwEcAoXQIYrAQrRK0gNqoQRKXRvV3qcmxCCvpVEqPSDDyuXgXTInE0iTpf2/xxeACoKWSNoXojUqCdC1Ugke0CoAJGrRA1AHRabsAAXGYP3CPV2bUkbcsPNcDEIBBG2A7AoXKCJA9RaMSwqoYUGHnktVKTaY1sg9wOitAFCo9dJXI1XAJeE165cAJExKqXmXKtLKSpp80AoKZzKUs09rQ/0wcimsKzf1vg/aqIE6TtrAJYX9IMUXzloUqbGIr4M1UAJZsgERegsXYnidG5k4eRMZqUBc//6gMFmP1kH6Eu4gjr4QDfeoOgtMDAphFqKjq8WAJnUgdgBd5951gKlK7QGJGGTJ6pCdCkRs4bMAtYZwssFwKtqYrckDkFaW4id1qZBLufmJUhhORR30PgsVIH2penproYJ61KjWx2B5Y9RANg568iWBWsnB3ytNF9AVi716x0YKhGy4/UQsAULqNCPi/kyryr1FTAmPn9TXwK6UIEGzEPv9yP/xZh9gq2kiYbdf0Pl5vZS/769AhLWu4vOWUHhf1eYVNUK5y8MoTGvCru9nL14KCTruL7C+oz8VjsEx3rklEGBMKMPLwlixmdIghJES9tZDj5JPvyY/ALCP98fr026/X96+l//7x64tLQ9luf8L);lineShape=1;strokeColor=default;" vertex="1" parent="1">
                    <mxGeometry x="702.4913826664783" y="93.77181087781537" width="23.9953889190283" height="33.46557684620893" as="geometry"/>
                </mxCell>
                <mxCell id="78" value="" style="shape=stencil(fZbdcgIhDIWfZm8zQAg/17Z9j85U606tdqz9e/tmZ0c0uJ47xP0I5JwEBl59bp8/1kNwn6fj4W39M76ctgM/DCGM++36OJ50NPDjwKvN4bh+PR6+9i/z74/n6ctp9H74nlb4nbmSKZeJCu5vngmZ6jzzNAO7cX8FVKEsBuBKrgKg9oAE8gkCbLeUhEoEQKSUDZDLeWYRKIl8MEDRmHwfyBrBG6Amyu4+kDxxMoB3jhwgYu7TVAsVkFcWCs4CTBEoF4RctKeOxHIf8IXYpikHikAIf+MNUW94AGSSaoAoFIE3AlOyeWU+p2E5S9yfQZcQILVuQOwZdJNoS9Ls3wA5u2XZTIHECqeJ9kDpSaauRiNVcAY1QhdBzeLBli5WazpkSsBLV25uRaqWRyFawTQzRRIQYirJzq5atkBqLfouwqUxLBepthWb10vrWZY6UOAeyKCCtDV625mm9gmUC4Wc3VLJMMIE1BsA2FW9JraVlQB7n3c9oMKhCLEvIM1zBPZ25/umNQ1tVEC2G+fFCC8g398O2hNQuQlVu752DBfA+q0ptnqO5JFmeuIuo9DY7KjY71UxdJV4EntifPWorW++R/dC4t7V3DlIB5cHx2bc7eb3yvX//QNFp+bHDT/+Aw==);lineShape=1;strokeColor=default;" vertex="1" parent="1">
                    <mxGeometry x="657.8679608424759" y="62.875312458519375" width="4.672539772115215" height="4.665236216357243" as="geometry"/>
                </mxCell>
                <mxCell id="79" value="" style="shape=stencil(lVjLctswDPwaXzEgQYLkOU3/IzNxGk/TOOMkffx9obpUTVDetjdZwpoEsVistJOb18e7l/0u8uvb6fh5/+1w//a4kw+7GA/Pj/vT4c2udnK7k5uH42n/6XR8f74//365WyKXqy/Hr8s/fD/jMrWwgCL/+H2jUNRfdz6e458OzxfxjZZHF/GaKdXr8UEoyQAomSpYICjlOq4QKDcAaCQjIClpuA6IoT/uAMnEDACW4ph0TDAHsRXyCMgkAgCZYhu3FCiBHBKTjlsSIQZ1SNmfkkRq5TogMwUeAUwJAYTauEIUqgkAKoUREOwOqLTGToQVYFmBLWklLiMgUQGAIp0IFwAFlS6F6rSCAi7VSOoATBEBSifC2qHE4FSb9PV7PPcO3I436mUXzyhep4w7UbbjK8UxXihHEG/tPDK74HwbNVeyQII2ZAD1LEI8NUByxMYls5Sz0wvpMrsNKL4TokLNs6K5ItsptQxZ0ZIHIAlr0euFbUlQ3ULXn4ukMzolExhHpEYKJKw2KlPhIgZUpxdMBZ0SUx6HlZUBHZLp/BgvFHAVnB5x3+F2vKmV72U0qKw3Jbn4DA7IeFcdKygDebRO4JHYGcppmypmFQHaEpg39BcNzmUFB6hUcW86TljOMIfSB8DFLEdJWBHC1GqKWKGdNP8KYD9pzS0IUDCbIXFyPKjQNqVcbyZrbzQH1U+RFKmCHEqYXJvVAQ1/9Y5nAQBym22sDpDgJDHnm92kxaPTHI+zeVn7uW2bsNbJvAJat5bbAKEyckkZ5iCVtPkVCugHmRyP5VCQe7Z57nIIUMSsXZzj0dRldhsg3gyXCm3eoqLjlkyYBZDP3jGCmySMlTVM7wymCw3ZNr+CNS0abqlveM25wf4x0zXuxxoKcZX7IFuL0KDGsHckWuAonIRb11eaa/Fjc5q5b/D/49QIiKbsVdveNhRwKEysVrif0O3WGp9hfWM3Hmt8gpZwcvEWj/mTkt8PA2XJU74ZdvH/fif4e7xd/Pko8XB4ejp/07h87j9i2K3zBxC5/Qk=);lineShape=1;strokeColor=default;" vertex="1" parent="1">
                    <mxGeometry x="44.8386501725613" y="-15.454465428329854" width="61.53667911924026" height="22.463683764305983" as="geometry"/>
                </mxCell>
                <mxCell id="80" value="" style="shape=stencil(lVhJchsxDHyNrigQ4Hp2nH+4ynKsimO5ZGf7faCoOBYwUju5jUbsIbYGmtzozevj3ct2I/z6dth/3f7c3b89bvTTRmT3/Lg97N7saaO3G7152B+2Xw7778/3p98vd8eVx6dv+x/HL/w64ZQ0H0HCv08vWqKmf998Pq1/2j2frW9Uql/PNPr19UkoFQeojbgAQKXqLSqDCrBIzODuAZ0UmCSVBnuTlFK+DlCm6neog7oAQKbmnW6VGAE6VfUAoTyuA3IiCT4IDeBD1mnxEqVMNQFAJUkOYG9Suw4oibR5ABMzAFhM/A46aIAdaqLsiy8LdeB0rfPvBaDEIKxW/EmjDyhKrVDyYVWLG+LPWDnNkA9dZxAnQGSG4TJgSdMEpAKdHonq8CZRAj4Ps8inwVoA8GDkyGhcF8MiWMJ6BQ6PNjvWEiH8/U7D58zoCqpoDGo+ZdZfwPcTc0yZdUGEOO4QUlZJQRUZgH1Ik1EHx6j7FmZB6ijJlXIIaqaCqijHBiPlozKSHHdQBEiRzeaDgH4xeBXWQQLasAFSCGuhjHdg73SyHoV84BjWhjdIMyTvtcooz0LF5zlRQbWdKflSZdjkR6EmcT2q7EZSgz2KMtCp+JQplCNGhMIhnqibjoUmiz0fNK8RxcKxmyIPxmTuAuhQLJjLIcUWIzQG/x9gDdubpDqH++URMlZjUCBxunVQH9bC8821Mah+5pjKQ8RpGhtYNWoClWcSLQrPDn0wEagSAaj2zOLAHZO2aJCUVYs0H1AeTFJJ6BZMHdAtt9nUl1GVoHjOOYbVOlRHAKbiw2rliDqSLuLjnXF4/psgCgyyYaSAoyboo00MJdL6yNCtXMFwSy1Kki5zAl8GaDwnmSxDO7TJ4GX9wsHLQZqVdra+IJdjnm19Bmww94I9fQ7Tyw7Hc2RvU/VdXM8r++tU0lfWq+eatRw0+xdRfZYwRLWVZLOKQGVtYy+cgxucI0YbT0w7OQxUcVHgtYxFZ5zLdoBE53JZzU2Bak0nA//xnuDjewV7eL+UeNg9PZ3uNM7/j5cY9up0AaK3fwA=);lineShape=1;strokeColor=default;" vertex="1" parent="1">
                    <mxGeometry x="55.83008307491764" y="2.3539019303284476" width="61.269101617997194" height="24.361101951874844" as="geometry"/>
                </mxCell>
                <mxCell id="81" value="" style="shape=stencil(lVjbUhsxDP2avGoky9dn2v4HM4SSKSVMoLe/r7apl7WcHIa3sPisbOmcI3l3evPycPu83wV+eT0dv+1/He5eH3b6aRfC4elhfzq82q+dft7pzf3xtP96Ov54ujv//Xy7rFx+fT/+XN7w+4zLpHkBBf5zfhAbxfrvyZfz+sfD02Z9pZCG9UmpxuvrRSjwAMhMAQEiqQMUigEACpURUCJVAAhMeTxDZWIFgEjSRkAkFgCoJNlH+P/kIkCZko5nUEoIECiFMUuJKqibxl7WtXCFAjiDZpIxwsKMBgBWpjGtUYjBGSJTHQun2kt5GZD6jlcAUwOVThP5FgAgX0oUXYRArQBAIx6zZHljkKWsPYkroFICEfIcwbIEIpTg2Wp0LODQJflKB4V6KKVnvQPEbARsydifx7Q2yqBuNXn9BGJA7sbeM0zQgEitkIzrIzXA1FYpjvLMlEBGW/M0qrBktr6N7zfbRC68AEatLbYJSrbsyAEKMTqCsXJMkTQcoUy0477Jy4DkbTgI5GmL3U42gAwsrIWurM2WEkqrkMbx0FY4RAyespRxlqwPuAhm9ChLE7WFqQDtGKC53tPlfS1JPJYhQ/E3nWyeMvAvK7PzL+umqAaZstcm8gojqnt/6mK6pgRxrZYalloVXwBUMeHVfDY1Vhwijzw1FgnKaaU61th4mrE4vdYYNnOrgozjgmkNtSkTZ5oAUDra/WcDYFToDwPWqW7jeYLaVOmT6RohkIJS19V0N/MFGqqWRjh1/wgAJfckrmpIkBrW/aOTgxkCiGDTtTqAjVloIFknohWQKYC0ptr1somAzpDidMmQfk25PBhaO3SeUeHAYEls0QMSGj1jN93NGVCHjoHqWGmb/Co6g/QrxepLARr3Mje6W4lAtmrydagNSlSlm8o6thU40ZuVTs0KT2KLwFyIRgGEkOnUZlUBWJ8Ym0djeuvy126s6tJkAzcodekX4LVw71DDN2iTIJo+TdHuQmzDITiAecz4ftMnuhqydz2jNrp78tRwI7zyTO0wBTiFsW89pn78/jR9wiiIESSj0CK+gUmf3df11k3B/oPvhLZe0E3bO3bM3Tuu8CcU/340ytsANq1Ht5fU2b7Jj6KG8MFPSO+vtx9v36vuD4+P589d2//771v26PxtTD//BQ==);lineShape=1;strokeColor=default;" vertex="1" parent="1">
                    <mxGeometry x="63.7791181856154" y="26.14202239856104" width="63.2832701216513" height="35.46077161775111" as="geometry"/>
                </mxCell>
                <mxCell id="82" value="" style="shape=stencil(lVddUxsxDPw1edXYlmXZz5T+D2YIJVNKmEC//n2VZnxEymUZ3o7DG0ur1Uq34ZvXx7uX7aak17fD/vv29+7+7XHDXzal7J4ft4fdmz1t+HbDNw/7w/bbYf/z+f7098vd8eTx6cf+1/EX/pxwnUSPoJL+nl4oSfv/4uvp+NPu+ex4zpSKO18yjQwAlVJ3gMpUOgA00uQALVEDgFKoDQ8QagUAlAbHGxTkwIVUfA5j0rAKqImqv4EHjQEAjZJP2n4CsSSZik+6dlg4UdLqAJKo83VAM1o9oAplEFLrxF4anOebVYAysZdGWXhbB9gNPqRcKMl1QK9UPa2dMjg/jFVfN1OjAGWMShJS6FRBoYcFEOqWqYK6jRFTMK2oQsDwN0ihgQE9AAYsgwFy6B+himjVGfFiMlZooIwhM+IFwNRRHZiGZ0mFCqI1Uw+ASg0k3Y2l5gEZ0tpNrNmzpFMs6wAlDsaXZ1brgBZ9TISkwhuKz8F8LAOWLIfQD2beqHDGUnBK7jPIa3VovtLcYEhW6aAlFmLUcUK9xhsUiU8vQsLmbf2QAq2V+gcd5wFHLwYNlFOK88H8vOCYqi9EYxJUiD7nzQKwyiGaGjWvby3Ugb7NKyNAZlbrgDKt9ByAeDVXubANBDB9BzG1QQX4zBHQPwVIF6W2kQV6VFvMwVwATRSzoZZi0gN0ULMG83Xoy462DkixcEZDAyEJT04WwJjetr7+KOUwpwUOOduOmpe3Khyj1vMxpDYXonVAimuoCR4NuVJj4c66dr2rdbr1coVAs8yLdM4KUYH67AK/kdmQQzvfYltnYkWmUWI38ELC6nnrT38+DzjhUlRqxrvPhUtmhqpIcxt8LxkcPmmu2O8fS6hxbJsMq9tceK+wmfywLVSAAXNM1hQLa5s0HEfilEnE2XHA/EV7Jahk63cNqSKdaVwH6xTeuul+7pv2w+P28P75/LB7ejp9fZ//P35u26vTpzrf/gM=);lineShape=1;strokeColor=default;" vertex="1" parent="1">
                    <mxGeometry x="291.8058739122066" y="-34.18334672927767" width="48.4838686553685" height="15.904112403159615" as="geometry"/>
                </mxCell>
                <mxCell id="83" value="" style="shape=stencil(lVjJbttADP0aXwlyOOs5Tf8jQJzaqBsHjrv9fSkIo3go6xW52RLfcHtcRjt9eD88ve13gd+vl/P3/e/j8/Ww0y+7EI6vh/3leLVfO33c6cPL+bL/djn/fH2e/789TZLTrx/nX9MJf2ZcppQnUOC/8wNtVOcnX2f50/H1Rr4Qj/LR5OO2fCMNg3xWarotL4FKHQAlkDQAyJRHDSVSBYAgxHEEMCXgQojURkC2I5CG1l1cglR6GO4CNFCTEcDEAgCVEg8ASyRyOgaqZQBIIQF5Not51NB6Yu7KJyEdFSTKDOQtbdGdH4EDyWg2xtQSH4ADOZKMBoXQuX4fUCmuADGBUgg95DcAlOZSKDsNQhkEtSrxyG1RWG21+GKo0Odmx6VBnvuD+/KJVJw8gyy37KuZKSN7Ksl4vrUDZE/rJF5KkxjL1/F8YQogZcLs60BiZ+KWiuJUWA8ESTafm2OFUgTF30rv0DfFj2qnLa8XQKWAAMk7bYCMurz6MWKDApoU/FyYuixihvUX54M9QXlgX53WMKAG9mG1WaQoD2bAGKUCe7D5LGMxWItCHqh3WWA/akbMMaZMArhttHD2Wy0UyLviSoEaKv7qm0vEq0LzI6FSQQmzMevioxRQpbVVhgv2oPURc9PhBaWgrgCJEi7Ntioc2IE/DWA/dDTBdaeahjFtilc8m1Jx5EXETpfam/qyK2CmTpO2ekAFAJvlugJkUGu2lcbVXov21GTbQvBOIx+SaVCfBwYazIAgHoDIZwbEsX5s60NO25LpRlWyFQl0ADNA3bi1+wPaU9nP5yqdLJu79pi4abQA8snCzQVgAxhdMHKP+scKgJcYEc8+64QZ8Lv23X2R537C/Tz43bwGSKXgt8LcKAF59lmzNKNpzt5+41EC9q9WJCOWgICyn4O6LMYb8mlMsfEwgsEg/o6qCu0XXwZ2HxN0IexjeJEXCkBe+9tFnvt9b4MP7oJq5wvkj1uyzX7UWVZ9wuITUevyNWnxh1cvzzfLL1pcPvsN4v/y9uPjg8fL8XSav5fcvvcfSOzR/HFFH/8B);lineShape=1;strokeColor=default;" vertex="1" parent="1">
                    <mxGeometry x="293.7946388024702" y="-8.868134354294398" width="67.18431729375129" height="21.51505510731522" as="geometry"/>
                </mxCell>
                <mxCell id="84" value="" style="shape=stencil(rVfZbhsxDPwavxKSqIN8TtP/CBCnNurageP0+Ptyu9DGor1TFOjbes3R8hoOteGHt93T63aTwtvlfPq6/bF/vuw2/GmT0v642573F3va8OOGH15O5+2X8+n9+Dz/fn2aLKenb6fv0wk/Z5wSxwmUwq/5RW6U2p83n2f7w/54ZR8jpToAaiBVABAKeQQw1bQOSJWqekCI6wDOxDwASqUIYsiRQhiDziQZAJacdAAnigBQEqUyAFIkRYBGPAYdCwWQVssJj3WI9k1ZB7To62ClrCCtTUjZAxgUTgpV8YDAANCojnWIgWIAAO3nLYUjATGrtebY3bGn+b49+/ND75T79oWiOnupwL71rln6CNuLp4JQAyVTvamAJQiRMwRPBUtRQy5pJ+8CECoop/a3406mCtipldQBbEghQO4DaOkKYydqi0TCHiCgUa2P2hi0jZCEOltIXAytp2GNCnmMwSZMAqWW6l1Kpb9ZA1THf2smUDhzyc0wmzARB+1iqJTBzLOsptGj1Af5WtmcVtkBIGLriyzOHs0va7zCzp+K/JfeAx/xKjpfKSef0IYCVs+EqDijSuKaomLqiKeOtV37nwBhyqNOFXsDAM2qED0AsbmKL7OprxYAMN1jDxAw5m2dSO4LCoMu1mgjoIUupvcXDEviyDUTUwZjeNp5xrTqkrfVrcpJQ8DiNrFlLPXUwOATpjXN+SRwlxSfpUl/wURKne5LVjNcF26qYGVDObJ8jEUoBRL6RjsL1p3g50U2bYT+N2dv+wbwJ3ZiXcka0pDUy3kltIg47InGC/Xud7VXHBNBQbQhif78CEiwjNvrRQGMx+a3QVNxZC83qp/hPvuvd6m/29vDx8XtZX84zPe+6//9Rc9ezZdEfvwN);lineShape=1;strokeColor=default;" vertex="1" parent="1">
                    <mxGeometry x="305.7977477892043" y="20.408141074424293" width="45.468068329108746" height="14.218831230696196" as="geometry"/>
                </mxCell>
                <mxCell id="85" value="" style="shape=stencil(lVfLctswDPwaXTEEwec5Tf8jM3FqT1074zh9/H2hqlRFSNpObrLENRfAYkEO8vB2fHo9DN693W/Xr4cfp+f7cZBPg/eny/FwO931aZDHQR5errfDl9v1/fI8/X59GleOT9+u38d/+DnhMqU4grz7Nb0IJOHPi8/T8vPpsljOTFK79ZzICwDo59wBhCmVfYBnyoZRhTtoCKV0gChU/T5APEXfU6qUESBR6YPWLKEYQqDo+ixVinUfEB2FaLNUIwDkFSCS8D4gCaVsAQwqnR1lAwhUQdA5UzUAjSrtA0okb9KqlQGUqpAz4ivEYIeqO7CtA4O01tw+LygVBwClCWEGFMpArbWu6pBIgPjYOXK9mFReGRRi3CLYhvBAG2MQfUMkLT4qRCaXekCiiCip1vodVF6MKHmq1QL+ymsboJ/7UqdKDgBKtWJK2tSg1CU3k5jTWsiBUpfUWngGuJa3PUAx1sfNqvYoBenFJK2ntgHF2r1Xf0aVdiR9pdWfGVDSwknfENqjAbVcsG6sABR0Tc0kFpSQ9am8vdigoc9UCmzTmpDPVGt9Wjg0ghRQekoRe6UCnAGUNon3WjT1AJV3wV5ZepvRBvIoBqHcZ2lsUUTpowDtB2MzWd8ALRVHvgcUlSPo6Rza/JgB83lle4wWO1G0BxOau2zlrQABO8RgjUwpZVC4kJtyZgA3a9sG+DY+Fu7NwL1FXaPatCKb0ROW8SVtWgEx+GjrsBh722NxNeRUXkhMHGzUmqaEXMAeK5NvldkunNVeiPBUyc1SFibDYJy41SFUGQL+rh3k5/WRKsiosw6jDCNottWxhPVUAPn4ng/7duzYWZ97PjoWgITYHogjbAK/mmvN87cVTaEP1uELgG16LOZotewgmWR9lJtUt03uY1e8/y7Xh3+3yZfT+TxdRpff7e1TX003V3n8DQ==);lineShape=1;strokeColor=default;" vertex="1" parent="1">
                    <mxGeometry x="532.8085406626078" y="32.80051357992306" width="47.050841038112594" height="11.742093408572146" as="geometry"/>
                </mxCell>
                <mxCell id="86" value="" style="shape=stencil(lVfbchoxDP0aXjW2ZVv2c5r+R2ZCClMKGUJvf19R6u1Ky55M3hbQYXU5R5cNP7ztnl63mxTeLufT1+3P/fNlt+FPm5T2x932vL/o04YfN/zwcjpvv5xP34/Pt8+vT1fL69O304/rP/y64TJJvYJS+P3vi0jS/37z+WZ/2B9n9o2as88UgH3M1JoFNEplHZAi5boABADQn7MFCKW4DuBMzBZQicEbNCUh+6A5A0CllgyAhSIAlEilG0DCWSp1AcjUAaAmys0DogBAo+gATNLWAaKVFgOIjRgAWiC2le7jlfftq6cSU+N1+56oFGMfqFdgnymLsw/Ivg4STBkiBiXoQt36L1QB7XofvJ8SWighh7pPkNa4oAz1wZkpo5oDDMjRKoGpA2L3NpQ1ACVRQEmqJNalomkDataqdetS1TInSIvePUBQWuMQyswllKXWqVpiq75Rg2mN6iKtAQStgOgaDI/KrAGSdUnFg6ihMQRHvgzV3AMlm6VKHVEpDuJML6AO+lGfxD5TJ1JPIfH/nxBTxau/jPaxxuxmiRq1xYJJqNoRWzP1iAFRYwi+BqxUxPJ0xMthtIS1IMSNwk4FaUGILVN1EsGepFm0ZVC1vQcoHwE0bYo2hppHo12bO26ci1YOUEPKAtCheJazszEc5zqdi+VGS7DrlWmfmAEELQzadi2921TK+zuM6sHWQTutALrmNLg5AVQiQBBcqdqgZ4y/j1AmWIQyHu1V15Vl4VMAldOVxXUZHUhomkT2jVXTFNCa5LuAtmY0EJmqLUPLI6b7IVN1dWY4rOJY6ib7ACd6HPmbtCBQPMGv88IUQY0DRTfO8fq/6JEVj87gWapSQltkoLJYYNCciuMcmp0vAvyJi4NK+xlQTVocbAkSlP0+dT3wQLwfPQjft9eH/9fny/5wuB2v89/9tapf3S5dfvwD);lineShape=1;strokeColor=default;" vertex="1" parent="1">
                    <mxGeometry x="527.7795315333042" y="16.51413144944263" width="52.773498156029746" height="10.252005595355968" as="geometry"/>
                </mxCell>
                <mxCell id="87" value="" style="shape=stencil(rVdbbhsxDDzN/hKSqOd3mt4jQJzaqGsHjtPH7cutK9WkrSkK9M9ROCs+hhxq4Ye37dPrZgnu7Xw6ft582z2ftwt/WELYHbab0+4svxZ+XPjh5XjafDod3w/Pl79fn1bL9deX49f1C98vuESurKDgfvw+cFTjr5OPF/v97nBlXykZ+0TFze19oFoVIDsKBQAKsb4he2oAEAJlZwGcAaDccanVOYAj5aiDljT4OSA6ivqGFKgFAMiUvQJEJtfmAPmeSxogQScAyFR1lmLtJ3cBOZDXLiVPEbiUq82SuBRBHYrkJCsA+563+wDJuo4hOEi+KuRjBRA6MrihRVsHRw5c0DKx9shje6Fe0DmiALqtNXLavvXumNkXTTyfqAJaeDcCHDkV5gFuyxVZ9yc78ijmaovAGRehULrhtkeA1Nt3ACKOQbJ+A0gorzJjdAwxwO5p4nHTQdc+de4DJIkmS0yBAbebzVLIFNHkbn1mDW40CmAoiUuGfGv3IIC3APEIZzVqj0Kvy6xsTk8Y17M840Wx9hHRQqQnGn8aKIEw27RCgfNLWieZ7uR+MgM0zSKJICPatS7eA1AwTxt5M4MjRVTjamvMY+bMRmQyrcPEuDmraf+hv/8HUAsFDRA5jVhH2s3GgBYAUSrWN2SpPUiraKHXVKoM65Bzn3BDGbhry32AdLOug+QtAXbLYseafNLfBa0Yzla6ekqgP2OirLlUcQMJ1WKxMaB+kIWiaHVbCQ8KJ3rcjKA7vAJIR5qNWK6ISHLlClO50hVyotGUNZmk1BlVjpq2rxkWLnRqXtXNAyrdJLW0TpWJvVkxiiyjQBecrXJhKiDeG+ks42Rib/yRZgrAf9dX8WEfoNK6PkyungsFft8QQlovgcXZWxlJWKfGznu1yTvwfVk8tCZIZyP72LezMX+Hbk34+W9vzr/by48/D9yX3X5/eR9f/98+iOXo8pjmx58=);lineShape=1;strokeColor=default;" vertex="1" parent="1">
                    <mxGeometry x="529.7974839621952" y="-5.042075980260506" width="58.03270156765598" height="13.70400957014408" as="geometry"/>
                </mxCell>
                <mxCell id="88" value="" style="shape=stencil(lVfLbhsxDPwaXwmK1POctv8RIE5jNI0DJ339fbk1tA1p7wS5rdeclTQccqid3rw83D7vd8Ivr6fjt/2vw93rw04/7UQOTw/70+HVnnb6eac398fT/uvp+OPp7vz7+XaJXJ6+H38uX/h9xlVKaQEJ/zm/SI1q+ffmyzn+8fD0Jj4xSXUA6VQzAFTi7ABZSMY2QJia31Jh4goAhYp6QIFbUqZSPKDRUACocwMroBMDQGbqGleo4NC5UA5bUkrgDCVREk8rU+0AYJywAxgNkrYBlUn9CkZ0FgCoM68rIMNMNyVOEZDAllqLtEqixtuArpElk3cBWuqWV5+HJJQBYCRSL41MBeRtyFTaugAlcIKRqTYXb8WA4itlDt9XtP8W91NmvV6PHxeMMmwYBgg5WzoMSLIBRpBRoQSUbYDSvbKFSgOAPne8AgYxULaRFJSdlTpiqcQVcp1N6jrAvjcioCOWZBbvCsg4D9ZWvZCsYQhgqQ9qPnGaYUsygHjpmbt0UP8LIEhjwIZhgB7EJ1OOW4ceniXzO0SSkHopCa62TOzjrTrBAUwXoRgYOpUJL9iCTq1vKTskuc+uv1U6QafJag0cIPHaflaGBB/BZBSqk98r5+AK2qDZGklhBZswMsryRwHmCuqrs67Cug4wHXmWzBxR02urLiegMfZOnj62AtKcaq6784WRGCCjCWNQ9lo1vxawQsk0/KGNBuSFNteFhmFuiszWpqTq82CpVLClZQ4L4y1j/9RCw7cY0yOiSUzfYU+mFgTQ+fcK0Ol412vORpbAK55vU6IRxJRJQau3M/t6sPFWQIkm6sFKKg2Qt8tZNUOKeMpmjU/Qn62h+FqwjiEgyRc9TBW2bYv357W2OuD+NcTnyfBGfA+ug0szzfFmVXWHhWbdLVRBhd83hQZfLvPWd73M4nhk8Qz1JjnGd8DPRy+p78fbw/8b8f3h8fF8oX77f7xB26vz7Vs//wU=);lineShape=1;strokeColor=default;" vertex="1" parent="1">
                    <mxGeometry x="535.7751694644942" y="57.83739042828347" width="55.752969343772975" height="12.885688947856579" as="geometry"/>
                </mxCell>
                <mxCell id="89" value="" style="shape=stencil(lVnLchw3DPyavaJIAnydHec/XGU5UkWRXLKcxH/vnmxxPAQ1rextpQVm8GigAexFP3y7//T17pLCt9eX5z/v/nn4/Hp/0d8uKT083d+9PLzi00U/XvTDl+eXuz9enr8/fb7+/fXTJrl9+uv57+0J/171epVQN60Uflz/U6T3//7x+1X+8eHpKK8SipOP9Vy+9fX51oi8SbJJvkom9tQmoU/yXQp5fo2is/0xSY/nCsW8A7GKhnOFXCTNFqUkmShYkxZmBThlRCFKm2OkKkaCpMUnTZsYeYPG8byhYElqPleAxTb7YMAFMSmZFJ0UcpRI3qBB8qxgPA+aJeRZIUsrJKxBdM60AYwES3hejT5KJRFoRElOAU4rxZJzWrt0krgCeC8KkcE7S28eGpWEtewGHBWI0xUNRReniUktiSWfaSMmoWeU2SQEWlmTQVhnaOQshb1hL5e9iwVJpO31MLC5K5hUYlJPo1x2hS5KotSXvlR5E+hwcX5DrVJIxYEa6tw1EGjWKvGGPicObGEEGnDawbuDHRibgAzcG5AZhqU4Wu+u0GmUqol2r9BZPaCpzCbFECRwgsg3vQLwj+oVWDdGRYboFRi+QZr1pjCB0mLyCmwOiFnSDCZkjpnUR153+Sqd+AxOnEu6753tRD4GL5/J88MCJJNGHA5LgIyiYsfMoXYCoYYw2HKXT4Pkz+x38iAjYg/i4/KFJxDmiUvtw0Iij3nCvHxgmJa82MM6sC14C1IJom18e4gP8zcvcydoi8Q/L3hQOoIBXe75RjnNlnrBG4m8LvHPo92f5Ks7/BSKt7VBFJpfMPZqD8V/aYu/hGuAlqUe2fgYlhaqY3M4k5/pGHhg+QoLz0RKfcFPURueSXzi4PZjvdB6tOrl2RKifsvZ6p3E51Z5UGLx8WSzBAim3JQweOw2za1Dsx1nJUk0GZICrWOVPr6B1XAdXx98aMQkjBJWvAJbrzGt+DSn0WjenofWPgGmJU63MOaA/wnUlj2Ttc5PBP2NuZS1XkyNtky+7KgAk9yYiTAkNmaqH+kKphtmEsrTnUVsEMrZnUNnk5B7tjrW7BtSDqPFvq2QPPi2BZuArxTfwrDzZ7ZrplEuBwU2x+ZlA9k2QbYvL1OFNZppW6CRAz1DYMOPbtdMgynObi+OyDNKijT67ZTiFPaL0lkjq9krFKIQm+cS+MAqDuTj1l8krjAfst9msfPT6aJ5H7DDsKOZouLc3cLokUC7D+uvFePtTBffKreZiU14Ngb2w6XwnWONu+PFRH3YTgL+OMpmhlp8H1M606KNJXfrpIzYmj8e8c0X9Oda/TszQPNDZKTlv62U3n7Whbedde4vic48kHdLVKLxhHxz1zi6E213gO7kG9vRwrI1Gr8B9bGz7pXPE9D9UJVp74K8m6l460LCqv91gB0fIe8YpIwx8eyE5abgSgF9868h78rjw6+fXr48PD5ef7k5fu9/qsG/rj/z6Mef);lineShape=1;strokeColor=default;" vertex="1" parent="1">
                    <mxGeometry x="966.7229923071716" y="-15.316339964806957" width="64.8355073697569" height="55.0369106098442" as="geometry"/>
                </mxCell>
                <mxCell id="90" value="" style="shape=stencil(7VnLThwxEPyavbb8bvtMkv9AAsIqBBCQ19+nJysP4/JOIa4ot2W3i3E/q9pziBfPt5eP14fgnl+eHr5d/zpevdwe4qdDCMf72+un44t9OsTPh3hx8/B0/fXp4cf91envx8vFcvn0/eHn8h9+n3BFcllAwf05feEl678vvpzM7473G3OV2AbzIj7tm1fx8N8DtW/i3WjfJBVmr+Nx7Iku7tt7J+oHQFTqr/eiaQAk7RE7DwhSwwDIdqRKAElCHkOq0kiMfJY8+qBFNBBAkagDoCYeJRUfR0CTwpzWfoAOaFEaA1R8QrMoeQpwCQGJhVUxcQZoLEoqAQBNIg8rtI4BCk+cToDKii9JrQhojQAs6mOmvXPiHEU4nR7BAAHLdfGanckGygSILHNeXEAA9cFJAR8q71EneaoNT56g2EDNSyEuFOzQasVF7QPYB0mZ2aexe1SlkFK1fh5ToFE86baKM6y80WyW47FQi001loHcaWAFODrojQfc6HI2p0jZhdgn1gpIkkmOwzoeVkCQSNo5JizsbOxC2jm5nqSVSxoto1SQbQ3ApqSdOI1OJ0sl8cG4aX6CJ9RgeVVFpwMBqJMaMayO1LaRWRiPZImLrFi91LF7rDQyeUItvZg3xcfmcHPYz0t5MxkTcdIvnE6O1DKOMPV9MJ8HVAmjUrK4UZnxSgTrkPFcixk5jYmwqeSYGGtnxhij3DaReo10jrXSW3irZMgUaAlVgAECA4SuWzYAT+JqTBAnH5QB3BmnqYa2sAYMKxMmtXb9uMl0Yh3UUPpUm8YsSg51uvJJ1tYDbABsClgHQZS09hbZyzTMGQMwZb/UUkUATVztnLnxgZFcW3/eABo7kv3sMQ+VDNdXObjJtPIjYQMFKSwPFWelVSurpaZnyps6nacGWjeivdLI7wMYQeTpSGzyOdRXBmCS1RoIARZW1nEVhfqSuHcD2BAo6LRmShAWxAj9YF3OnmAHGJ02kmP8YP3lgBUTJTlTqbD/FE9FX7E8jOVtAqcwOeORFHOWxART6MvORp0wKZBi768NgJXGIivhCYVS1rJtjP2QmyhTugHHTDHdyPbQ1k+8AjK/cZiGgGUmshUuo3C13NONI+FFjq1ArIH8pNYXFmVHSrgPLC3FopR7qW22RMfuAyY103hpfJRbk+nC4f+tyUe8NbEjodOJ7ygTwIi18iOVaR8ITJ3gPaVtTUwJVOT1Yi6T2iuovI1/mDTJeH+dtJPqeTbBnMW1Yc+TCd44LDfyJAMBe81zKpnufazQE+l+N23enbB3zIGdfb+Y2jNPYM6kqkN5vrbQjjlcKDm6kHjc2ly/RNwxh2Xb9VcnO4kqCczZjX7EOubzLc1nZzotYdXzK6GMDOAoJxWctbYTkbMX3DT9Gx37rvdfb5rbh9dXbTfHu7vTm7rt7/hqzr46vdaLn/8C);lineShape=1;strokeColor=default;" vertex="1" parent="1">
                    <mxGeometry x="1043.5648523473178" y="-41.43749409715656" width="43.76280961516841" height="84.8377405125857" as="geometry"/>
                </mxCell>
                <mxCell id="91" value="" style="shape=stencil(lVjLctswDPwaXzEEwec5Tf8jM3EaT9M44zh9/H2hulQMSNo2N1nmEgSwC4Dayc3r493LfhfD6/l0/Lr/cbg/P+7k0y7Gw/Pj/nQ469NObndy83A87b+cjm/P95ffL3fTyunp2/H7tMPPCy4HSjyhYvh1ecORcv/z5vMF8HR4vgIkJnYAodS2ARKoZguo1OI2IOp+FhAzRdkGcKdojySJpABApVwMIGUqFQJiM4DcSNCR1MVkAKWNMKw7nShGA6iFCgBIpCAG0AIJ8CFFSvZITTMNALkQ2yO1RAyooS428YC/mVkF1DqoNgOYOgirupithZpg4nS/UG0eEiRf1TRZCxoGScBp/dtSIyn5gAU9QLFs1cxE4EMRqo7enRqg9wSwTkv915Fa8ALq2OlinVY6dnSkpUQZlpkaiS1btY4gCzUTZ2+BEaBSj94HBopT8rFzWgbht8hXXB7KEO06QIlg65I0ykBAaqG5QqaEB5meBGTDmoQkQD24/qClkhEgU7VhTQVWb820U5wCEDWUS47eaa5U64BK7Cwo4ZGF7HucRimAPKjiuhVQClSQBaHi6N0gW8vc0WaABhrkQX3ojnwyut5W9ZaFRDuoS5UXElXygUlAa/VSogFxqVJYWKiIS51y8E5HZOGjgB4H+6+4hBp7L34SyOoDqK0cwgjK3LN0/gFk6t2fSQOH2Kdn6pZMLcNEqNdineg8JqKtzDlR94bpyh5wFYf1eSb7uVJNoNY+NRCrCI2DgDBNU58svAYW8pinrsYZxI3gp0otbUhxC2LoFMqgLIXRPK64msH52WdZ+1VDo72fWaOWZlRifIWJEcaHi9c/M1TCtJ8ldhkddYsSbibWMQYEVAcvdzUJ0OHUvPgxp/U2Vvz+qJ3n6LvzfJ1bX59GG5sDOmr4+vpM4q5ixPjK4NbLCPDWeifJBAmX62iS7/lNKJ5lpHOujDC/uj66OgcHZ40P2wsMB3yn0onRJYBhV9YMu6FT7+cRaObDF/r/AOjD+/eDh8PT0+Xzw/X//nuDvrp8q5Db3w==);lineShape=1;strokeColor=default;" vertex="1" parent="1">
                    <mxGeometry x="1090.5007136489544" y="0.8095640579217616" width="29.217951371436357" height="34.80149743469201" as="geometry"/>
                </mxCell>
                <mxCell id="92" value="" style="shape=stencil(7VjLThxBDPyavVrtfveZJP+BBIRVCIsW8vr71GbVm7FnqIhjJG7L0DVuP6pszy5dPd9fP93uYnh+OR6+3P7Y37zc79KHXYz7x/vb4/4Fv3bp4y5d3R2Ot5+Ph2+PN+e/n65PJ0+/vh6+n97w84yLQVo6oWL4dX6Sg5Tx58mnM+Bh/7gEjPnvC6BLbK8DUpVcDaBUicRCVtFoADVJ6QQwJFoLrUiPrwNwAbU+9CKZWKi4UreAIb0QQJRYDGCo5EwBxVoYaYbhNYBap0eWHqgPwYZ1VEkkcQVhdYAmjTiNsPZmAZ1GqWTRYAFDKkscfLAWNAQJxOvcZFRvYrBiyjKKBxTiRI6rMHUapoQLrOJalQC6L1dkLjKn1ce190nzbQtZqnW61RmGbYBKV8tREILLRrD1jXqsxIfYRO2VSpJEEheLVKdkhVIuItPWh4Q8MB8QE2sBr0jEQsIFbB4USkYoBylNLkqSmcyoFFvdcT7YPN+zNHshzh6onJOxMEtx8zw0K9vzOlVq+zwUw9+/EyaAiq41IIckngt1uBS2ZG7AZWxMTds+3yRZamqc3NsGQPKcgqUZg20APHAWuM9oZcVZKJKIqHb11IQFdqXWvLzAh0p40LKEbAFKe1Vba6oUol8Nr7PMbBIIb/D+4euIOoAIrnjGzncvLYE2nZ68wgfa/PulES94TO4zoucNxj5WdJifsvOXNRx0vKIunpHTzE0KlU54ON9cF5fA7t+n+UXBZebAKsEoaSbtGOeKjShIU1mK16QpdAx+M6CumriinfDxq1sfYqKDSAmTJZeOqZJIWE8AKy050bmioM4sACMfYxp8cEqBsZW1tNJW20WlXKhhSs9FWzIdEzCZO3JCYZliv28Xs5e+bxf/wXaBhT45H/Kcgl6b/fNq3Wa1gW4zVpQLxAcoY3P9ROnMo8EvC6gWpgLqB+fcKIHCVK3FMtJIjFZzKiqFaTfmA9dwIx1UgycPdkS2WazKLocpUtt16rmGOlSSsernbJRhIhNenwq62NXYjIp+7zoPAI1IpGZf1QAwKmud6rNwgS1fOmYNL2JEc/Dmb3P/BuDH30+Bd/uHh/OXxOX//adDPDp/dkwffwM=);lineShape=1;strokeColor=default;" vertex="1" parent="1">
                    <mxGeometry x="1111.8248751636147" y="-10.639535868549046" width="19.39445961864385" height="35.660516443403594" as="geometry"/>
                </mxCell>
                <mxCell id="93" value="" style="shape=stencil(7VnLUlsxDP2abDW2/NSatv/BDKFkSgkD9PX3lZvx5VoO55ZVu8guBJ3Yehzp2N6Fq+e768f9jt3zy9Pxy/7H4eblbhc+7JgPD3f7p8OLftqFj7twdXt82n9+On57uDn9/XjdLNunr8fv7Rd+nnCVvG8gdr9OX3gS/vPFp5P5/eFhZS6UymCeKaW3zb2jHMefZ3IeAkRGQKWIV5DRAU6U8QolDIAQyDsISOOWoicfISCOQYpCDq9QRkDKVEAWvLdhzZF8BQCmOgLKhg/RrlAKBQGATNENgKprojwUKnkEFOICAGLzIIEEANgRjz5IJgFRUoDnEVAoI6eFyui0VAqoWpdCWAEEASq5MUoiFFHi1MVgAQWVhtKlWgCKkpZGGAHeOVzfwTYZXaIir7UJRQvY6DMzYIPUvthEpIAaXzb2hSqIktgeoPaIobX/2mLPxPlt+0JptFf2oEJKkz3DvqpVkUb+VyrvaqslEqMeph6PZNOWhHKsISrjlrLmGLAzSPdwAWgPA1uKuqXRh5zJgQ6TEsnIzpwgIPtOrQUQKICy03+bsGbupX4esEy/FQDxX2MSxQIq8kGIxfrAoDSKs7XdvAIrFO5UWY23BBJXpgajYYgYkMfi00xvAYzwKZA/CmDjgwoZRGjufX1V3gEkTunChnEOtpg8TSsFFEAgjYk3AG0jINOapjBGqepkQOVdrNNVhQcAaFhl6nsV+FA9uTHTtfaBdx5QbaZ1BdRmRJXU2GZqhspHJk43AJolmodgtxTBdNNZZhKnXgW0JZnyIDDTq5G/DCyHnRDrdZtwCFDtCNLAoQEheZqhsR9XzgO01owPqUvG8wCe1Fjqc/58MS1R/MsVmgbmyQdU38lmrkUJbSl2hbrKQwDFpABnpIyqLQwwzbWFAZBafTDqrZUr6MZN64xhbYRA9e26i2vKIVKzraUtUqep9WHBp3owTT6g44wSyORBw+ow42SiKIyS2LBqb6sgD21L05HMI4qq06ZaIzz0NX5NFHVgjL4boDI1Gx8KPDo0LZKsDxUA9DBvDt8aVgeKL7lpyCUo+lS4FnNaFyxcp5ml8gNRVJVuMkq39KF0UboXpTsCtpXudJD7x0o32ON6ywyiaKYw8kHDkEATiNPIKljphvl8nPrx9Pz5WGzxFXx7xWxHlnaNBBLnxV6o1QDlfbuBm6YooqgCqhFY+Brkcse3iOvLHd//fscn9k5dhQM8ldlSbWddQIZq+6rSE3buqa1iBZqmrupxz7NCSYcbquvQs9Ptm3JCLZLcGM+Ndxa2ejh6qFbZKsP2UgRGJ1vStFtU9KJx5q0LPl3ZO1yP73AnNaIJB+Fx/WVu2T6UItMFwOLOG+bMxhyJBGe56OCv+06kV/OEpoBtVg6eQpYp92qO1HW0kcGtM1ql7OCBJdkqdvBGYXlJXEUGmC+vfKu4o/s4O689vJh652vzprl+eH3Yvj3c35/exdf/tw/h+tXpET18/A0=);lineShape=1;strokeColor=default;" vertex="1" parent="1">
                    <mxGeometry x="1144.49798205172" y="-48.51035669400562" width="36.99221472592171" height="67.98912909950604" as="geometry"/>
                </mxCell>
                <mxCell id="94" value="" style="shape=stencil(lVjLctswDPwaXzEkwOc5Tf8jM3FqT1074zh9/H2heuQaoLRtbrLENQEsdglpIw9vu6fX7YbD2+V8+rr9sX++7DbyacO8P+625/1FrzbyuJGHl9N5++V8ej8+X3+/Pk0rp6tvp+/TP/y84qpQjhOKw6/rnRgp5j93Pl8Bh/3xDlCEJFhApizrgJwoswV0SgCQElUbEgtxWQdwI7YACTAkvj2+ATIJAjQqdocUKTHIIRB3C9AyNFClSFwtoFAFIZVE4kLq851FQB2qpMwEUNbWqWYDKAES1yslm3Sp1EHSMQQKtplqmftxeYtMwZapFeIAkhCfRGeqIOvK1JoFFOoVEKFU2/7uSkQCvVHm1rkDNBCSJErBA1BIzL6/7yq9zIQ2uPgtMrABFX1MFtCgSCPPvXNXVwgIVC3VXSBzChAXUqQA+nVyOtuvrUHmovqQzaFlSETUFG1ILc17LgOUWCtSbeCIqBZq2QMCcCauVAYAKqt6aWefNDIaEe9MrVIGzaf9nR3TgSLaYQQwVtAQkhpJAmUdk1ZzK4iHoawqIAY5jMRNokaK08eDCzSk6aH5VKIV2fHQ3po0dI1BQD1RQQJakihMejCBhss62oweEBUB8jzu3EkUAgarVAGhWWB048YftO9/AFQP0nxIiDg9guJgM2gWyHos9yEkwHTRQ86VNUCJ6sHvnK9mODzU6OfKogML8NbCfiYrefaRtZks227Vv0A7SKNmu7Xc5sBlppWHYgAZT30q0WzLmvE4o3KwGyj1iOhhIJNKDVmxn8e4YwdginaDqduBA2iJuptlCrbuoaa6pwBAyn70brDxdGx26zO0JJ3U3StWmNtkVTp+PaP1zUsNz3p1ePvR9Uho7IUW4Ixe0/CGSAwYVp1X614M81WncCoTHM9t+rhpYD5J19Y7gy9wKtT1rh/qfGitxe/n/1kTa/VxJ5SeirCgH32n/w+AXvz9hPCyPxyuXyDun/tPDnrr+rlCHn8D);lineShape=1;strokeColor=default;" vertex="1" parent="1">
                    <mxGeometry x="1181.5393146365373" y="-17.179240818620656" width="25.300285137633637" height="36.266870417440714" as="geometry"/>
                </mxCell>
                <mxCell id="95" value="" style="shape=stencil(rVfLbhsxDPyavRKUqOc5Tf8jQJzaqGsHjtPH35fbhewVZU8QoIAPay1nJZLDITXJw9v26XUzeX47n47fN792z+ftJF8m73eH7ea0O+vTJI+TPLwcT5tvp+P74Xn5//o0W85PP44/5y/8XnCSSCHzj/8sK56y+7fwdbHf7w5r+0g1dvaOyVUAyORrD8iUwn1A4HaAy4kiiQcAdUE6gAgl4EMUcv0OwVHNAFAp9D6EShUcKQXy/Q4xU0gAUCj0gPkT5T4ge5LcATJTBGHNQ6J1ReQ+oDhK3AF0BR2pJHL9kYqSBeShVvI9l2qkDKKkgFp6QKICnK6FxAAyVQaAYJ3WTxQUpUqcekCliAC+kXkFqACQIzkeACAPyiUXLCAhgG8VvAIwyIOSuUQbJSQCMVKsNg8uQkAyOyR8pELcF5ByiQE11OnQq4bm3gERmEvUhFUoAoAmLngL8CBKSo007CAgSko+GQCwgAIVb50OwAfNa2Qb1gBq2jETG0SiANinXHOmgjJF5IQywRR1gdJXHXEvTLonlL4wsK9CFch64p59qzjcRvCgTLXl5l5L4UE3BOygTetGmBAgDUJzcev/AEJsDeTSIRLs1MFTMQBPDCpC6tAWE2UEyLbxamaQHOsAZKYNzUwCdBXfyLmaBQooCF9sD4rc5o/bAG8FX+OWQKadtCZ4mZhU+1CHsCqgIxmaEocD6cxXgD1bXnwwVA4ag4dWbh35ao56ibdy4Zry3yZpU6tmznDEyFaCGU6GTsewauwdso+Nvld7JET6Wvgz9sHSGZ9H2Rzs95G/ov7mT4RzZq65kMBsaf1myx1Ehk9fkD6014frbexlt98vl7n1e3t706Xl5iePfwE=);lineShape=1;strokeColor=default;" vertex="1" parent="1">
                    <mxGeometry x="1210.3763474251164" y="-50.6118233505772" width="8.964619656988361" height="59.520964397027" as="geometry"/>
                </mxCell>
                <mxCell id="96" value="" style="shape=stencil(lVddb9swDPw1fiUkURKl5677HwWaLsGypEjTffz70XPtlXR8RYE+uMqdJZLHozzw3cv+4Xk3pPByvZy/734dHq/7gb8MKR1O+93lcNWnge8Hvns6X3bfLufX0+P0//PDiByffpx/jm/4PfGYlDH+hT9vC4Wq/Fv5OuGPh9M7fAyU2RCSrkRAEGrNEPQVDAipUhB7JGplG8+ZercbUKnb+JwpJIcPAF+YosfHvo2vur09T6DeAL6TeHwF7xehxA4fwja+ZV/i5YA38b2u8qMHAgXrQtlVOMMM9UYSrIa0BKDEvVNxklDRAZUqwWkixw8JNuiSqKEYOnE1hMpUGAbNNkuSKKEdxPeBNEooS8VnqQUSoLyunZDtDh1XOlEtlpDn7r5NUKnZtNYlqtuEQM1KowhUtxKKjSEXElSHJSeLljLlDGPIVkspQwMbs2RjiJUYVZpng1gIEWtJKx19i741+aaWHCHhSqtarcnERhm3qCMkoYh20I6zR2IhQYMkLD63lLrP1ry1hStEDRRREGpMVt9qzhURZK7T0hCVKjqSmqsttfYoI/Vlr++G5+2nCY19Q4wTCRDWA6jW+VKwNeGaLXUt88rWCK3JEwS4wDij22oHYEx6CYjiY+jgFqDXInbSaPCipPJ3Y1QibLnYVwNCoDFpC7vC6agXIL7ixap6b+imtJrrAV812N8NtQMTiCCt8Lh7ope2Wi2D8+gwsSVodZ5HG3i2fjHOQ4gPrvvT7LNbeOdHGRpY8I1WKmzl4O9VeXHljXw6xWWG+UxzNRfLbtAeP/tx8TFeH/5/yTwdjsfpQ+j97/7LR5emrya+/ws=);lineShape=1;strokeColor=default;" vertex="1" parent="1">
                    <mxGeometry x="1205.0871292776146" y="-24.94781370840201" width="43.7174317337649" height="5.869008018466957" as="geometry"/>
                </mxCell>
                <mxCell id="97" value="" style="shape=stencil(7VlJchsxDHyNriiS4HrO8o9UxY5VceyU42y/DxgVpWGP2SrfcshNltAeEEujwTnom293H77eHIL79vz0+Pnm5/Hj891B3x5COD7c3Twdn+3TQd8d9M3t49PNp6fH7w8fT39//dAt+6cvjz/6f/h1wjlJrYOC+336oiXJ9e8370/298eHjX2QpLO9SnVr+yi1zvZBXFvbFylusq9Nalzbey/9ty0gS8kEkPAENUgmAAtRmUNUikQGMAdml4qXQmKqKpomQLYkFBJUJ2GOamqSWRbM49mlpJJIWFOUPLvU/wXJWw7iZ5eil0iekJuonwCapCqpjCSlzABHAdVLmmvJMqOBAJI0AIRRvi8DdmewYvHkCc2PvA6AL9JILVl3OQBkiYkCFABhtPjKpRZngKMM0Jw4oACJngSpStzZk1o1e5fBPpAQ1YLtVkcaV/bgTx3tt7L30P+SWdkVjE8eBPKyfR4VcO5NqaT5u/2c4TgyuPQH7R23D3Pr66DYlT22GaUWs6/QNNyfKn6Oj7Epi3+VFMA+s45x6L8XJfVjAyzN/jjKvS2OeXSxd8ze8tvQnvVjw/iEEYCXB6A7P//SAGw82QMyJEB5RNsY8RuWSwxQcQDaGRoDFJw2dgbHiDfhAFQvnnSZ8SiwhAYphOYMADJBeV0bIME802vUDkSkNqWZS2EQ+WbEMuo1gHcIKOwMuxFrADptHJKdnYEOQIdyzaLUSPsbIETMwxWXPAD8CMPyCbNLgauvfgZgvDo4dhml2SWbOYE9wbQW9EMeLLXKNAyFro0YCQQUhH2sMZd09NfmDJF3HPCqRSmzntZBWxtBSEnAVpUdCbBRZQBgPis+yt2mvqBaIxUvFtYKT0ijy1cA3XUclWseN6oO4ILQKwKYALBqxSjFoYtXAA27sHIS8CBJ/LWO8/vSuEICrwPoWIfO1ao8cbYJQwNZoFmUEvaDSX+6XGQksi79udLYKWc6HuIYyhf7wKg4oFKt1zaLOpdqo0rs/2bxf7P4lzeLfnVVwZ6qWr/TCTRffcQqxD8xe0vn7I/1L2cgoCwT/lTHJ9TxJvzZBUofsCASHFfZu2smi2lltw8Nty8rOppk00GgvfJIy+qaCcVao2kueWi5zbxkyijbGaBvGgeEwSPnwkh0mqU0JsuZKfwYJqsLxTaXaiq0lqJDsZZ1XGKuLkWhefqNITl0l8gzoCS6CPc9H9rB03lwmb+bu+ZEzuD9bqC5ofderiUJcztYy3ryAOs3uL3nE0FRR9nmHYi9R4K01b4S+912t7lsWACgsu0BjT4gxZ1DpE5Nae4OwDLmsDXNnpW1w5sOCyh7+3BeULYJ4Pbgz1mTrOwV7ZkqdUOCbguI5guWa7Pn/kfwP0mj/r/uddR1e/twefd1e7y/P7062/6O78rsq9N7Nn33Bw==);lineShape=1;strokeColor=default;" vertex="1" parent="1">
                    <mxGeometry x="1258.529596576138" y="-81.64528900628966" width="168.07120036375682" height="66.10989551495004" as="geometry"/>
                </mxCell>
                <mxCell id="98" value="" style="shape=stencil(rVjLbhsxDPwaXwlJ1IM6p+l/BIjTGHXtwElff19uDW1M7u4EBXpzNpqVOOSQo93x3evzw8t+l8Lr2+X8df/z8Pj2vONPu5QOp+f95fCmv3Z8v+O7p/Nl/+Vy/n56vP798jCtnH59O/+Y3vDriuNOLU2oFH5fn8RIsf598vkKOB5OtwD9d7SATCFsA1KmUiygUQA7RKFWLaBT7wCgR8oGkAqlDACFejMADlTBDimS2CMxU0qApUAcLKCQAJZyoNgtQIjBkYqe2Aatr5C2DaiBmk1cZooMAH1wMgMKLI3WfKazZhocSfIohBkg1AGt0ilbWkskBjH0SmJZKgLzEEMY1TwQVSiCIHoflTAATZ+AzPVEbAEaFtpBKnU2AH1FFpCISskBlIcIUl2p2KA1qgB4VRareADiVasv2OqTMlKzDoheo0oDklxl38mkwTzUQsHGIFp9oL4V0G0MPVJAMVSK9kidR+63dmguD2Voah2QqVqWuooQZZqHhGeAwOaqeWAXdIeJK30o8gaAaC2NcvIARjsoS+JjCICloiPIAWaFrAOYuu1kPcOZtQKI1ICmpyPZ5qpNoAIBTUE7QBs0bNJq86ACymiiKOs2hkmiYIcafaZ1h/BB8S00LUhx2bcZlSgjPSwFFEb9bkp00Vuh4pZNIJOgMVrGDLwpvo5aJS9iECqIpbgoPq0lVN6zn5od1vvY+18I8YZmqibU+1QR7AEFSKilxYTgkZv1ORqHQZoBgQqyGzpAbLNUi8NAETIPwRkQsQNq3lhq9jOgVWNwU24axYilsgBUXODih5b2KuQ2pr5hFVESpDWrP3IuTr0pOJJa4eycaB+HXPfrMubyjRPNoDT0zuG8gHpd5Dai+nUbQ9bqAt01U7QaZS0lIOqFDdU3IINV/DzRSw4acXprc+rRnoEojQtfDM+jKfA3IFhFPDvUsT7AO5zS5zoS7kd60Y3i16N8BV/VYXjk9fWLYRhhAeXkZ2Eaqtha7+Y/w1Y0Xe6cBOAVV9cnG2+FnUvP4/ifbdzWeqdh3LeUz+aG2vgssJUvVz8qUWSo/v3Lx8cA/fH+oeXpcDxev9Pc/t9/mNFH1486fP8H);lineShape=1;strokeColor=default;" vertex="1" parent="1">
                    <mxGeometry x="1419.2909757780326" y="-110.15730331364148" width="43.664111945067816" height="37.83390718710507" as="geometry"/>
                </mxCell>
                <mxCell id="99" value="" style="shape=stencil(lVjZbhsxDPwavxISqfM5Tf8jQJzGaBoHTnr9fSkYckxuNEXe1l6NxGM4pHYnN6+Pdy/7HYfXt9Px+/734f7tcSdfdsyH58f96fCmTzu53cnNw/G0/3Y6/ny+P/9+uRsrx9OP46+xw58zThp1HigOf8//cJ3/fD0Dng7P14BAqVpAoxDWAGZKxQB0iyprQCxUkwVUahjAFpAKtQQAjUowgFwpgxM4UbFOl0wRAESoZgOoTLGvAWpxsibVRhGEtWgQmwG0CH2osgEwcV0D9HWL/oQKfBgAm4caiYEPup+4PHQKwKSaKXWbaU0cyHQpFG3iJBPnNSAXyq4eMgxrEuo204O/wOkUqduwxjQD/TEgTBcvACYBAOnUbab7LMHVAWzXaxDQ+kjJeiBQMjREbBUgYoczFTHrA7a/efsDVKQcvObp/g2sF7+/2g/syaoN7OOD9lf9Ehf/Aig3OGrj3yFF1R7n7yAQKLOc5n7XFEUe8wzgdRGAukxKUVvIsWJOVBL2gA4KOSXfRRQQEYt443SeWrAqGx9WwRofprhdAEo8pC0KsGGtM/NLi6wWpdmGli7b/TWPKGvKAqvXgRqKkCZtU5hIfPV1cesZ7K+088oIhfGz64v2bNfFYRloj3fNQzknwGHt8WzLQKVCgFQ0VRJLUh2mInChdZLNMIXErifvg44mAZCiV9/PVG8COCGGizxfzQkdFE5vXvBamYPAyutqK21YiTLXZmLfSxM3kTFZ2NT1Dm3KzXcFdauhQUFVfeMEY30pru9rwQKA8OaEOLdYzcFuwmt1TsYf55p95mqFklH9vKbUyOCAMGetC/n0NgIkdUM9HTYaqNDoFVIn+4Ym1FkrVwWN1qtAuLlfuw5ixbh/uXmToShtb3gK6Ejlg2fF6Gu4czpmKwAyW/wYP+YL1EhUlBzgMtivRkhx9VynJKwA1QHwULUFjGaCAc4kpUZA5bxxelxDQXVuw8pYureJG/zFNwVHDQWgy87nPy/8H6AP718zHg5PT+ePIdfv/dcP/ev85URu/wE=);lineShape=1;strokeColor=default;" vertex="1" parent="1">
                    <mxGeometry x="1460.4405643323494" y="-118.0594493711119" width="32.26698001135264" height="29.66186523433589" as="geometry"/>
                </mxCell>
                <mxCell id="100" value="" style="shape=stencil(rVfLbttADPwaX4nlcp/nNP2PAHFqo64dOE4ff1+6wiomJU+Bojd5xbHIIYfkbuThbff0ut3E8HY5n75uf+yfL7uNfNrEuD/utuf9RZ828riRh5fTefvlfHo/Pk+/X5+ultenb6fv13/4OeG4UkhXVAy/ppPUKJc/J58nwGF/tIDSDCA3CvE+IDKFYgClUkz3AcLEbAA1UwQupUilGkAL0KVcKHUL4EHDKqB0isG61CkDQF18ocbB2zqgUrNfyJ0a+kKl5BLXiTMAZArWJakw0zWQWFpjJkYsJRLrEidikIciJDbTzMPJe4AULa3UGXpUxJJEHUVQqFn7SKnCuqiW00AVUSq+jrRQAyyj6u2RErQqu+WHKYMEtDhezzVBBdRQSxSz1TIlwL/ad+u/ykagvcsvz9q+F0CzzYUzjnhR1NrQYMq0WTmXVGc4xzV7QEbSV5csSdyoA8C1f2YfA0qDyqCzZwn2OxlpuskDg8QpwLmkIQCS1CPX4zM1FHIZOvko1IgiblRdK6II/Nfu7MZggK1Om2nOzj6gomheCAyFr/PI+T8X+rq9Fp2bymM8/Bf7LmNU3M4CoLPeqLjxxJBRDsGnOGvZAu337mesCkMAqT377qg0o/HRChUbdY/jZD3Nyfdr5YHRQGNP0w0P68uORm0rT3nIACCFxGq5a/8AWtMZ6cSvUQtKnSx4TeNkPYbFNjXPxVX7QMmmQVfOBsbUopKUNAGVNGt9ttfNCNSFDnk7Q1Iecl0naHg72ye4qi3WIt1wUbzazK2YVWsdrRUUsrcXUNY68IK3R2uIbnEcPaAAQnW69O4jFqAbXSyLc0lGR14HZL8oaM7QHYFV+84lXcYQ4B9uUn8D6MPHxe1lfzhM977b9/6ip0fTJVEefwM=);lineShape=1;strokeColor=default;" vertex="1" parent="1">
                    <mxGeometry x="1490.7774555145515" y="-129.1165833718619" width="26.081935472480836" height="28.832193927149547" as="geometry"/>
                </mxCell>
                <mxCell id="101" value="" style="shape=stencil(nVfbchsxCP2afWUQEro8p+l/ZCZO7alrZxz39vdlu5VrsMw2fVvLHEnA4YCm+PC2fXrdTIRv59Px8+b77vm8neKHiWh32G5Ou7N8TfFxig8vx9Pm0+n49fC8/H59mi3nry/Hb/MOPxYcR0g0owh/LisxQ8HfKx8XwH53MICsAKlC9QAJsCpAZojRBWQNKBVCvg9IBK0pQGWoDoAKNNQn5O7VEBAqUNA+ZPdKcoAOEktU2317BNQXSglK8faPSdlTAybH4wioLyQr5BwQGwSdhFAgOR4IL7ImUkAI7LgQoUQNgFode6GZtscehKF9TRDZ2KNn36AYB3pShvZN9i+6ciA4tG4Fqt4/A3n7y3005xpUJwFiXzUnQuwnjgG1n3+VYnY4IR43HVEJaXFS3BCSoanw0ImR1G0wgATBq4MGOVgAeqxLVu+IutyMAcLiYJ3+IwZDQC6d9pewZjdxIoeG2JI4dK4k2hMtMzwxyhVY2zOwJ14EpC8kIfJiWqy4YC/tcZYJGI29V2lV1LQae/ZoJ/3A3j96lZZtAhjQrzTSlV+79o27B97Ie6CeknulaTwQDkWvNKUd6RYYRD4cDkmM0NSyBMlzmm46iA+QlmqiJGHy9ChT14aLoHKX8HHfb7bSEkL1mlqxiU7F7TlyQtYnsKx4pYa2KcxtzlOLbBVP2B6cK3Htknsp/ub2QenkBnDFxzFCZFs7MQu5N13cjCPzxOYkYp6P9J1WZkKhDr9r6pxLUpfcylwrgGbaeQJ2+C1RsnSl3ozGgGAHHtnCG1NjtFOkCH1yCkJctN2w9lTe4wabbniZXO+N2qaVrAEY0ruuJHm1OuM7zdjF/R/DymTVeCVxfDM8r1Djvx5VKwD5+PuGe9nt98sT8Pp/++aTpeW9GB9/AQ==);lineShape=1;strokeColor=default;" vertex="1" parent="1">
                    <mxGeometry x="1523.7395462074091" y="-132.15723588522633" width="17.702655825395595" height="24.952512351140285" as="geometry"/>
                </mxCell>
                <mxCell id="102" value="" style="shape=stencil(rVhHbhtBEHwNr43J4Szb/xAgyiIsi4Ikp9+7xsSst3u5JRjwbRlqp0NVhznEm9eH2+fjIbjXt5fzl+OP093bwyF+OIRweno4vpze8HSIHw/x5v78cvz8cv72dHf5/Hw7/jmevp6/jzf8vOBClV4HKrhfl298keb+fPPpAng8Pa0BXmrTgC6eAPC+XhQgZOmZAJI4rwCxSEwEEOb7JiA1cQwQJTgFKE5SJIAsQZtUumQG6JI0oDZ6QijidVhrlUaiFIOUbgHj4y6giTcmeYl9H5Ci+KCd9uIJIHtJmks5iqsE0OwJSFwmiStJko5SStKISXCxavIlL9kTAJgTLfkqMQknJE2+mCZZrvuAxGmnkcrIorQYsNYDyXTOErUP2fHEgZtGD55KtESpOtMFbCU+VOhL56EGSSxxTbpha5ZKTOqbsEIPmdSlnsUZAOhIfOhVvM507dIJNXqTqiXaYCQDdBvWlmd53gN0rYfWpTCnN3WpQ+XcB1M1eqFlZvxsAI0qDgZ0zdYRBkKN7idzVoBOTkBMTOJgUisEgEwX6zQjH9JUow1rYyaBfFpx3U3R7gK0D63MBrAHaIYa6HqES3DaFIEG0ZJMI6xJ16XR4xiX/IzJWqIMgEqaLKBx8hlqQKKB0ztqk5qXwsrM0vcXQKKZ9s7ZVDcc2ugRRWcOgetMEE2KkRzmFcJvhKkb9vFhA4moulaOQsJMQkvTJ6zi8J8QoKf1os1yuNeEDJ0QCM8a6VJMVyrNrJG6KbE1nYhJKdtKU5cR5zoAMdEMR/NmUYrdSgITUCOSSMFWS8zrlZnUZ21cMsd7Ciw2A02jtQ+ztjNRpeN93Wwc3osjHkDCUdMbAz8TNWhQNjsNBcTNTsO7ImpE0zHKSTJrQW6OFqsZjmkaRPNmhst088OIZ2pl4TsNlqpoynegbTRvxvu6nLmrN9MV89xB9vRmmtyYf8gJEYXRdPZGBQpuZh1WlEpGjeDm9L8CBHIC1t1iTCrU6TI72qoBsaa4ef8QFEnbpsGBeZXwws37gqUiFVovggRdwUKnVbjZcoF6VEg7HPcHRglSWUvvdnMIdB9DbYi6WoC2/C7ATJO8EQ6Hu30/4QPCZxjnp0PXNeBsCwnz/uT6/70VWaSyx/5r4pklEwGMfdnUlXf/b6aXyfA9+81Whf5RWIC8XbjBODY6j4iaYSfRVRIWB9PSykz6dcA/3+u9D8DD32vE+9Pj4+UWcv27vXbEV5cry/jxNw==);lineShape=1;strokeColor=default;" vertex="1" parent="1">
                    <mxGeometry x="1552.5944549157139" y="-135.22589921978852" width="39.02144855282859" height="26.15001446808583" as="geometry"/>
                </mxCell>
                <mxCell id="147" value="" style="shape=stencil(7Vrbblw3DPyafSV0pcTnNP2PAHFqo24cOO7t70t1obN7RnvGTdGHAPWb44yOJYocDime8ruv9x++3J1S+Pry/PTz3e8PH1/uT/mHU0oPn+/vnh9e/KdTfn/K7z49Pd/99Pz06+eP539/+TCQ46dfnn4bX/jjvC6KhbEohT/PvzATzX//5scz/vHh8xU+SK17fJfaGD4AvkksFA/7qRITxec9Ps0dHuBVd/huksl5k8T9fnqVQvBFGnw/SI/H+C4p7vCtUvvHJKntFqhJD2SBSrf9gizFyImjxP0Rql8ZMWmq0wO2BUGMnDkZGqlUyWRLOaPXFffDThY0KX23IKsUcoYSpey3lJN04te+47g/tJ9KiWOXLg0WqDRipZokpP2CIkHJgjoja1sQRcmh/V4h+KNNu91coG71/ZZiEyXRqUna3vncHQOxkha8uOgRRdxb63S1bUGmBKAqCodO9OK0Sd67RozUNdRjGqwUpLEtddH9GUyMXUOX3ABPjWro3F0C+X4LEoGUprPfxkdp+wP7pZBwbhnPW2Zs3MYvpJqlk0BwvDXAK9uPU3oEfCU+11RiBjzLIa1JMMAn9n13IPx+ZHibhH7BB+JvIyUFxBP/6c5EaM9A7Nn9eAX3T/ytl/W8meXMiiLBMxrxn5GyIRtMFXCEVzxvZ/b0BLg/b3nN/iAqqiQWjyo1Ap7l15ZQVCjNls4nYR9fbX7gNj5OSr7wCfNnzzNAiH2mhdt4lWSA72T/dcnFnfJnzWIgGqeKPMrEWhBP4qXGG/zM7BPwvjq932IrvpHzuvQoBfBMYxbXBYgvTNo0aYhPTGy1GU5X+Yjh/XPon4z/HW+IZxrC7QkSuUllQqvMP3+JLyYua8fvV5qPXKCDxvc/yFRWm+nqwldG7svzu1XAR5a/nP5AWNIaaOSv/f4j5bce8X4Dzb8jH1XAZ8bnaZrvgmf85vkL8mOg+dfzF/BJoHzSF/0QKD90V6B43kD8oXf0h0D1npfAFffD8rW5uTvan9jT8YZ4lq/N+RPvi9UxA4/+04n/Ox70baT29P1XqGIkkvi1ggVxksz2s9HBP9N71rHQKzPh3MYbxm+lejWGpQvjRRNziDTv80KgmTloRcHa6AFaXr+fWAHgAiUDPjJ8QMGhtIDxgiqjfV4p8CDhKa+z+/zzFzxzON9PWwQiI+iACb7OCu5IUFbEM0HpBRgQVp0Mc1hQdcQzf/D8nwFPCzzDgKkzIx/hDRM8a1r2RcD5/TJ72mwgXPkPLwgN8Ub8ze0DPQ7edG1LE6VRAef3Gzri2X0ljK/GC+Cwxi8TiO7/Fe3Tib+N+MqAZ/6mW/1xwScejwX9gSUYP29B/2cFkvObIZ614Zw/2xK/3B/qEo//Id75PyNfsRbcEBzIt6wh5QKoIf/QfNSw1Vpea1hAPzrNDtWRADUUxJk1CL5DgYvffxO4/1+B6/aEV7RIBaX7Q9nf19ZRPCoIoaGc6X48Py4NYmP5pa4FNotf51vAV/4o0VBvKL1fDej/nb/0vDXI3hpk33eDLOP3GT+7/yvqq8ga0GXVG4xvx4MZvB9TffhvHpCwAff2gLTXM28PSBT/bQ9IZX1AVd4w7ai3qV4NqPeUPzgZ6u3GH3TbpOMrPmf+ueRTo6MTbevHb/ok0KGAEfDLGz9jdK9o4QQx0TEclxAgWeNWlB3VkApnKHzsoCGJRqUsoXU2KbYFjaZJXcqMyIfFdJn+cqHIrFQVXybcs+nTYsanyFH6s9S0zDYMX2KDProMB2QqVkpaRomUZsvcb0w3KdlSLjhKVCrtJ+aA/SBXYOwMo78BhLG94d5eEJeOWaYtQnc1KLHUaE/OwwU1RaUkYNhDHVmLNS0XDciNqnMuccMbLeqXnGCJNkkq9pzGJCQTRVNSbvhGk6xij8369PQD++D++bBYw8h0fGUiCnt4YxKV4tOCZ00zRfIy43yKmtrx7FW1LkNcfIpr6alcPbscLEjLAdgrxTI0aVtb+3YMI/cOPCMJ5LlhUMYROPUyLow9Q33jaPLreP/hMgf96eHx8TxGff3/ODftvzrPXOf3fwE=);lineShape=1;strokeColor=default;" vertex="1" parent="1">
                    <mxGeometry x="1498.610207592923" y="-482.1974434094511" width="49.90321784179332" height="325.65544643839326" as="geometry"/>
                </mxCell>
                <mxCell id="168" value="&lt;p&gt;&lt;/p&gt;&lt;p style=&quot;&quot;&gt;&lt;/p&gt;&lt;div style=&quot;text-align: justify;&quot;&gt;&lt;span style=&quot;background-color: transparent;&quot;&gt;Ver las pelis que ha hecho, si el target estÃ¡ en alguna&lt;/span&gt;&lt;/div&gt;&lt;div style=&quot;text-align: justify;&quot;&gt;&lt;span style=&quot;background-color: transparent;&quot;&gt;, bien, sino ir actor por actor a ver si alguno tiene el target en&amp;nbsp;&lt;/span&gt;&lt;/div&gt;&lt;div style=&quot;text-align: justify;&quot;&gt;&lt;span style=&quot;background-color: transparent;&quot;&gt;alguna de sus peliculas, sino, coger estas peliculas&lt;/span&gt;&lt;span style=&quot;background-color: transparent;&quot;&gt;&amp;nbsp;e ir una por&lt;/span&gt;&lt;/div&gt;&lt;div style=&quot;text-align: justify;&quot;&gt;&lt;span style=&quot;background-color: transparent;&quot;&gt;una&amp;nbsp;recopilando todos sus actores hasta que salga alguno que coincida con el target&lt;/span&gt;&lt;/div&gt;&lt;p&gt;&lt;/p&gt;&lt;div&gt;&lt;div style=&quot;text-align: justify;&quot;&gt;&lt;br&gt;&lt;/div&gt;&lt;/div&gt;" style="text;html=1;align=center;verticalAlign=middle;resizable=0;points=[];autosize=1;strokeColor=none;fillColor=none;" vertex="1" parent="1">
                    <mxGeometry x="1006.0000000000001" y="-385" width="470" height="110" as="geometry"/>
                </mxCell>
            </root>
        </mxGraphModel>
    </diagram>
</mxfile>